<?xml version="1.0" encoding="utf-8" standalone="no"?>
<!DOCTYPE svg PUBLIC "-//W3C//DTD SVG 1.1//EN"
  "http://www.w3.org/Graphics/SVG/1.1/DTD/svg11.dtd">
<svg xmlns:xlink="http://www.w3.org/1999/xlink" width="584.714693pt" height="296.39952pt" viewBox="0 0 584.714693 296.39952" xmlns="http://www.w3.org/2000/svg" version="1.1">
 <metadata>
  <rdf:RDF xmlns:dc="http://purl.org/dc/elements/1.1/" xmlns:cc="http://creativecommons.org/ns#" xmlns:rdf="http://www.w3.org/1999/02/22-rdf-syntax-ns#">
   <cc:Work>
    <dc:type rdf:resource="http://purl.org/dc/dcmitype/StillImage"/>
    <dc:date>2023-06-21T15:58:40.169047</dc:date>
    <dc:format>image/svg+xml</dc:format>
    <dc:creator>
     <cc:Agent>
      <dc:title>Matplotlib v3.6.2, https://matplotlib.org/</dc:title>
     </cc:Agent>
    </dc:creator>
   </cc:Work>
  </rdf:RDF>
 </metadata>
 <defs>
  <style type="text/css">*{stroke-linejoin: round; stroke-linecap: butt}</style>
 </defs>
 <g id="figure_1">
  <g id="patch_1">
   <path d="M 0 296.39952 
L 584.714693 296.39952 
L 584.714693 0 
L 0 0 
z
" style="fill: #ffffff"/>
  </g>
  <g id="axes_1">
   <g id="patch_2">
    <path d="M 64.24625 243.35827 
L 390.880482 243.35827 
L 390.880482 29.616 
L 64.24625 29.616 
z
" style="fill: #ffffff"/>
   </g>
   <g id="matplotlib.axis_1">
    <g id="xtick_1">
     <g id="line2d_1">
      <path d="M 79.093261 243.35827 
L 79.093261 29.616 
" clip-path="url(#pa6e735052e)" style="fill: none; stroke: #b0b0b0; stroke-width: 0.8; stroke-linecap: square"/>
     </g>
     <g id="line2d_2">
      <defs>
       <path id="m6d30b12d97" d="M 0 0 
L 0 3.5 
" style="stroke: #000000; stroke-width: 0.8"/>
      </defs>
      <g>
       <use xlink:href="#m6d30b12d97" x="79.093261" y="243.35827" style="stroke: #000000; stroke-width: 0.8"/>
      </g>
     </g>
     <g id="text_1">
      <!-- 0 -->
      <g transform="translate(73.367011 264.035457) scale(0.18 -0.18)">
       <defs>
        <path id="DejaVuSans-30" d="M 2034 4250 
Q 1547 4250 1301 3770 
Q 1056 3291 1056 2328 
Q 1056 1369 1301 889 
Q 1547 409 2034 409 
Q 2525 409 2770 889 
Q 3016 1369 3016 2328 
Q 3016 3291 2770 3770 
Q 2525 4250 2034 4250 
z
M 2034 4750 
Q 2819 4750 3233 4129 
Q 3647 3509 3647 2328 
Q 3647 1150 3233 529 
Q 2819 -91 2034 -91 
Q 1250 -91 836 529 
Q 422 1150 422 2328 
Q 422 3509 836 4129 
Q 1250 4750 2034 4750 
z
" transform="scale(0.015625)"/>
       </defs>
       <use xlink:href="#DejaVuSans-30"/>
      </g>
     </g>
    </g>
    <g id="xtick_2">
     <g id="line2d_3">
      <path d="M 138.481303 243.35827 
L 138.481303 29.616 
" clip-path="url(#pa6e735052e)" style="fill: none; stroke: #b0b0b0; stroke-width: 0.8; stroke-linecap: square"/>
     </g>
     <g id="line2d_4">
      <g>
       <use xlink:href="#m6d30b12d97" x="138.481303" y="243.35827" style="stroke: #000000; stroke-width: 0.8"/>
      </g>
     </g>
     <g id="text_2">
      <!-- 1 -->
      <g transform="translate(132.755053 264.035457) scale(0.18 -0.18)">
       <defs>
        <path id="DejaVuSans-31" d="M 794 531 
L 1825 531 
L 1825 4091 
L 703 3866 
L 703 4441 
L 1819 4666 
L 2450 4666 
L 2450 531 
L 3481 531 
L 3481 0 
L 794 0 
L 794 531 
z
" transform="scale(0.015625)"/>
       </defs>
       <use xlink:href="#DejaVuSans-31"/>
      </g>
     </g>
    </g>
    <g id="xtick_3">
     <g id="line2d_5">
      <path d="M 197.869345 243.35827 
L 197.869345 29.616 
" clip-path="url(#pa6e735052e)" style="fill: none; stroke: #b0b0b0; stroke-width: 0.8; stroke-linecap: square"/>
     </g>
     <g id="line2d_6">
      <g>
       <use xlink:href="#m6d30b12d97" x="197.869345" y="243.35827" style="stroke: #000000; stroke-width: 0.8"/>
      </g>
     </g>
     <g id="text_3">
      <!-- 2 -->
      <g transform="translate(192.143095 264.035457) scale(0.18 -0.18)">
       <defs>
        <path id="DejaVuSans-32" d="M 1228 531 
L 3431 531 
L 3431 0 
L 469 0 
L 469 531 
Q 828 903 1448 1529 
Q 2069 2156 2228 2338 
Q 2531 2678 2651 2914 
Q 2772 3150 2772 3378 
Q 2772 3750 2511 3984 
Q 2250 4219 1831 4219 
Q 1534 4219 1204 4116 
Q 875 4013 500 3803 
L 500 4441 
Q 881 4594 1212 4672 
Q 1544 4750 1819 4750 
Q 2544 4750 2975 4387 
Q 3406 4025 3406 3419 
Q 3406 3131 3298 2873 
Q 3191 2616 2906 2266 
Q 2828 2175 2409 1742 
Q 1991 1309 1228 531 
z
" transform="scale(0.015625)"/>
       </defs>
       <use xlink:href="#DejaVuSans-32"/>
      </g>
     </g>
    </g>
    <g id="xtick_4">
     <g id="line2d_7">
      <path d="M 257.257387 243.35827 
L 257.257387 29.616 
" clip-path="url(#pa6e735052e)" style="fill: none; stroke: #b0b0b0; stroke-width: 0.8; stroke-linecap: square"/>
     </g>
     <g id="line2d_8">
      <g>
       <use xlink:href="#m6d30b12d97" x="257.257387" y="243.35827" style="stroke: #000000; stroke-width: 0.8"/>
      </g>
     </g>
     <g id="text_4">
      <!-- 3 -->
      <g transform="translate(251.531137 264.035457) scale(0.18 -0.18)">
       <defs>
        <path id="DejaVuSans-33" d="M 2597 2516 
Q 3050 2419 3304 2112 
Q 3559 1806 3559 1356 
Q 3559 666 3084 287 
Q 2609 -91 1734 -91 
Q 1441 -91 1130 -33 
Q 819 25 488 141 
L 488 750 
Q 750 597 1062 519 
Q 1375 441 1716 441 
Q 2309 441 2620 675 
Q 2931 909 2931 1356 
Q 2931 1769 2642 2001 
Q 2353 2234 1838 2234 
L 1294 2234 
L 1294 2753 
L 1863 2753 
Q 2328 2753 2575 2939 
Q 2822 3125 2822 3475 
Q 2822 3834 2567 4026 
Q 2313 4219 1838 4219 
Q 1578 4219 1281 4162 
Q 984 4106 628 3988 
L 628 4550 
Q 988 4650 1302 4700 
Q 1616 4750 1894 4750 
Q 2613 4750 3031 4423 
Q 3450 4097 3450 3541 
Q 3450 3153 3228 2886 
Q 3006 2619 2597 2516 
z
" transform="scale(0.015625)"/>
       </defs>
       <use xlink:href="#DejaVuSans-33"/>
      </g>
     </g>
    </g>
    <g id="xtick_5">
     <g id="line2d_9">
      <path d="M 316.645429 243.35827 
L 316.645429 29.616 
" clip-path="url(#pa6e735052e)" style="fill: none; stroke: #b0b0b0; stroke-width: 0.8; stroke-linecap: square"/>
     </g>
     <g id="line2d_10">
      <g>
       <use xlink:href="#m6d30b12d97" x="316.645429" y="243.35827" style="stroke: #000000; stroke-width: 0.8"/>
      </g>
     </g>
     <g id="text_5">
      <!-- 4 -->
      <g transform="translate(310.919179 264.035457) scale(0.18 -0.18)">
       <defs>
        <path id="DejaVuSans-34" d="M 2419 4116 
L 825 1625 
L 2419 1625 
L 2419 4116 
z
M 2253 4666 
L 3047 4666 
L 3047 1625 
L 3713 1625 
L 3713 1100 
L 3047 1100 
L 3047 0 
L 2419 0 
L 2419 1100 
L 313 1100 
L 313 1709 
L 2253 4666 
z
" transform="scale(0.015625)"/>
       </defs>
       <use xlink:href="#DejaVuSans-34"/>
      </g>
     </g>
    </g>
    <g id="xtick_6">
     <g id="line2d_11">
      <path d="M 376.033471 243.35827 
L 376.033471 29.616 
" clip-path="url(#pa6e735052e)" style="fill: none; stroke: #b0b0b0; stroke-width: 0.8; stroke-linecap: square"/>
     </g>
     <g id="line2d_12">
      <g>
       <use xlink:href="#m6d30b12d97" x="376.033471" y="243.35827" style="stroke: #000000; stroke-width: 0.8"/>
      </g>
     </g>
     <g id="text_6">
      <!-- 5 -->
      <g transform="translate(370.307221 264.035457) scale(0.18 -0.18)">
       <defs>
        <path id="DejaVuSans-35" d="M 691 4666 
L 3169 4666 
L 3169 4134 
L 1269 4134 
L 1269 2991 
Q 1406 3038 1543 3061 
Q 1681 3084 1819 3084 
Q 2600 3084 3056 2656 
Q 3513 2228 3513 1497 
Q 3513 744 3044 326 
Q 2575 -91 1722 -91 
Q 1428 -91 1123 -41 
Q 819 9 494 109 
L 494 744 
Q 775 591 1075 516 
Q 1375 441 1709 441 
Q 2250 441 2565 725 
Q 2881 1009 2881 1497 
Q 2881 1984 2565 2268 
Q 2250 2553 1709 2553 
Q 1456 2553 1204 2497 
Q 953 2441 691 2322 
L 691 4666 
z
" transform="scale(0.015625)"/>
       </defs>
       <use xlink:href="#DejaVuSans-35"/>
      </g>
     </g>
    </g>
    <g id="text_7">
     <!-- z mm -->
     <g transform="translate(202.446335 285.456082) scale(0.18 -0.18)">
      <defs>
       <path id="DejaVuSans-7a" d="M 353 3500 
L 3084 3500 
L 3084 2975 
L 922 459 
L 3084 459 
L 3084 0 
L 275 0 
L 275 525 
L 2438 3041 
L 353 3041 
L 353 3500 
z
" transform="scale(0.015625)"/>
       <path id="DejaVuSans-20" transform="scale(0.015625)"/>
       <path id="DejaVuSans-6d" d="M 3328 2828 
Q 3544 3216 3844 3400 
Q 4144 3584 4550 3584 
Q 5097 3584 5394 3201 
Q 5691 2819 5691 2113 
L 5691 0 
L 5113 0 
L 5113 2094 
Q 5113 2597 4934 2840 
Q 4756 3084 4391 3084 
Q 3944 3084 3684 2787 
Q 3425 2491 3425 1978 
L 3425 0 
L 2847 0 
L 2847 2094 
Q 2847 2600 2669 2842 
Q 2491 3084 2119 3084 
Q 1678 3084 1418 2786 
Q 1159 2488 1159 1978 
L 1159 0 
L 581 0 
L 581 3500 
L 1159 3500 
L 1159 2956 
Q 1356 3278 1631 3431 
Q 1906 3584 2284 3584 
Q 2666 3584 2933 3390 
Q 3200 3197 3328 2828 
z
" transform="scale(0.015625)"/>
      </defs>
      <use xlink:href="#DejaVuSans-7a"/>
      <use xlink:href="#DejaVuSans-20" x="52.490234"/>
      <use xlink:href="#DejaVuSans-6d" x="84.277344"/>
      <use xlink:href="#DejaVuSans-6d" x="181.689453"/>
     </g>
    </g>
   </g>
   <g id="matplotlib.axis_2">
    <g id="ytick_1">
     <g id="line2d_13">
      <path d="M 64.24625 243.35827 
L 390.880482 243.35827 
" clip-path="url(#pa6e735052e)" style="fill: none; stroke: #b0b0b0; stroke-width: 0.8; stroke-linecap: square"/>
     </g>
     <g id="line2d_14">
      <defs>
       <path id="mceeee35c3c" d="M 0 0 
L -3.5 0 
" style="stroke: #000000; stroke-width: 0.8"/>
      </defs>
      <g>
       <use xlink:href="#mceeee35c3c" x="64.24625" y="243.35827" style="stroke: #000000; stroke-width: 0.8"/>
      </g>
     </g>
     <g id="text_8">
      <!-- 0.0 -->
      <g transform="translate(28.620625 250.196864) scale(0.18 -0.18)">
       <defs>
        <path id="DejaVuSans-2e" d="M 684 794 
L 1344 794 
L 1344 0 
L 684 0 
L 684 794 
z
" transform="scale(0.015625)"/>
       </defs>
       <use xlink:href="#DejaVuSans-30"/>
       <use xlink:href="#DejaVuSans-2e" x="63.623047"/>
       <use xlink:href="#DejaVuSans-30" x="95.410156"/>
      </g>
     </g>
    </g>
    <g id="ytick_2">
     <g id="line2d_15">
      <path d="M 64.24625 189.922702 
L 390.880482 189.922702 
" clip-path="url(#pa6e735052e)" style="fill: none; stroke: #b0b0b0; stroke-width: 0.8; stroke-linecap: square"/>
     </g>
     <g id="line2d_16">
      <g>
       <use xlink:href="#mceeee35c3c" x="64.24625" y="189.922702" style="stroke: #000000; stroke-width: 0.8"/>
      </g>
     </g>
     <g id="text_9">
      <!-- 0.5 -->
      <g transform="translate(28.620625 196.761296) scale(0.18 -0.18)">
       <use xlink:href="#DejaVuSans-30"/>
       <use xlink:href="#DejaVuSans-2e" x="63.623047"/>
       <use xlink:href="#DejaVuSans-35" x="95.410156"/>
      </g>
     </g>
    </g>
    <g id="ytick_3">
     <g id="line2d_17">
      <path d="M 64.24625 136.487135 
L 390.880482 136.487135 
" clip-path="url(#pa6e735052e)" style="fill: none; stroke: #b0b0b0; stroke-width: 0.8; stroke-linecap: square"/>
     </g>
     <g id="line2d_18">
      <g>
       <use xlink:href="#mceeee35c3c" x="64.24625" y="136.487135" style="stroke: #000000; stroke-width: 0.8"/>
      </g>
     </g>
     <g id="text_10">
      <!-- 1.0 -->
      <g transform="translate(28.620625 143.325729) scale(0.18 -0.18)">
       <use xlink:href="#DejaVuSans-31"/>
       <use xlink:href="#DejaVuSans-2e" x="63.623047"/>
       <use xlink:href="#DejaVuSans-30" x="95.410156"/>
      </g>
     </g>
    </g>
    <g id="ytick_4">
     <g id="line2d_19">
      <path d="M 64.24625 83.051567 
L 390.880482 83.051567 
" clip-path="url(#pa6e735052e)" style="fill: none; stroke: #b0b0b0; stroke-width: 0.8; stroke-linecap: square"/>
     </g>
     <g id="line2d_20">
      <g>
       <use xlink:href="#mceeee35c3c" x="64.24625" y="83.051567" style="stroke: #000000; stroke-width: 0.8"/>
      </g>
     </g>
     <g id="text_11">
      <!-- 1.5 -->
      <g transform="translate(28.620625 89.890161) scale(0.18 -0.18)">
       <use xlink:href="#DejaVuSans-31"/>
       <use xlink:href="#DejaVuSans-2e" x="63.623047"/>
       <use xlink:href="#DejaVuSans-35" x="95.410156"/>
      </g>
     </g>
    </g>
    <g id="ytick_5">
     <g id="line2d_21">
      <path d="M 64.24625 29.616 
L 390.880482 29.616 
" clip-path="url(#pa6e735052e)" style="fill: none; stroke: #b0b0b0; stroke-width: 0.8; stroke-linecap: square"/>
     </g>
     <g id="line2d_22">
      <g>
       <use xlink:href="#mceeee35c3c" x="64.24625" y="29.616" style="stroke: #000000; stroke-width: 0.8"/>
      </g>
     </g>
     <g id="text_12">
      <!-- 2.0 -->
      <g transform="translate(28.620625 36.454594) scale(0.18 -0.18)">
       <use xlink:href="#DejaVuSans-32"/>
       <use xlink:href="#DejaVuSans-2e" x="63.623047"/>
       <use xlink:href="#DejaVuSans-30" x="95.410156"/>
      </g>
     </g>
    </g>
    <g id="text_13">
     <!-- $C_i$ -->
     <g transform="translate(20.877188 144.857135) rotate(-90) scale(0.18 -0.18)">
      <defs>
       <path id="DejaVuSans-Oblique-43" d="M 4447 4306 
L 4319 3641 
Q 4019 3944 3683 4091 
Q 3347 4238 2956 4238 
Q 2422 4238 2017 3981 
Q 1613 3725 1319 3200 
Q 1131 2863 1032 2486 
Q 934 2109 934 1728 
Q 934 1091 1264 756 
Q 1594 422 2222 422 
Q 2656 422 3056 561 
Q 3456 700 3834 978 
L 3688 231 
Q 3316 72 2936 -9 
Q 2556 -91 2175 -91 
Q 1278 -91 773 396 
Q 269 884 269 1753 
Q 269 2309 461 2846 
Q 653 3384 1013 3828 
Q 1394 4300 1883 4525 
Q 2372 4750 3022 4750 
Q 3422 4750 3780 4639 
Q 4138 4528 4447 4306 
z
" transform="scale(0.015625)"/>
       <path id="DejaVuSans-Oblique-69" d="M 1172 4863 
L 1747 4863 
L 1606 4134 
L 1031 4134 
L 1172 4863 
z
M 909 3500 
L 1484 3500 
L 800 0 
L 225 0 
L 909 3500 
z
" transform="scale(0.015625)"/>
      </defs>
      <use xlink:href="#DejaVuSans-Oblique-43" transform="translate(0 0.78125)"/>
      <use xlink:href="#DejaVuSans-Oblique-69" transform="translate(69.824219 -15.625) scale(0.7)"/>
     </g>
    </g>
   </g>
   <g id="line2d_23">
    <path d="M 79.093261 224.998835 
L 90.091046 229.525277 
L 101.088832 231.777062 
L 112.086617 233.265011 
L 123.084403 234.36825 
L 134.082188 235.238029 
L 145.079974 235.950031 
L 156.07776 236.547632 
L 167.075545 237.058047 
L 178.073331 237.499494 
L 189.071116 237.884769 
L 200.068902 238.223203 
L 211.066687 238.5218 
L 222.064473 238.785947 
L 233.062259 239.019862 
L 244.060044 239.2269 
L 255.05783 239.409761 
L 266.055615 239.570636 
L 277.053401 239.711315 
L 288.051186 239.833265 
L 299.048972 239.937687 
L 310.046758 240.025561 
L 321.044543 240.097676 
L 332.042329 240.15466 
L 343.040114 240.196993 
L 354.0379 240.225025 
L 365.035685 240.238985 
L 376.033471 240.238985 
" clip-path="url(#pa6e735052e)" style="fill: none; stroke: #000000; stroke-width: 3; stroke-linecap: square"/>
   </g>
   <g id="line2d_24">
    <path d="M 79.093261 59.763921 
L 90.091046 59.762131 
L 101.088832 59.761158 
L 112.086617 59.760498 
L 123.084403 59.760008 
L 134.082188 59.759627 
L 145.079974 59.759323 
L 156.07776 59.759074 
L 167.075545 59.75887 
L 178.073331 59.7587 
L 189.071116 59.758558 
L 200.068902 59.75844 
L 211.066687 59.758341 
L 222.064473 59.758259 
L 233.062259 59.758191 
L 244.060044 59.758135 
L 255.05783 59.758089 
L 266.055615 59.758053 
L 277.053401 59.758024 
L 288.051186 59.758002 
L 299.048972 59.757985 
L 310.046758 59.757973 
L 321.044543 59.757964 
L 332.042329 59.757959 
L 343.040114 59.757956 
L 354.0379 59.757955 
L 365.035685 59.757954 
L 376.033471 59.757954 
" clip-path="url(#pa6e735052e)" style="fill: none; stroke-dasharray: 3,4.95; stroke-dashoffset: 0; stroke: #000000; stroke-width: 3"/>
   </g>
   <g id="line2d_25">
    <path d="M 79.093261 243.35827 
L 90.091046 236.64114 
L 101.088832 233.299428 
L 112.086617 231.091223 
L 123.084403 229.453929 
L 134.082188 228.1631 
L 145.079974 227.106423 
L 156.07776 226.219528 
L 167.075545 225.462026 
L 178.073331 224.806881 
L 189.071116 224.235104 
L 200.068902 223.732846 
L 211.066687 223.28971 
L 222.064473 222.897704 
L 233.062259 222.550566 
L 244.060044 222.243318 
L 255.05783 221.971952 
L 266.055615 221.733216 
L 277.053401 221.524451 
L 288.051186 221.343483 
L 299.048972 221.188526 
L 310.046758 221.058129 
L 321.044543 220.951117 
L 332.042329 220.86656 
L 343.040114 220.803743 
L 354.0379 220.762147 
L 365.035685 220.741433 
L 376.033471 220.741433 
" clip-path="url(#pa6e735052e)" style="fill: none; stroke-dasharray: 11.1,4.8; stroke-dashoffset: 0; stroke: #000000; stroke-width: 3"/>
   </g>
   <g id="line2d_26">
    <path d="M 79.093261 224.998835 
L 90.091046 229.376413 
L 101.088832 231.562509 
L 112.086617 233.013322 
L 123.084403 234.093056 
L 134.082188 234.947022 
L 145.079974 235.648005 
L 156.07776 236.237774 
L 167.075545 236.742571 
L 178.073331 237.179985 
L 189.071116 237.562387 
L 200.068902 237.898809 
L 211.066687 238.196039 
L 222.064473 238.459302 
L 233.062259 238.692695 
L 244.060044 238.899478 
L 255.05783 239.082279 
L 266.055615 239.243231 
L 277.053401 239.384079 
L 288.051186 239.506253 
L 299.048972 239.610923 
L 310.046758 239.699048 
L 321.044543 239.771397 
L 332.042329 239.828584 
L 343.040114 239.871079 
L 354.0379 239.899223 
L 365.035685 239.91324 
L 376.033471 239.91324 
" clip-path="url(#pa6e735052e)" style="fill: none; stroke: #ff0000; stroke-width: 3; stroke-linecap: square"/>
   </g>
   <g id="line2d_27">
    <path d="M 79.093261 59.763921 
L 90.091046 59.762124 
L 101.088832 59.761177 
L 112.086617 59.76054 
L 123.084403 59.76007 
L 134.082188 59.759705 
L 145.079974 59.759413 
L 156.07776 59.759175 
L 167.075545 59.758979 
L 178.073331 59.758816 
L 189.071116 59.75868 
L 200.068902 59.758567 
L 211.066687 59.758473 
L 222.064473 59.758394 
L 233.062259 59.758329 
L 244.060044 59.758275 
L 255.05783 59.758232 
L 266.055615 59.758197 
L 277.053401 59.758169 
L 288.051186 59.758147 
L 299.048972 59.758131 
L 310.046758 59.75812 
L 321.044543 59.758112 
L 332.042329 59.758107 
L 343.040114 59.758104 
L 354.0379 59.758103 
L 365.035685 59.758102 
L 376.033471 59.758102 
" clip-path="url(#pa6e735052e)" style="fill: none; stroke-dasharray: 3,4.95; stroke-dashoffset: 0; stroke: #ff0000; stroke-width: 3"/>
   </g>
   <g id="line2d_28">
    <path d="M 79.093261 243.35827 
L 90.091046 236.861967 
L 101.088832 233.617728 
L 112.086617 231.464635 
L 123.084403 229.862228 
L 134.082188 228.59487 
L 145.079974 227.554549 
L 156.07776 226.67928 
L 167.075545 225.930119 
L 178.073331 225.280963 
L 189.071116 224.713451 
L 200.068902 224.214181 
L 211.066687 223.773077 
L 222.064473 223.382384 
L 233.062259 223.036023 
L 244.060044 222.729154 
L 255.05783 222.457877 
L 266.055615 222.219027 
L 277.053401 222.010013 
L 288.051186 221.828714 
L 299.048972 221.673389 
L 310.046758 221.54262 
L 321.044543 221.43526 
L 332.042329 221.350401 
L 343.040114 221.287345 
L 354.0379 221.245583 
L 365.035685 221.224784 
L 376.033471 221.224784 
" clip-path="url(#pa6e735052e)" style="fill: none; stroke-dasharray: 11.1,4.8; stroke-dashoffset: 0; stroke: #ff0000; stroke-width: 3"/>
   </g>
   <g id="line2d_29">
    <path d="M 79.093261 224.998835 
L 90.091046 229.56149 
L 101.088832 231.740677 
L 112.086617 233.168304 
L 123.084403 234.225053 
L 134.082188 235.058628 
L 145.079974 235.74192 
L 156.07776 236.316377 
L 167.075545 236.807882 
L 178.073331 237.23371 
L 189.071116 237.605972 
L 200.068902 237.93349 
L 211.066687 238.222885 
L 222.064473 238.479243 
L 233.062259 238.706548 
L 244.060044 238.90797 
L 255.05783 239.086059 
L 266.055615 239.242887 
L 277.053401 239.380146 
L 288.051186 239.499221 
L 299.048972 239.601251 
L 310.046758 239.687161 
L 321.044543 239.757698 
L 332.042329 239.813458 
L 343.040114 239.854894 
L 354.0379 239.882338 
L 365.035685 239.896007 
L 376.033471 239.896007 
" clip-path="url(#pa6e735052e)" style="fill: none; stroke: #008000; stroke-width: 3; stroke-linecap: square"/>
   </g>
   <g id="line2d_30">
    <path d="M 79.093261 59.763921 
L 90.091046 59.762022 
L 101.088832 59.76108 
L 112.086617 59.760458 
L 123.084403 59.760003 
L 134.082188 59.75965 
L 145.079974 59.759369 
L 156.07776 59.759141 
L 167.075545 59.758953 
L 178.073331 59.758797 
L 189.071116 59.758667 
L 200.068902 59.758559 
L 211.066687 59.758468 
L 222.064473 59.758393 
L 233.062259 59.758331 
L 244.060044 59.758279 
L 255.05783 59.758238 
L 266.055615 59.758204 
L 277.053401 59.758178 
L 288.051186 59.758157 
L 299.048972 59.758142 
L 310.046758 59.758131 
L 321.044543 59.758123 
L 332.042329 59.758118 
L 343.040114 59.758116 
L 354.0379 59.758115 
L 365.035685 59.758114 
L 376.033471 59.758114 
" clip-path="url(#pa6e735052e)" style="fill: none; stroke-dasharray: 3,4.95; stroke-dashoffset: 0; stroke: #008000; stroke-width: 3"/>
   </g>
   <g id="line2d_31">
    <path d="M 79.093261 243.35827 
L 90.091046 236.587331 
L 101.088832 233.353372 
L 112.086617 231.234705 
L 123.084403 229.666422 
L 134.082188 228.429335 
L 145.079974 227.415277 
L 156.07776 226.562739 
L 167.075545 225.833309 
L 178.073331 225.201351 
L 189.071116 224.648891 
L 200.068902 224.162837 
L 211.066687 223.733363 
L 222.064473 223.35292 
L 233.062259 223.015594 
L 244.060044 222.716683 
L 255.05783 222.4524 
L 266.055615 222.219671 
L 277.053401 222.015985 
L 288.051186 221.839282 
L 299.048972 221.687877 
L 310.046758 221.560395 
L 321.044543 221.455724 
L 332.042329 221.372984 
L 343.040114 221.311498 
L 354.0379 221.270775 
L 365.035685 221.250493 
L 376.033471 221.250493 
" clip-path="url(#pa6e735052e)" style="fill: none; stroke-dasharray: 11.1,4.8; stroke-dashoffset: 0; stroke: #008000; stroke-width: 3"/>
   </g>
   <g id="patch_3">
    <path d="M 64.24625 243.35827 
L 64.24625 29.616 
" style="fill: none; stroke: #000000; stroke-width: 0.8; stroke-linejoin: miter; stroke-linecap: square"/>
   </g>
   <g id="patch_4">
    <path d="M 390.880482 243.35827 
L 390.880482 29.616 
" style="fill: none; stroke: #000000; stroke-width: 0.8; stroke-linejoin: miter; stroke-linecap: square"/>
   </g>
   <g id="patch_5">
    <path d="M 64.24625 243.35827 
L 390.880482 243.35827 
" style="fill: none; stroke: #000000; stroke-width: 0.8; stroke-linejoin: miter; stroke-linecap: square"/>
   </g>
   <g id="patch_6">
    <path d="M 64.24625 29.616 
L 390.880482 29.616 
" style="fill: none; stroke: #000000; stroke-width: 0.8; stroke-linejoin: miter; stroke-linecap: square"/>
   </g>
   <g id="text_14">
    <!-- $\xi_0 = 0.30, \ \alpha=10$ -->
    <g transform="translate(135.871366 23.616) scale(0.216 -0.216)">
     <defs>
      <path id="DejaVuSans-Oblique-3be" d="M 2016 397 
Q 2428 394 2628 159 
Q 2844 -88 2772 -463 
Q 2700 -822 2422 -1072 
Q 2119 -1344 1609 -1344 
Q 1656 -1109 1700 -872 
Q 1913 -888 2072 -750 
Q 2194 -641 2216 -525 
Q 2247 -359 2175 -222 
Q 2100 -91 1922 -91 
Q -25 -91 241 1275 
Q 422 2213 1516 2488 
Q 663 2600 822 3413 
Q 941 4028 1678 4284 
L 1028 4284 
L 1141 4863 
L 3606 4863 
L 3494 4284 
Q 1528 4284 1350 3375 
Q 1234 2778 2881 2750 
L 2778 2219 
Q 1009 2288 819 1275 
Q 659 428 2016 397 
z
" transform="scale(0.015625)"/>
      <path id="DejaVuSans-3d" d="M 678 2906 
L 4684 2906 
L 4684 2381 
L 678 2381 
L 678 2906 
z
M 678 1631 
L 4684 1631 
L 4684 1100 
L 678 1100 
L 678 1631 
z
" transform="scale(0.015625)"/>
      <path id="DejaVuSans-2c" d="M 750 794 
L 1409 794 
L 1409 256 
L 897 -744 
L 494 -744 
L 750 256 
L 750 794 
z
" transform="scale(0.015625)"/>
      <path id="DejaVuSans-Oblique-3b1" d="M 2619 1628 
L 2622 2350 
Q 2625 3088 2069 3091 
Q 1653 3094 1394 2747 
Q 1069 2319 959 1747 
Q 825 1059 994 731 
Q 1169 397 1547 397 
Q 1966 397 2319 1063 
L 2619 1628 
z
M 2166 3578 
Q 3141 3594 3128 2584 
Q 3128 2584 3616 3500 
L 4128 3500 
L 3119 1603 
L 3109 919 
Q 3109 766 3194 638 
Q 3291 488 3391 488 
L 3669 488 
L 3575 0 
L 3228 0 
Q 2934 0 2722 263 
Q 2622 394 2619 669 
Q 2416 334 2066 50 
Q 1900 -81 1453 -78 
Q 722 -72 456 397 
Q 184 884 353 1747 
Q 534 2675 1009 3097 
Q 1544 3569 2166 3578 
z
" transform="scale(0.015625)"/>
     </defs>
     <use xlink:href="#DejaVuSans-Oblique-3be" transform="translate(0 0.015625)"/>
     <use xlink:href="#DejaVuSans-30" transform="translate(55.761719 -16.390625) scale(0.7)"/>
     <use xlink:href="#DejaVuSans-3d" transform="translate(122.514648 0.015625)"/>
     <use xlink:href="#DejaVuSans-30" transform="translate(225.786133 0.015625)"/>
     <use xlink:href="#DejaVuSans-2e" transform="translate(289.40918 0.015625)"/>
     <use xlink:href="#DejaVuSans-33" transform="translate(321.196289 0.015625)"/>
     <use xlink:href="#DejaVuSans-30" transform="translate(384.819336 0.015625)"/>
     <use xlink:href="#DejaVuSans-2c" transform="translate(448.442383 0.015625)"/>
     <use xlink:href="#DejaVuSans-Oblique-3b1" transform="translate(532.182292 0.015625)"/>
     <use xlink:href="#DejaVuSans-3d" transform="translate(617.582683 0.015625)"/>
     <use xlink:href="#DejaVuSans-31" transform="translate(720.854167 0.015625)"/>
     <use xlink:href="#DejaVuSans-30" transform="translate(784.477214 0.015625)"/>
    </g>
   </g>
   <g id="legend_1">
    <g id="patch_7">
     <path d="M 419.812193 281.801625 
L 573.914693 281.801625 
Q 577.514693 281.801625 577.514693 278.201625 
L 577.514693 42.216 
Q 577.514693 38.616 573.914693 38.616 
L 419.812193 38.616 
Q 416.212193 38.616 416.212193 42.216 
L 416.212193 278.201625 
Q 416.212193 281.801625 419.812193 281.801625 
z
" style="fill: #ffffff; opacity: 0.8; stroke: #cccccc; stroke-linejoin: miter"/>
    </g>
    <g id="line2d_32">
     <path d="M 423.412193 53.193187 
L 441.412193 53.193187 
L 459.412193 53.193187 
" style="fill: none; stroke: #000000; stroke-width: 3; stroke-linecap: square"/>
    </g>
    <g id="text_15">
     <!-- MTS dt 2 -->
     <g transform="translate(473.812193 59.493187) scale(0.18 -0.18)">
      <defs>
       <path id="DejaVuSans-4d" d="M 628 4666 
L 1569 4666 
L 2759 1491 
L 3956 4666 
L 4897 4666 
L 4897 0 
L 4281 0 
L 4281 4097 
L 3078 897 
L 2444 897 
L 1241 4097 
L 1241 0 
L 628 0 
L 628 4666 
z
" transform="scale(0.015625)"/>
       <path id="DejaVuSans-54" d="M -19 4666 
L 3928 4666 
L 3928 4134 
L 2272 4134 
L 2272 0 
L 1638 0 
L 1638 4134 
L -19 4134 
L -19 4666 
z
" transform="scale(0.015625)"/>
       <path id="DejaVuSans-53" d="M 3425 4513 
L 3425 3897 
Q 3066 4069 2747 4153 
Q 2428 4238 2131 4238 
Q 1616 4238 1336 4038 
Q 1056 3838 1056 3469 
Q 1056 3159 1242 3001 
Q 1428 2844 1947 2747 
L 2328 2669 
Q 3034 2534 3370 2195 
Q 3706 1856 3706 1288 
Q 3706 609 3251 259 
Q 2797 -91 1919 -91 
Q 1588 -91 1214 -16 
Q 841 59 441 206 
L 441 856 
Q 825 641 1194 531 
Q 1563 422 1919 422 
Q 2459 422 2753 634 
Q 3047 847 3047 1241 
Q 3047 1584 2836 1778 
Q 2625 1972 2144 2069 
L 1759 2144 
Q 1053 2284 737 2584 
Q 422 2884 422 3419 
Q 422 4038 858 4394 
Q 1294 4750 2059 4750 
Q 2388 4750 2728 4690 
Q 3069 4631 3425 4513 
z
" transform="scale(0.015625)"/>
       <path id="DejaVuSans-64" d="M 2906 2969 
L 2906 4863 
L 3481 4863 
L 3481 0 
L 2906 0 
L 2906 525 
Q 2725 213 2448 61 
Q 2172 -91 1784 -91 
Q 1150 -91 751 415 
Q 353 922 353 1747 
Q 353 2572 751 3078 
Q 1150 3584 1784 3584 
Q 2172 3584 2448 3432 
Q 2725 3281 2906 2969 
z
M 947 1747 
Q 947 1113 1208 752 
Q 1469 391 1925 391 
Q 2381 391 2643 752 
Q 2906 1113 2906 1747 
Q 2906 2381 2643 2742 
Q 2381 3103 1925 3103 
Q 1469 3103 1208 2742 
Q 947 2381 947 1747 
z
" transform="scale(0.015625)"/>
       <path id="DejaVuSans-74" d="M 1172 4494 
L 1172 3500 
L 2356 3500 
L 2356 3053 
L 1172 3053 
L 1172 1153 
Q 1172 725 1289 603 
Q 1406 481 1766 481 
L 2356 481 
L 2356 0 
L 1766 0 
Q 1100 0 847 248 
Q 594 497 594 1153 
L 594 3053 
L 172 3053 
L 172 3500 
L 594 3500 
L 594 4494 
L 1172 4494 
z
" transform="scale(0.015625)"/>
      </defs>
      <use xlink:href="#DejaVuSans-4d"/>
      <use xlink:href="#DejaVuSans-54" x="86.279297"/>
      <use xlink:href="#DejaVuSans-53" x="147.363281"/>
      <use xlink:href="#DejaVuSans-20" x="210.839844"/>
      <use xlink:href="#DejaVuSans-64" x="242.626953"/>
      <use xlink:href="#DejaVuSans-74" x="306.103516"/>
      <use xlink:href="#DejaVuSans-20" x="345.3125"/>
      <use xlink:href="#DejaVuSans-32" x="377.099609"/>
     </g>
    </g>
    <g id="line2d_33">
     <path d="M 423.412193 79.613812 
L 441.412193 79.613812 
L 459.412193 79.613812 
" style="fill: none; stroke-dasharray: 3,4.95; stroke-dashoffset: 0; stroke: #000000; stroke-width: 3"/>
    </g>
    <g id="text_16">
     <!-- H2 dt 2 -->
     <g transform="translate(473.812193 85.913812) scale(0.18 -0.18)">
      <defs>
       <path id="DejaVuSans-48" d="M 628 4666 
L 1259 4666 
L 1259 2753 
L 3553 2753 
L 3553 4666 
L 4184 4666 
L 4184 0 
L 3553 0 
L 3553 2222 
L 1259 2222 
L 1259 0 
L 628 0 
L 628 4666 
z
" transform="scale(0.015625)"/>
      </defs>
      <use xlink:href="#DejaVuSans-48"/>
      <use xlink:href="#DejaVuSans-32" x="75.195312"/>
      <use xlink:href="#DejaVuSans-20" x="138.818359"/>
      <use xlink:href="#DejaVuSans-64" x="170.605469"/>
      <use xlink:href="#DejaVuSans-74" x="234.082031"/>
      <use xlink:href="#DejaVuSans-20" x="273.291016"/>
      <use xlink:href="#DejaVuSans-32" x="305.078125"/>
     </g>
    </g>
    <g id="line2d_34">
     <path d="M 423.412193 106.034437 
L 441.412193 106.034437 
L 459.412193 106.034437 
" style="fill: none; stroke-dasharray: 11.1,4.8; stroke-dashoffset: 0; stroke: #000000; stroke-width: 3"/>
    </g>
    <g id="text_17">
     <!-- HCl dt 2 -->
     <g transform="translate(473.812193 112.334437) scale(0.18 -0.18)">
      <defs>
       <path id="DejaVuSans-43" d="M 4122 4306 
L 4122 3641 
Q 3803 3938 3442 4084 
Q 3081 4231 2675 4231 
Q 1875 4231 1450 3742 
Q 1025 3253 1025 2328 
Q 1025 1406 1450 917 
Q 1875 428 2675 428 
Q 3081 428 3442 575 
Q 3803 722 4122 1019 
L 4122 359 
Q 3791 134 3420 21 
Q 3050 -91 2638 -91 
Q 1578 -91 968 557 
Q 359 1206 359 2328 
Q 359 3453 968 4101 
Q 1578 4750 2638 4750 
Q 3056 4750 3426 4639 
Q 3797 4528 4122 4306 
z
" transform="scale(0.015625)"/>
       <path id="DejaVuSans-6c" d="M 603 4863 
L 1178 4863 
L 1178 0 
L 603 0 
L 603 4863 
z
" transform="scale(0.015625)"/>
      </defs>
      <use xlink:href="#DejaVuSans-48"/>
      <use xlink:href="#DejaVuSans-43" x="75.195312"/>
      <use xlink:href="#DejaVuSans-6c" x="145.019531"/>
      <use xlink:href="#DejaVuSans-20" x="172.802734"/>
      <use xlink:href="#DejaVuSans-64" x="204.589844"/>
      <use xlink:href="#DejaVuSans-74" x="268.066406"/>
      <use xlink:href="#DejaVuSans-20" x="307.275391"/>
      <use xlink:href="#DejaVuSans-32" x="339.0625"/>
     </g>
    </g>
    <g id="line2d_35">
     <path d="M 423.412193 132.455062 
L 441.412193 132.455062 
L 459.412193 132.455062 
" style="fill: none; stroke: #ff0000; stroke-width: 3; stroke-linecap: square"/>
    </g>
    <g id="text_18">
     <!-- MTS dt 1 -->
     <g transform="translate(473.812193 138.755062) scale(0.18 -0.18)">
      <use xlink:href="#DejaVuSans-4d"/>
      <use xlink:href="#DejaVuSans-54" x="86.279297"/>
      <use xlink:href="#DejaVuSans-53" x="147.363281"/>
      <use xlink:href="#DejaVuSans-20" x="210.839844"/>
      <use xlink:href="#DejaVuSans-64" x="242.626953"/>
      <use xlink:href="#DejaVuSans-74" x="306.103516"/>
      <use xlink:href="#DejaVuSans-20" x="345.3125"/>
      <use xlink:href="#DejaVuSans-31" x="377.099609"/>
     </g>
    </g>
    <g id="line2d_36">
     <path d="M 423.412193 158.875687 
L 441.412193 158.875687 
L 459.412193 158.875687 
" style="fill: none; stroke-dasharray: 3,4.95; stroke-dashoffset: 0; stroke: #ff0000; stroke-width: 3"/>
    </g>
    <g id="text_19">
     <!-- H2 dt 1 -->
     <g transform="translate(473.812193 165.175687) scale(0.18 -0.18)">
      <use xlink:href="#DejaVuSans-48"/>
      <use xlink:href="#DejaVuSans-32" x="75.195312"/>
      <use xlink:href="#DejaVuSans-20" x="138.818359"/>
      <use xlink:href="#DejaVuSans-64" x="170.605469"/>
      <use xlink:href="#DejaVuSans-74" x="234.082031"/>
      <use xlink:href="#DejaVuSans-20" x="273.291016"/>
      <use xlink:href="#DejaVuSans-31" x="305.078125"/>
     </g>
    </g>
    <g id="line2d_37">
     <path d="M 423.412193 185.296312 
L 441.412193 185.296312 
L 459.412193 185.296312 
" style="fill: none; stroke-dasharray: 11.1,4.8; stroke-dashoffset: 0; stroke: #ff0000; stroke-width: 3"/>
    </g>
    <g id="text_20">
     <!-- HCl dt 1 -->
     <g transform="translate(473.812193 191.596312) scale(0.18 -0.18)">
      <use xlink:href="#DejaVuSans-48"/>
      <use xlink:href="#DejaVuSans-43" x="75.195312"/>
      <use xlink:href="#DejaVuSans-6c" x="145.019531"/>
      <use xlink:href="#DejaVuSans-20" x="172.802734"/>
      <use xlink:href="#DejaVuSans-64" x="204.589844"/>
      <use xlink:href="#DejaVuSans-74" x="268.066406"/>
      <use xlink:href="#DejaVuSans-20" x="307.275391"/>
      <use xlink:href="#DejaVuSans-31" x="339.0625"/>
     </g>
    </g>
    <g id="line2d_38">
     <path d="M 423.412193 211.716937 
L 441.412193 211.716937 
L 459.412193 211.716937 
" style="fill: none; stroke: #008000; stroke-width: 3; stroke-linecap: square"/>
    </g>
    <g id="text_21">
     <!-- MTS dt 0.5 -->
     <g transform="translate(473.812193 218.016937) scale(0.18 -0.18)">
      <use xlink:href="#DejaVuSans-4d"/>
      <use xlink:href="#DejaVuSans-54" x="86.279297"/>
      <use xlink:href="#DejaVuSans-53" x="147.363281"/>
      <use xlink:href="#DejaVuSans-20" x="210.839844"/>
      <use xlink:href="#DejaVuSans-64" x="242.626953"/>
      <use xlink:href="#DejaVuSans-74" x="306.103516"/>
      <use xlink:href="#DejaVuSans-20" x="345.3125"/>
      <use xlink:href="#DejaVuSans-30" x="377.099609"/>
      <use xlink:href="#DejaVuSans-2e" x="440.722656"/>
      <use xlink:href="#DejaVuSans-35" x="472.509766"/>
     </g>
    </g>
    <g id="line2d_39">
     <path d="M 423.412193 238.137562 
L 441.412193 238.137562 
L 459.412193 238.137562 
" style="fill: none; stroke-dasharray: 3,4.95; stroke-dashoffset: 0; stroke: #008000; stroke-width: 3"/>
    </g>
    <g id="text_22">
     <!-- H2 dt 0.5 -->
     <g transform="translate(473.812193 244.437562) scale(0.18 -0.18)">
      <use xlink:href="#DejaVuSans-48"/>
      <use xlink:href="#DejaVuSans-32" x="75.195312"/>
      <use xlink:href="#DejaVuSans-20" x="138.818359"/>
      <use xlink:href="#DejaVuSans-64" x="170.605469"/>
      <use xlink:href="#DejaVuSans-74" x="234.082031"/>
      <use xlink:href="#DejaVuSans-20" x="273.291016"/>
      <use xlink:href="#DejaVuSans-30" x="305.078125"/>
      <use xlink:href="#DejaVuSans-2e" x="368.701172"/>
      <use xlink:href="#DejaVuSans-35" x="400.488281"/>
     </g>
    </g>
    <g id="line2d_40">
     <path d="M 423.412193 264.558187 
L 441.412193 264.558187 
L 459.412193 264.558187 
" style="fill: none; stroke-dasharray: 11.1,4.8; stroke-dashoffset: 0; stroke: #008000; stroke-width: 3"/>
    </g>
    <g id="text_23">
     <!-- HCl dt 0.5 -->
     <g transform="translate(473.812193 270.858187) scale(0.18 -0.18)">
      <use xlink:href="#DejaVuSans-48"/>
      <use xlink:href="#DejaVuSans-43" x="75.195312"/>
      <use xlink:href="#DejaVuSans-6c" x="145.019531"/>
      <use xlink:href="#DejaVuSans-20" x="172.802734"/>
      <use xlink:href="#DejaVuSans-64" x="204.589844"/>
      <use xlink:href="#DejaVuSans-74" x="268.066406"/>
      <use xlink:href="#DejaVuSans-20" x="307.275391"/>
      <use xlink:href="#DejaVuSans-30" x="339.0625"/>
      <use xlink:href="#DejaVuSans-2e" x="402.685547"/>
      <use xlink:href="#DejaVuSans-35" x="434.472656"/>
     </g>
    </g>
   </g>
  </g>
 </g>
 <defs>
  <clipPath id="pa6e735052e">
   <rect x="64.24625" y="29.616" width="326.634232" height="213.74227"/>
  </clipPath>
 </defs>
</svg>
