<?xml version="1.0" encoding="utf-8" standalone="no"?>
<!DOCTYPE svg PUBLIC "-//W3C//DTD SVG 1.1//EN"
  "http://www.w3.org/Graphics/SVG/1.1/DTD/svg11.dtd">
<svg xmlns:xlink="http://www.w3.org/1999/xlink" width="342.911433pt" height="289.001625pt" viewBox="0 0 342.911433 289.001625" xmlns="http://www.w3.org/2000/svg" version="1.1">
 <metadata>
  <rdf:RDF xmlns:dc="http://purl.org/dc/elements/1.1/" xmlns:cc="http://creativecommons.org/ns#" xmlns:rdf="http://www.w3.org/1999/02/22-rdf-syntax-ns#">
   <cc:Work>
    <dc:type rdf:resource="http://purl.org/dc/dcmitype/StillImage"/>
    <dc:date>2023-06-21T13:53:27.442985</dc:date>
    <dc:format>image/svg+xml</dc:format>
    <dc:creator>
     <cc:Agent>
      <dc:title>Matplotlib v3.6.2, https://matplotlib.org/</dc:title>
     </cc:Agent>
    </dc:creator>
   </cc:Work>
  </rdf:RDF>
 </metadata>
 <defs>
  <style type="text/css">*{stroke-linejoin: round; stroke-linecap: butt}</style>
 </defs>
 <g id="figure_1">
  <g id="patch_1">
   <path d="M 0 289.001625 
L 342.911433 289.001625 
L 342.911433 0 
L 0 0 
z
" style="fill: #ffffff"/>
  </g>
  <g id="axes_1">
   <g id="patch_2">
    <path d="M 47.073125 93.101895 
L 159.773895 93.101895 
L 159.773895 29.616 
L 47.073125 29.616 
z
" style="fill: #ffffff"/>
   </g>
   <g id="matplotlib.axis_1">
    <g id="xtick_1">
     <g id="line2d_1">
      <path d="M 52.195887 93.101895 
L 52.195887 29.616 
" clip-path="url(#p1b97fcb6f0)" style="fill: none; stroke: #b0b0b0; stroke-width: 0.8; stroke-linecap: square"/>
     </g>
     <g id="line2d_2">
      <defs>
       <path id="me422c6cfb8" d="M 0 0 
L 0 3.5 
" style="stroke: #000000; stroke-width: 0.8"/>
      </defs>
      <g>
       <use xlink:href="#me422c6cfb8" x="52.195887" y="93.101895" style="stroke: #000000; stroke-width: 0.8"/>
      </g>
     </g>
     <g id="text_1">
      <!-- 0 -->
      <g transform="translate(46.469637 113.779083) scale(0.18 -0.18)">
       <defs>
        <path id="DejaVuSans-30" d="M 2034 4250 
Q 1547 4250 1301 3770 
Q 1056 3291 1056 2328 
Q 1056 1369 1301 889 
Q 1547 409 2034 409 
Q 2525 409 2770 889 
Q 3016 1369 3016 2328 
Q 3016 3291 2770 3770 
Q 2525 4250 2034 4250 
z
M 2034 4750 
Q 2819 4750 3233 4129 
Q 3647 3509 3647 2328 
Q 3647 1150 3233 529 
Q 2819 -91 2034 -91 
Q 1250 -91 836 529 
Q 422 1150 422 2328 
Q 422 3509 836 4129 
Q 1250 4750 2034 4750 
z
" transform="scale(0.015625)"/>
       </defs>
       <use xlink:href="#DejaVuSans-30"/>
      </g>
     </g>
    </g>
    <g id="xtick_2">
     <g id="line2d_3">
      <path d="M 154.651133 93.101895 
L 154.651133 29.616 
" clip-path="url(#p1b97fcb6f0)" style="fill: none; stroke: #b0b0b0; stroke-width: 0.8; stroke-linecap: square"/>
     </g>
     <g id="line2d_4">
      <g>
       <use xlink:href="#me422c6cfb8" x="154.651133" y="93.101895" style="stroke: #000000; stroke-width: 0.8"/>
      </g>
     </g>
     <g id="text_2">
      <!-- 5 -->
      <g transform="translate(148.924883 113.779083) scale(0.18 -0.18)">
       <defs>
        <path id="DejaVuSans-35" d="M 691 4666 
L 3169 4666 
L 3169 4134 
L 1269 4134 
L 1269 2991 
Q 1406 3038 1543 3061 
Q 1681 3084 1819 3084 
Q 2600 3084 3056 2656 
Q 3513 2228 3513 1497 
Q 3513 744 3044 326 
Q 2575 -91 1722 -91 
Q 1428 -91 1123 -41 
Q 819 9 494 109 
L 494 744 
Q 775 591 1075 516 
Q 1375 441 1709 441 
Q 2250 441 2565 725 
Q 2881 1009 2881 1497 
Q 2881 1984 2565 2268 
Q 2250 2553 1709 2553 
Q 1456 2553 1204 2497 
Q 953 2441 691 2322 
L 691 4666 
z
" transform="scale(0.015625)"/>
       </defs>
       <use xlink:href="#DejaVuSans-35"/>
      </g>
     </g>
    </g>
    <g id="text_3">
     <!-- z mm -->
     <g transform="translate(78.306479 135.199708) scale(0.18 -0.18)">
      <defs>
       <path id="DejaVuSans-7a" d="M 353 3500 
L 3084 3500 
L 3084 2975 
L 922 459 
L 3084 459 
L 3084 0 
L 275 0 
L 275 525 
L 2438 3041 
L 353 3041 
L 353 3500 
z
" transform="scale(0.015625)"/>
       <path id="DejaVuSans-20" transform="scale(0.015625)"/>
       <path id="DejaVuSans-6d" d="M 3328 2828 
Q 3544 3216 3844 3400 
Q 4144 3584 4550 3584 
Q 5097 3584 5394 3201 
Q 5691 2819 5691 2113 
L 5691 0 
L 5113 0 
L 5113 2094 
Q 5113 2597 4934 2840 
Q 4756 3084 4391 3084 
Q 3944 3084 3684 2787 
Q 3425 2491 3425 1978 
L 3425 0 
L 2847 0 
L 2847 2094 
Q 2847 2600 2669 2842 
Q 2491 3084 2119 3084 
Q 1678 3084 1418 2786 
Q 1159 2488 1159 1978 
L 1159 0 
L 581 0 
L 581 3500 
L 1159 3500 
L 1159 2956 
Q 1356 3278 1631 3431 
Q 1906 3584 2284 3584 
Q 2666 3584 2933 3390 
Q 3200 3197 3328 2828 
z
" transform="scale(0.015625)"/>
      </defs>
      <use xlink:href="#DejaVuSans-7a"/>
      <use xlink:href="#DejaVuSans-20" x="52.490234"/>
      <use xlink:href="#DejaVuSans-6d" x="84.277344"/>
      <use xlink:href="#DejaVuSans-6d" x="181.689453"/>
     </g>
    </g>
   </g>
   <g id="matplotlib.axis_2">
    <g id="ytick_1">
     <g id="line2d_5">
      <path d="M 47.073125 93.101895 
L 159.773895 93.101895 
" clip-path="url(#p1b97fcb6f0)" style="fill: none; stroke: #b0b0b0; stroke-width: 0.8; stroke-linecap: square"/>
     </g>
     <g id="line2d_6">
      <defs>
       <path id="mbe43119d77" d="M 0 0 
L -3.5 0 
" style="stroke: #000000; stroke-width: 0.8"/>
      </defs>
      <g>
       <use xlink:href="#mbe43119d77" x="47.073125" y="93.101895" style="stroke: #000000; stroke-width: 0.8"/>
      </g>
     </g>
     <g id="text_4">
      <!-- 0 -->
      <g transform="translate(28.620625 99.940489) scale(0.18 -0.18)">
       <use xlink:href="#DejaVuSans-30"/>
      </g>
     </g>
    </g>
    <g id="ytick_2">
     <g id="line2d_7">
      <path d="M 47.073125 29.616 
L 159.773895 29.616 
" clip-path="url(#p1b97fcb6f0)" style="fill: none; stroke: #b0b0b0; stroke-width: 0.8; stroke-linecap: square"/>
     </g>
     <g id="line2d_8">
      <g>
       <use xlink:href="#mbe43119d77" x="47.073125" y="29.616" style="stroke: #000000; stroke-width: 0.8"/>
      </g>
     </g>
     <g id="text_5">
      <!-- 2 -->
      <g transform="translate(28.620625 36.454594) scale(0.18 -0.18)">
       <defs>
        <path id="DejaVuSans-32" d="M 1228 531 
L 3431 531 
L 3431 0 
L 469 0 
L 469 531 
Q 828 903 1448 1529 
Q 2069 2156 2228 2338 
Q 2531 2678 2651 2914 
Q 2772 3150 2772 3378 
Q 2772 3750 2511 3984 
Q 2250 4219 1831 4219 
Q 1534 4219 1204 4116 
Q 875 4013 500 3803 
L 500 4441 
Q 881 4594 1212 4672 
Q 1544 4750 1819 4750 
Q 2544 4750 2975 4387 
Q 3406 4025 3406 3419 
Q 3406 3131 3298 2873 
Q 3191 2616 2906 2266 
Q 2828 2175 2409 1742 
Q 1991 1309 1228 531 
z
" transform="scale(0.015625)"/>
       </defs>
       <use xlink:href="#DejaVuSans-32"/>
      </g>
     </g>
    </g>
    <g id="text_6">
     <!-- $C_i$ -->
     <g transform="translate(20.877187 69.728948) rotate(-90) scale(0.18 -0.18)">
      <defs>
       <path id="DejaVuSans-Oblique-43" d="M 4447 4306 
L 4319 3641 
Q 4019 3944 3683 4091 
Q 3347 4238 2956 4238 
Q 2422 4238 2017 3981 
Q 1613 3725 1319 3200 
Q 1131 2863 1032 2486 
Q 934 2109 934 1728 
Q 934 1091 1264 756 
Q 1594 422 2222 422 
Q 2656 422 3056 561 
Q 3456 700 3834 978 
L 3688 231 
Q 3316 72 2936 -9 
Q 2556 -91 2175 -91 
Q 1278 -91 773 396 
Q 269 884 269 1753 
Q 269 2309 461 2846 
Q 653 3384 1013 3828 
Q 1394 4300 1883 4525 
Q 2372 4750 3022 4750 
Q 3422 4750 3780 4639 
Q 4138 4528 4447 4306 
z
" transform="scale(0.015625)"/>
       <path id="DejaVuSans-Oblique-69" d="M 1172 4863 
L 1747 4863 
L 1606 4134 
L 1031 4134 
L 1172 4863 
z
M 909 3500 
L 1484 3500 
L 800 0 
L 225 0 
L 909 3500 
z
" transform="scale(0.015625)"/>
      </defs>
      <use xlink:href="#DejaVuSans-Oblique-43" transform="translate(0 0.78125)"/>
      <use xlink:href="#DejaVuSans-Oblique-69" transform="translate(69.824219 -15.625) scale(0.7)"/>
     </g>
    </g>
   </g>
   <g id="line2d_9">
    <path d="M 52.195887 87.648761 
L 55.990526 87.964542 
L 59.785165 87.766188 
L 63.579803 87.466904 
L 67.374442 87.139101 
L 71.169081 86.805524 
L 74.96372 86.475996 
L 78.758358 86.155568 
L 82.552997 85.847081 
L 86.347636 85.55219 
L 90.142274 85.271941 
L 93.936913 85.007071 
L 97.731552 84.758071 
L 101.526191 84.525272 
L 105.320829 84.308868 
L 109.115468 84.108982 
L 112.910107 83.925722 
L 116.704746 83.759159 
L 120.499384 83.609335 
L 124.294023 83.476272 
L 128.088662 83.359972 
L 131.8833 83.260423 
L 135.677939 83.177597 
L 139.472578 83.111454 
L 143.267217 83.06194 
L 147.061855 83.028993 
L 150.856494 83.012547 
L 154.651133 83.012547 
" clip-path="url(#p1b97fcb6f0)" style="fill: none; stroke: #000000; stroke-width: 3; stroke-linecap: square"/>
   </g>
   <g id="line2d_10">
    <path d="M 52.195887 38.570559 
L 55.990526 38.569434 
L 59.785165 38.568745 
L 63.579803 38.568221 
L 67.374442 38.567793 
L 71.169081 38.567435 
L 74.96372 38.56713 
L 78.758358 38.566868 
L 82.552997 38.566643 
L 86.347636 38.566448 
L 90.142274 38.56628 
L 93.936913 38.566136 
L 97.731552 38.566013 
L 101.526191 38.565908 
L 105.320829 38.565819 
L 109.115468 38.565745 
L 112.910107 38.565684 
L 116.704746 38.565634 
L 120.499384 38.565594 
L 124.294023 38.565562 
L 128.088662 38.565539 
L 131.8833 38.565522 
L 135.677939 38.56551 
L 139.472578 38.565502 
L 143.267217 38.565498 
L 147.061855 38.565496 
L 150.856494 38.565496 
L 154.651133 38.565496 
" clip-path="url(#p1b97fcb6f0)" style="fill: none; stroke-dasharray: 3,4.95; stroke-dashoffset: 0; stroke: #000000; stroke-width: 3"/>
   </g>
   <g id="line2d_11">
    <path d="M 52.195887 93.101895 
L 55.990526 92.632075 
L 59.785165 92.925425 
L 63.579803 93.368691 
L 67.374442 93.854386 
L 71.169081 94.348736 
L 74.96372 94.837153 
L 78.758358 95.312135 
L 82.552997 95.769456 
L 86.347636 96.206656 
L 90.142274 96.622178 
L 93.936913 97.014922 
L 97.731552 97.384158 
L 101.526191 97.729388 
L 105.320829 98.050324 
L 109.115468 98.346779 
L 112.910107 98.618589 
L 116.704746 98.865648 
L 120.499384 99.087889 
L 124.294023 99.285278 
L 128.088662 99.457808 
L 131.8833 99.605495 
L 135.677939 99.728378 
L 139.472578 99.826516 
L 143.267217 99.899983 
L 147.061855 99.948871 
L 150.856494 99.973275 
L 154.651133 99.973275 
" clip-path="url(#p1b97fcb6f0)" style="fill: none; stroke-dasharray: 11.1,4.8; stroke-dashoffset: 0; stroke: #000000; stroke-width: 3"/>
   </g>
   <g id="line2d_12">
    <path d="M 52.195887 87.648761 
L 55.990526 87.718494 
L 59.785165 87.310411 
L 63.579803 86.816231 
L 67.374442 86.307827 
L 71.169081 85.80772 
L 74.96372 85.324876 
L 78.758358 84.863277 
L 82.552997 84.424853 
L 86.347636 84.010491 
L 90.142274 83.620548 
L 93.936913 83.255081 
L 97.731552 82.913975 
L 101.526191 82.59703 
L 105.320829 82.304007 
L 109.115468 82.034654 
L 112.910107 81.788721 
L 116.704746 81.565967 
L 120.499384 81.36617 
L 124.294023 81.189123 
L 128.088662 81.034641 
L 131.8833 80.902559 
L 135.677939 80.792732 
L 139.472578 80.705036 
L 143.267217 80.639367 
L 147.061855 80.595644 
L 150.856494 80.573801 
L 154.651133 80.573801 
" clip-path="url(#p1b97fcb6f0)" style="fill: none; stroke: #ff0000; stroke-width: 3; stroke-linecap: square"/>
   </g>
   <g id="line2d_13">
    <path d="M 52.195887 38.570559 
L 55.990526 38.569184 
L 59.785165 38.568314 
L 63.579803 38.567651 
L 67.374442 38.567114 
L 71.169081 38.566666 
L 74.96372 38.566286 
L 78.758358 38.565963 
L 82.552997 38.565685 
L 86.347636 38.565446 
L 90.142274 38.565241 
L 93.936913 38.565065 
L 97.731552 38.564915 
L 101.526191 38.564788 
L 105.320829 38.56468 
L 109.115468 38.56459 
L 112.910107 38.564516 
L 116.704746 38.564456 
L 120.499384 38.564408 
L 124.294023 38.564371 
L 128.088662 38.564342 
L 131.8833 38.564321 
L 135.677939 38.564307 
L 139.472578 38.564298 
L 143.267217 38.564293 
L 147.061855 38.564291 
L 150.856494 38.56429 
L 154.651133 38.56429 
" clip-path="url(#p1b97fcb6f0)" style="fill: none; stroke-dasharray: 3,4.95; stroke-dashoffset: 0; stroke: #ff0000; stroke-width: 3"/>
   </g>
   <g id="line2d_14">
    <path d="M 52.195887 93.101895 
L 55.990526 92.996593 
L 59.785165 93.600666 
L 63.579803 94.332709 
L 67.374442 95.086022 
L 71.169081 95.827159 
L 74.96372 96.542793 
L 78.758358 97.227004 
L 82.552997 97.876916 
L 86.347636 98.491202 
L 90.142274 99.069328 
L 93.936913 99.6112 
L 97.731552 100.116984 
L 101.526191 100.58697 
L 105.320829 101.021508 
L 109.115468 101.420968 
L 112.910107 101.785716 
L 116.704746 102.116103 
L 120.499384 102.412458 
L 124.294023 102.675082 
L 128.088662 102.904246 
L 131.8833 103.100191 
L 135.677939 103.263129 
L 139.472578 103.393241 
L 143.267217 103.490676 
L 147.061855 103.555554 
L 150.856494 103.587966 
L 154.651133 103.587966 
" clip-path="url(#p1b97fcb6f0)" style="fill: none; stroke-dasharray: 11.1,4.8; stroke-dashoffset: 0; stroke: #ff0000; stroke-width: 3"/>
   </g>
   <g id="line2d_15">
    <path d="M 52.195887 87.648761 
L 55.990526 47.264965 
L 59.785165 12.777234 
L 61.557163 -1 
" clip-path="url(#p1b97fcb6f0)" style="fill: none; stroke: #008000; stroke-width: 3; stroke-linecap: square"/>
   </g>
   <g id="line2d_16">
    <path d="M 52.195887 38.570559 
L 55.990526 38.567541 
L 59.785165 38.591751 
L 63.579803 38.688782 
L 67.374442 38.715442 
L 71.169081 38.674727 
L 74.96372 38.660952 
L 78.758358 38.653499 
L 82.552997 38.648764 
L 86.347636 38.645495 
L 90.142274 38.643124 
L 93.936913 38.64135 
L 97.731552 38.639995 
L 101.526191 38.638946 
L 105.320829 38.638128 
L 109.115468 38.637489 
L 112.910107 38.636991 
L 116.704746 38.636605 
L 120.499384 38.636309 
L 124.294023 38.636087 
L 128.088662 38.635923 
L 131.8833 38.635807 
L 135.677939 38.635729 
L 139.472578 38.63568 
L 143.267217 38.635653 
L 147.061855 38.635641 
L 150.856494 38.635638 
L 154.651133 38.635638 
" clip-path="url(#p1b97fcb6f0)" style="fill: none; stroke-dasharray: 3,4.95; stroke-dashoffset: 0; stroke: #008000; stroke-width: 3"/>
   </g>
   <g id="line2d_17">
    <path d="M 52.195887 93.101895 
L 55.990526 153.481484 
L 59.785165 205.383494 
L 63.579803 250.904869 
L 67.08074 290.001625 
" clip-path="url(#p1b97fcb6f0)" style="fill: none; stroke-dasharray: 11.1,4.8; stroke-dashoffset: 0; stroke: #008000; stroke-width: 3"/>
   </g>
   <g id="patch_3">
    <path d="M 47.073125 93.101895 
L 47.073125 29.616 
" style="fill: none; stroke: #000000; stroke-width: 0.8; stroke-linejoin: miter; stroke-linecap: square"/>
   </g>
   <g id="patch_4">
    <path d="M 159.773895 93.101895 
L 159.773895 29.616 
" style="fill: none; stroke: #000000; stroke-width: 0.8; stroke-linejoin: miter; stroke-linecap: square"/>
   </g>
   <g id="patch_5">
    <path d="M 47.073125 93.101895 
L 159.773895 93.101895 
" style="fill: none; stroke: #000000; stroke-width: 0.8; stroke-linejoin: miter; stroke-linecap: square"/>
   </g>
   <g id="patch_6">
    <path d="M 47.073125 29.616 
L 159.773895 29.616 
" style="fill: none; stroke: #000000; stroke-width: 0.8; stroke-linejoin: miter; stroke-linecap: square"/>
   </g>
   <g id="text_7">
    <!-- $\xi_0 = 0.30, \ \alpha=10$ -->
    <g transform="translate(11.73151 23.616) scale(0.216 -0.216)">
     <defs>
      <path id="DejaVuSans-Oblique-3be" d="M 2016 397 
Q 2428 394 2628 159 
Q 2844 -88 2772 -463 
Q 2700 -822 2422 -1072 
Q 2119 -1344 1609 -1344 
Q 1656 -1109 1700 -872 
Q 1913 -888 2072 -750 
Q 2194 -641 2216 -525 
Q 2247 -359 2175 -222 
Q 2100 -91 1922 -91 
Q -25 -91 241 1275 
Q 422 2213 1516 2488 
Q 663 2600 822 3413 
Q 941 4028 1678 4284 
L 1028 4284 
L 1141 4863 
L 3606 4863 
L 3494 4284 
Q 1528 4284 1350 3375 
Q 1234 2778 2881 2750 
L 2778 2219 
Q 1009 2288 819 1275 
Q 659 428 2016 397 
z
" transform="scale(0.015625)"/>
      <path id="DejaVuSans-3d" d="M 678 2906 
L 4684 2906 
L 4684 2381 
L 678 2381 
L 678 2906 
z
M 678 1631 
L 4684 1631 
L 4684 1100 
L 678 1100 
L 678 1631 
z
" transform="scale(0.015625)"/>
      <path id="DejaVuSans-2e" d="M 684 794 
L 1344 794 
L 1344 0 
L 684 0 
L 684 794 
z
" transform="scale(0.015625)"/>
      <path id="DejaVuSans-33" d="M 2597 2516 
Q 3050 2419 3304 2112 
Q 3559 1806 3559 1356 
Q 3559 666 3084 287 
Q 2609 -91 1734 -91 
Q 1441 -91 1130 -33 
Q 819 25 488 141 
L 488 750 
Q 750 597 1062 519 
Q 1375 441 1716 441 
Q 2309 441 2620 675 
Q 2931 909 2931 1356 
Q 2931 1769 2642 2001 
Q 2353 2234 1838 2234 
L 1294 2234 
L 1294 2753 
L 1863 2753 
Q 2328 2753 2575 2939 
Q 2822 3125 2822 3475 
Q 2822 3834 2567 4026 
Q 2313 4219 1838 4219 
Q 1578 4219 1281 4162 
Q 984 4106 628 3988 
L 628 4550 
Q 988 4650 1302 4700 
Q 1616 4750 1894 4750 
Q 2613 4750 3031 4423 
Q 3450 4097 3450 3541 
Q 3450 3153 3228 2886 
Q 3006 2619 2597 2516 
z
" transform="scale(0.015625)"/>
      <path id="DejaVuSans-2c" d="M 750 794 
L 1409 794 
L 1409 256 
L 897 -744 
L 494 -744 
L 750 256 
L 750 794 
z
" transform="scale(0.015625)"/>
      <path id="DejaVuSans-Oblique-3b1" d="M 2619 1628 
L 2622 2350 
Q 2625 3088 2069 3091 
Q 1653 3094 1394 2747 
Q 1069 2319 959 1747 
Q 825 1059 994 731 
Q 1169 397 1547 397 
Q 1966 397 2319 1063 
L 2619 1628 
z
M 2166 3578 
Q 3141 3594 3128 2584 
Q 3128 2584 3616 3500 
L 4128 3500 
L 3119 1603 
L 3109 919 
Q 3109 766 3194 638 
Q 3291 488 3391 488 
L 3669 488 
L 3575 0 
L 3228 0 
Q 2934 0 2722 263 
Q 2622 394 2619 669 
Q 2416 334 2066 50 
Q 1900 -81 1453 -78 
Q 722 -72 456 397 
Q 184 884 353 1747 
Q 534 2675 1009 3097 
Q 1544 3569 2166 3578 
z
" transform="scale(0.015625)"/>
      <path id="DejaVuSans-31" d="M 794 531 
L 1825 531 
L 1825 4091 
L 703 3866 
L 703 4441 
L 1819 4666 
L 2450 4666 
L 2450 531 
L 3481 531 
L 3481 0 
L 794 0 
L 794 531 
z
" transform="scale(0.015625)"/>
     </defs>
     <use xlink:href="#DejaVuSans-Oblique-3be" transform="translate(0 0.015625)"/>
     <use xlink:href="#DejaVuSans-30" transform="translate(55.761719 -16.390625) scale(0.7)"/>
     <use xlink:href="#DejaVuSans-3d" transform="translate(122.514648 0.015625)"/>
     <use xlink:href="#DejaVuSans-30" transform="translate(225.786133 0.015625)"/>
     <use xlink:href="#DejaVuSans-2e" transform="translate(289.40918 0.015625)"/>
     <use xlink:href="#DejaVuSans-33" transform="translate(321.196289 0.015625)"/>
     <use xlink:href="#DejaVuSans-30" transform="translate(384.819336 0.015625)"/>
     <use xlink:href="#DejaVuSans-2c" transform="translate(448.442383 0.015625)"/>
     <use xlink:href="#DejaVuSans-Oblique-3b1" transform="translate(532.182292 0.015625)"/>
     <use xlink:href="#DejaVuSans-3d" transform="translate(617.582683 0.015625)"/>
     <use xlink:href="#DejaVuSans-31" transform="translate(720.854167 0.015625)"/>
     <use xlink:href="#DejaVuSans-30" transform="translate(784.477214 0.015625)"/>
    </g>
   </g>
   <g id="legend_1">
    <g id="patch_7">
     <path d="M 178.008933 281.801625 
L 332.111433 281.801625 
Q 335.711433 281.801625 335.711433 278.201625 
L 335.711433 42.216 
Q 335.711433 38.616 332.111433 38.616 
L 178.008933 38.616 
Q 174.408933 38.616 174.408933 42.216 
L 174.408933 278.201625 
Q 174.408933 281.801625 178.008933 281.801625 
z
" style="fill: #ffffff; opacity: 0.8; stroke: #cccccc; stroke-linejoin: miter"/>
    </g>
    <g id="line2d_18">
     <path d="M 181.608933 53.193188 
L 199.608933 53.193188 
L 217.608933 53.193188 
" style="fill: none; stroke: #000000; stroke-width: 3; stroke-linecap: square"/>
    </g>
    <g id="text_8">
     <!-- MTS dt 2 -->
     <g transform="translate(232.008933 59.493188) scale(0.18 -0.18)">
      <defs>
       <path id="DejaVuSans-4d" d="M 628 4666 
L 1569 4666 
L 2759 1491 
L 3956 4666 
L 4897 4666 
L 4897 0 
L 4281 0 
L 4281 4097 
L 3078 897 
L 2444 897 
L 1241 4097 
L 1241 0 
L 628 0 
L 628 4666 
z
" transform="scale(0.015625)"/>
       <path id="DejaVuSans-54" d="M -19 4666 
L 3928 4666 
L 3928 4134 
L 2272 4134 
L 2272 0 
L 1638 0 
L 1638 4134 
L -19 4134 
L -19 4666 
z
" transform="scale(0.015625)"/>
       <path id="DejaVuSans-53" d="M 3425 4513 
L 3425 3897 
Q 3066 4069 2747 4153 
Q 2428 4238 2131 4238 
Q 1616 4238 1336 4038 
Q 1056 3838 1056 3469 
Q 1056 3159 1242 3001 
Q 1428 2844 1947 2747 
L 2328 2669 
Q 3034 2534 3370 2195 
Q 3706 1856 3706 1288 
Q 3706 609 3251 259 
Q 2797 -91 1919 -91 
Q 1588 -91 1214 -16 
Q 841 59 441 206 
L 441 856 
Q 825 641 1194 531 
Q 1563 422 1919 422 
Q 2459 422 2753 634 
Q 3047 847 3047 1241 
Q 3047 1584 2836 1778 
Q 2625 1972 2144 2069 
L 1759 2144 
Q 1053 2284 737 2584 
Q 422 2884 422 3419 
Q 422 4038 858 4394 
Q 1294 4750 2059 4750 
Q 2388 4750 2728 4690 
Q 3069 4631 3425 4513 
z
" transform="scale(0.015625)"/>
       <path id="DejaVuSans-64" d="M 2906 2969 
L 2906 4863 
L 3481 4863 
L 3481 0 
L 2906 0 
L 2906 525 
Q 2725 213 2448 61 
Q 2172 -91 1784 -91 
Q 1150 -91 751 415 
Q 353 922 353 1747 
Q 353 2572 751 3078 
Q 1150 3584 1784 3584 
Q 2172 3584 2448 3432 
Q 2725 3281 2906 2969 
z
M 947 1747 
Q 947 1113 1208 752 
Q 1469 391 1925 391 
Q 2381 391 2643 752 
Q 2906 1113 2906 1747 
Q 2906 2381 2643 2742 
Q 2381 3103 1925 3103 
Q 1469 3103 1208 2742 
Q 947 2381 947 1747 
z
" transform="scale(0.015625)"/>
       <path id="DejaVuSans-74" d="M 1172 4494 
L 1172 3500 
L 2356 3500 
L 2356 3053 
L 1172 3053 
L 1172 1153 
Q 1172 725 1289 603 
Q 1406 481 1766 481 
L 2356 481 
L 2356 0 
L 1766 0 
Q 1100 0 847 248 
Q 594 497 594 1153 
L 594 3053 
L 172 3053 
L 172 3500 
L 594 3500 
L 594 4494 
L 1172 4494 
z
" transform="scale(0.015625)"/>
      </defs>
      <use xlink:href="#DejaVuSans-4d"/>
      <use xlink:href="#DejaVuSans-54" x="86.279297"/>
      <use xlink:href="#DejaVuSans-53" x="147.363281"/>
      <use xlink:href="#DejaVuSans-20" x="210.839844"/>
      <use xlink:href="#DejaVuSans-64" x="242.626953"/>
      <use xlink:href="#DejaVuSans-74" x="306.103516"/>
      <use xlink:href="#DejaVuSans-20" x="345.3125"/>
      <use xlink:href="#DejaVuSans-32" x="377.099609"/>
     </g>
    </g>
    <g id="line2d_19">
     <path d="M 181.608933 79.613813 
L 199.608933 79.613813 
L 217.608933 79.613813 
" style="fill: none; stroke-dasharray: 3,4.95; stroke-dashoffset: 0; stroke: #000000; stroke-width: 3"/>
    </g>
    <g id="text_9">
     <!-- H2 dt 2 -->
     <g transform="translate(232.008933 85.913813) scale(0.18 -0.18)">
      <defs>
       <path id="DejaVuSans-48" d="M 628 4666 
L 1259 4666 
L 1259 2753 
L 3553 2753 
L 3553 4666 
L 4184 4666 
L 4184 0 
L 3553 0 
L 3553 2222 
L 1259 2222 
L 1259 0 
L 628 0 
L 628 4666 
z
" transform="scale(0.015625)"/>
      </defs>
      <use xlink:href="#DejaVuSans-48"/>
      <use xlink:href="#DejaVuSans-32" x="75.195312"/>
      <use xlink:href="#DejaVuSans-20" x="138.818359"/>
      <use xlink:href="#DejaVuSans-64" x="170.605469"/>
      <use xlink:href="#DejaVuSans-74" x="234.082031"/>
      <use xlink:href="#DejaVuSans-20" x="273.291016"/>
      <use xlink:href="#DejaVuSans-32" x="305.078125"/>
     </g>
    </g>
    <g id="line2d_20">
     <path d="M 181.608933 106.034438 
L 199.608933 106.034438 
L 217.608933 106.034438 
" style="fill: none; stroke-dasharray: 11.1,4.8; stroke-dashoffset: 0; stroke: #000000; stroke-width: 3"/>
    </g>
    <g id="text_10">
     <!-- HCl dt 2 -->
     <g transform="translate(232.008933 112.334438) scale(0.18 -0.18)">
      <defs>
       <path id="DejaVuSans-43" d="M 4122 4306 
L 4122 3641 
Q 3803 3938 3442 4084 
Q 3081 4231 2675 4231 
Q 1875 4231 1450 3742 
Q 1025 3253 1025 2328 
Q 1025 1406 1450 917 
Q 1875 428 2675 428 
Q 3081 428 3442 575 
Q 3803 722 4122 1019 
L 4122 359 
Q 3791 134 3420 21 
Q 3050 -91 2638 -91 
Q 1578 -91 968 557 
Q 359 1206 359 2328 
Q 359 3453 968 4101 
Q 1578 4750 2638 4750 
Q 3056 4750 3426 4639 
Q 3797 4528 4122 4306 
z
" transform="scale(0.015625)"/>
       <path id="DejaVuSans-6c" d="M 603 4863 
L 1178 4863 
L 1178 0 
L 603 0 
L 603 4863 
z
" transform="scale(0.015625)"/>
      </defs>
      <use xlink:href="#DejaVuSans-48"/>
      <use xlink:href="#DejaVuSans-43" x="75.195312"/>
      <use xlink:href="#DejaVuSans-6c" x="145.019531"/>
      <use xlink:href="#DejaVuSans-20" x="172.802734"/>
      <use xlink:href="#DejaVuSans-64" x="204.589844"/>
      <use xlink:href="#DejaVuSans-74" x="268.066406"/>
      <use xlink:href="#DejaVuSans-20" x="307.275391"/>
      <use xlink:href="#DejaVuSans-32" x="339.0625"/>
     </g>
    </g>
    <g id="line2d_21">
     <path d="M 181.608933 132.455062 
L 199.608933 132.455062 
L 217.608933 132.455062 
" style="fill: none; stroke: #ff0000; stroke-width: 3; stroke-linecap: square"/>
    </g>
    <g id="text_11">
     <!-- MTS dt 1 -->
     <g transform="translate(232.008933 138.755063) scale(0.18 -0.18)">
      <use xlink:href="#DejaVuSans-4d"/>
      <use xlink:href="#DejaVuSans-54" x="86.279297"/>
      <use xlink:href="#DejaVuSans-53" x="147.363281"/>
      <use xlink:href="#DejaVuSans-20" x="210.839844"/>
      <use xlink:href="#DejaVuSans-64" x="242.626953"/>
      <use xlink:href="#DejaVuSans-74" x="306.103516"/>
      <use xlink:href="#DejaVuSans-20" x="345.3125"/>
      <use xlink:href="#DejaVuSans-31" x="377.099609"/>
     </g>
    </g>
    <g id="line2d_22">
     <path d="M 181.608933 158.875688 
L 199.608933 158.875688 
L 217.608933 158.875688 
" style="fill: none; stroke-dasharray: 3,4.95; stroke-dashoffset: 0; stroke: #ff0000; stroke-width: 3"/>
    </g>
    <g id="text_12">
     <!-- H2 dt 1 -->
     <g transform="translate(232.008933 165.175688) scale(0.18 -0.18)">
      <use xlink:href="#DejaVuSans-48"/>
      <use xlink:href="#DejaVuSans-32" x="75.195312"/>
      <use xlink:href="#DejaVuSans-20" x="138.818359"/>
      <use xlink:href="#DejaVuSans-64" x="170.605469"/>
      <use xlink:href="#DejaVuSans-74" x="234.082031"/>
      <use xlink:href="#DejaVuSans-20" x="273.291016"/>
      <use xlink:href="#DejaVuSans-31" x="305.078125"/>
     </g>
    </g>
    <g id="line2d_23">
     <path d="M 181.608933 185.296312 
L 199.608933 185.296312 
L 217.608933 185.296312 
" style="fill: none; stroke-dasharray: 11.1,4.8; stroke-dashoffset: 0; stroke: #ff0000; stroke-width: 3"/>
    </g>
    <g id="text_13">
     <!-- HCl dt 1 -->
     <g transform="translate(232.008933 191.596313) scale(0.18 -0.18)">
      <use xlink:href="#DejaVuSans-48"/>
      <use xlink:href="#DejaVuSans-43" x="75.195312"/>
      <use xlink:href="#DejaVuSans-6c" x="145.019531"/>
      <use xlink:href="#DejaVuSans-20" x="172.802734"/>
      <use xlink:href="#DejaVuSans-64" x="204.589844"/>
      <use xlink:href="#DejaVuSans-74" x="268.066406"/>
      <use xlink:href="#DejaVuSans-20" x="307.275391"/>
      <use xlink:href="#DejaVuSans-31" x="339.0625"/>
     </g>
    </g>
    <g id="line2d_24">
     <path d="M 181.608933 211.716938 
L 199.608933 211.716938 
L 217.608933 211.716938 
" style="fill: none; stroke: #008000; stroke-width: 3; stroke-linecap: square"/>
    </g>
    <g id="text_14">
     <!-- MTS dt 0.5 -->
     <g transform="translate(232.008933 218.016938) scale(0.18 -0.18)">
      <use xlink:href="#DejaVuSans-4d"/>
      <use xlink:href="#DejaVuSans-54" x="86.279297"/>
      <use xlink:href="#DejaVuSans-53" x="147.363281"/>
      <use xlink:href="#DejaVuSans-20" x="210.839844"/>
      <use xlink:href="#DejaVuSans-64" x="242.626953"/>
      <use xlink:href="#DejaVuSans-74" x="306.103516"/>
      <use xlink:href="#DejaVuSans-20" x="345.3125"/>
      <use xlink:href="#DejaVuSans-30" x="377.099609"/>
      <use xlink:href="#DejaVuSans-2e" x="440.722656"/>
      <use xlink:href="#DejaVuSans-35" x="472.509766"/>
     </g>
    </g>
    <g id="line2d_25">
     <path d="M 181.608933 238.137563 
L 199.608933 238.137563 
L 217.608933 238.137563 
" style="fill: none; stroke-dasharray: 3,4.95; stroke-dashoffset: 0; stroke: #008000; stroke-width: 3"/>
    </g>
    <g id="text_15">
     <!-- H2 dt 0.5 -->
     <g transform="translate(232.008933 244.437563) scale(0.18 -0.18)">
      <use xlink:href="#DejaVuSans-48"/>
      <use xlink:href="#DejaVuSans-32" x="75.195312"/>
      <use xlink:href="#DejaVuSans-20" x="138.818359"/>
      <use xlink:href="#DejaVuSans-64" x="170.605469"/>
      <use xlink:href="#DejaVuSans-74" x="234.082031"/>
      <use xlink:href="#DejaVuSans-20" x="273.291016"/>
      <use xlink:href="#DejaVuSans-30" x="305.078125"/>
      <use xlink:href="#DejaVuSans-2e" x="368.701172"/>
      <use xlink:href="#DejaVuSans-35" x="400.488281"/>
     </g>
    </g>
    <g id="line2d_26">
     <path d="M 181.608933 264.558187 
L 199.608933 264.558187 
L 217.608933 264.558187 
" style="fill: none; stroke-dasharray: 11.1,4.8; stroke-dashoffset: 0; stroke: #008000; stroke-width: 3"/>
    </g>
    <g id="text_16">
     <!-- HCl dt 0.5 -->
     <g transform="translate(232.008933 270.858187) scale(0.18 -0.18)">
      <use xlink:href="#DejaVuSans-48"/>
      <use xlink:href="#DejaVuSans-43" x="75.195312"/>
      <use xlink:href="#DejaVuSans-6c" x="145.019531"/>
      <use xlink:href="#DejaVuSans-20" x="172.802734"/>
      <use xlink:href="#DejaVuSans-64" x="204.589844"/>
      <use xlink:href="#DejaVuSans-74" x="268.066406"/>
      <use xlink:href="#DejaVuSans-20" x="307.275391"/>
      <use xlink:href="#DejaVuSans-30" x="339.0625"/>
      <use xlink:href="#DejaVuSans-2e" x="402.685547"/>
      <use xlink:href="#DejaVuSans-35" x="434.472656"/>
     </g>
    </g>
   </g>
  </g>
 </g>
 <defs>
  <clipPath id="p1b97fcb6f0">
   <rect x="47.073125" y="29.616" width="112.70077" height="63.485895"/>
  </clipPath>
 </defs>
</svg>
