<?xml version="1.0" encoding="UTF-8" standalone="no"?>
<svg
   width="382.79952pt"
   height="202.79952pt"
   viewBox="0 0 382.79952 202.79952"
   version="1.1"
   id="svg904"
   sodipodi:docname="dt_loglog.svg"
   inkscape:version="1.2.2 (b0a84865, 2022-12-01)"
   inkscape:export-filename="dt_loglog.svg"
   inkscape:export-xdpi="96"
   inkscape:export-ydpi="96"
   xmlns:inkscape="http://www.inkscape.org/namespaces/inkscape"
   xmlns:sodipodi="http://sodipodi.sourceforge.net/DTD/sodipodi-0.dtd"
   xmlns:xlink="http://www.w3.org/1999/xlink"
   xmlns="http://www.w3.org/2000/svg"
   xmlns:svg="http://www.w3.org/2000/svg"
   xmlns:rdf="http://www.w3.org/1999/02/22-rdf-syntax-ns#"
   xmlns:cc="http://creativecommons.org/ns#"
   xmlns:dc="http://purl.org/dc/elements/1.1/">
  <sodipodi:namedview
     id="namedview906"
     pagecolor="#ffffff"
     bordercolor="#000000"
     borderopacity="0.25"
     inkscape:showpageshadow="2"
     inkscape:pageopacity="0.0"
     inkscape:pagecheckerboard="0"
     inkscape:deskcolor="#d1d1d1"
     inkscape:document-units="pt"
     showgrid="false"
     inkscape:zoom="2.4412256"
     inkscape:cx="236.76632"
     inkscape:cy="135.178"
     inkscape:window-width="1691"
     inkscape:window-height="948"
     inkscape:window-x="286"
     inkscape:window-y="25"
     inkscape:window-maximized="0"
     inkscape:current-layer="svg904" />
  <metadata
     id="metadata622">
    <rdf:RDF>
      <cc:Work>
        <dc:type
           rdf:resource="http://purl.org/dc/dcmitype/StillImage" />
        <dc:date>2023-07-28T08:48:53.607804</dc:date>
        <dc:format>image/svg+xml</dc:format>
        <dc:creator>
          <cc:Agent>
            <dc:title>Matplotlib v3.7.2, https://matplotlib.org/</dc:title>
          </cc:Agent>
        </dc:creator>
      </cc:Work>
    </rdf:RDF>
  </metadata>
  <defs
     id="defs626">
    <style
       type="text/css"
       id="style624">*{stroke-linejoin: round; stroke-linecap: butt}</style>
  </defs>
  <g
     id="figure_1">
    <g
       id="patch_1">
      <path
         d="M 0 202.79952  L 382.79952 202.79952  L 382.79952 0  L 0 0  z "
         style="fill: #ffffff"
         id="path628" />
    </g>
    <g
       id="axes_1">
      <g
         id="patch_2">
        <path
           d="M 73.58 163.307645  L 375.59952 163.307645  L 375.59952 7.2  L 73.58 7.2  z "
           style="fill: #ffffff"
           id="path631" />
      </g>
      <g
         id="PathCollection_1">
        <defs
           id="defs635">
          <path
             id="m82298345fb"
             d="M 0 3  C 0.795609 3 1.55874 2.683901 2.12132 2.12132  C 2.683901 1.55874 3 0.795609 3 0  C 3 -0.795609 2.683901 -1.55874 2.12132 -2.12132  C 1.55874 -2.683901 0.795609 -3 0 -3  C -0.795609 -3 -1.55874 -2.683901 -2.12132 -2.12132  C -2.683901 -1.55874 -3 -0.795609 -3 0  C -3 0.795609 -2.683901 1.55874 -2.12132 2.12132  C -1.55874 2.683901 -0.795609 3 0 3  z "
             style="stroke: #ff0000" />
        </defs>
        <g
           clip-path="url(#p3eb75c7d0f)"
           id="g649">
          <use
             xlink:href="#m82298345fb"
             x="140.200846"
             y="135.555795"
             style="fill: #ff0000; stroke: #ff0000"
             id="use637" />
          <use
             xlink:href="#m82298345fb"
             x="194.63404"
             y="104.2417"
             style="fill: #ff0000; stroke: #ff0000"
             id="use639" />
          <use
             xlink:href="#m82298345fb"
             x="240.65665"
             y="76.259647"
             style="fill: #ff0000; stroke: #ff0000"
             id="use641" />
          <use
             xlink:href="#m82298345fb"
             x="280.523248"
             y="52.433383"
             style="fill: #ff0000; stroke: #ff0000"
             id="use643" />
          <use
             xlink:href="#m82298345fb"
             x="315.68808"
             y="39.071156"
             style="fill: #ff0000; stroke: #ff0000"
             id="use645" />
          <use
             xlink:href="#m82298345fb"
             x="347.144094"
             y="27.327495"
             style="fill: #ff0000; stroke: #ff0000"
             id="use647" />
        </g>
      </g>
      <g
         id="matplotlib.axis_1">
        <g
           id="xtick_1">
          <g
             id="line2d_1">
            <path
               d="M 347.144094 163.307645  L 347.144094 7.2  "
               clip-path="url(#p3eb75c7d0f)"
               style="fill: none; stroke: #b0b0b0; stroke-width: 0.8; stroke-linecap: square"
               id="path652" />
          </g>
          <g
             id="line2d_2">
            <defs
               id="defs656">
              <path
                 id="m4650477681"
                 d="M 0 0  L 0 3.5  "
                 style="stroke: #000000; stroke-width: 0.8" />
            </defs>
            <g
               id="g660">
              <use
                 xlink:href="#m4650477681"
                 x="347.144094"
                 y="163.307645"
                 style="stroke: #000000; stroke-width: 0.8"
                 id="use658" />
            </g>
          </g>
          <g
             id="text_1">
            <!-- $\mathdefault{10^{-1}}$ -->
            <g
               transform="translate(334.219094 178.665926) scale(0.11 -0.11)"
               id="g676">
              <defs
                 id="defs666">
                <path
                   id="DejaVuSans-31"
                   d="M 794 531  L 1825 531  L 1825 4091  L 703 3866  L 703 4441  L 1819 4666  L 2450 4666  L 2450 531  L 3481 531  L 3481 0  L 794 0  L 794 531  z "
                   transform="scale(0.015625)" />
                <path
                   id="DejaVuSans-30"
                   d="M 2034 4250  Q 1547 4250 1301 3770  Q 1056 3291 1056 2328  Q 1056 1369 1301 889  Q 1547 409 2034 409  Q 2525 409 2770 889  Q 3016 1369 3016 2328  Q 3016 3291 2770 3770  Q 2525 4250 2034 4250  z M 2034 4750  Q 2819 4750 3233 4129  Q 3647 3509 3647 2328  Q 3647 1150 3233 529  Q 2819 -91 2034 -91  Q 1250 -91 836 529  Q 422 1150 422 2328  Q 422 3509 836 4129  Q 1250 4750 2034 4750  z "
                   transform="scale(0.015625)" />
                <path
                   id="DejaVuSans-2212"
                   d="M 678 2272  L 4684 2272  L 4684 1741  L 678 1741  L 678 2272  z "
                   transform="scale(0.015625)" />
              </defs>
              <use
                 xlink:href="#DejaVuSans-31"
                 transform="translate(0 0.684375)"
                 id="use668" />
              <use
                 xlink:href="#DejaVuSans-30"
                 transform="translate(63.623047 0.684375)"
                 id="use670" />
              <use
                 xlink:href="#DejaVuSans-2212"
                 transform="translate(128.203125 38.965625) scale(0.7)"
                 id="use672" />
              <use
                 xlink:href="#DejaVuSans-31"
                 transform="translate(186.855469 38.965625) scale(0.7)"
                 id="use674" />
            </g>
          </g>
        </g>
        <g
           id="xtick_2">
          <g
             id="line2d_3">
            <defs
               id="defs681">
              <path
                 id="m3a318a4667"
                 d="M 0 0  L 0 2  "
                 style="stroke: #000000; stroke-width: 0.6" />
            </defs>
            <g
               id="g685">
              <use
                 xlink:href="#m3a318a4667"
                 x="73.58"
                 y="163.307645"
                 style="stroke: #000000; stroke-width: 0.6"
                 id="use683" />
            </g>
          </g>
          <g
             id="text_2">
            <!-- $\mathdefault{4\times10^{-2}}$ -->
            <g
               transform="translate(50.425 177.065926) scale(0.11 -0.11)"
               id="g705">
              <defs
                 id="defs691">
                <path
                   id="DejaVuSans-34"
                   d="M 2419 4116  L 825 1625  L 2419 1625  L 2419 4116  z M 2253 4666  L 3047 4666  L 3047 1625  L 3713 1625  L 3713 1100  L 3047 1100  L 3047 0  L 2419 0  L 2419 1100  L 313 1100  L 313 1709  L 2253 4666  z "
                   transform="scale(0.015625)" />
                <path
                   id="DejaVuSans-d7"
                   d="M 4488 3438  L 3059 2003  L 4488 575  L 4116 197  L 2681 1631  L 1247 197  L 878 575  L 2303 2003  L 878 3438  L 1247 3816  L 2681 2381  L 4116 3816  L 4488 3438  z "
                   transform="scale(0.015625)" />
                <path
                   id="DejaVuSans-32"
                   d="M 1228 531  L 3431 531  L 3431 0  L 469 0  L 469 531  Q 828 903 1448 1529  Q 2069 2156 2228 2338  Q 2531 2678 2651 2914  Q 2772 3150 2772 3378  Q 2772 3750 2511 3984  Q 2250 4219 1831 4219  Q 1534 4219 1204 4116  Q 875 4013 500 3803  L 500 4441  Q 881 4594 1212 4672  Q 1544 4750 1819 4750  Q 2544 4750 2975 4387  Q 3406 4025 3406 3419  Q 3406 3131 3298 2873  Q 3191 2616 2906 2266  Q 2828 2175 2409 1742  Q 1991 1309 1228 531  z "
                   transform="scale(0.015625)" />
              </defs>
              <use
                 xlink:href="#DejaVuSans-34"
                 transform="translate(0 0.765625)"
                 id="use693" />
              <use
                 xlink:href="#DejaVuSans-d7"
                 transform="translate(83.105469 0.765625)"
                 id="use695" />
              <use
                 xlink:href="#DejaVuSans-31"
                 transform="translate(186.376953 0.765625)"
                 id="use697" />
              <use
                 xlink:href="#DejaVuSans-30"
                 transform="translate(250 0.765625)"
                 id="use699" />
              <use
                 xlink:href="#DejaVuSans-2212"
                 transform="translate(314.580078 39.046875) scale(0.7)"
                 id="use701" />
              <use
                 xlink:href="#DejaVuSans-32"
                 transform="translate(373.232422 39.046875) scale(0.7)"
                 id="use703" />
            </g>
          </g>
        </g>
        <g
           id="xtick_3">
          <g
             id="line2d_4">
            <g
               id="g711">
              <use
                 xlink:href="#m3a318a4667"
                 x="140.200846"
                 y="163.307645"
                 style="stroke: #000000; stroke-width: 0.6"
                 id="use709" />
            </g>
          </g>
        </g>
        <g
           id="xtick_4">
          <g
             id="line2d_5">
            <g
               id="g717">
              <use
                 xlink:href="#m3a318a4667"
                 x="194.63404"
                 y="163.307645"
                 style="stroke: #000000; stroke-width: 0.6"
                 id="use715" />
            </g>
          </g>
          <g
             id="text_3">
            <!-- $\mathdefault{6\times10^{-2}}$ -->
            <g
               transform="translate(171.47904 177.065926) scale(0.11 -0.11)"
               id="g735">
              <defs
                 id="defs721">
                <path
                   id="DejaVuSans-36"
                   d="M 2113 2584  Q 1688 2584 1439 2293  Q 1191 2003 1191 1497  Q 1191 994 1439 701  Q 1688 409 2113 409  Q 2538 409 2786 701  Q 3034 994 3034 1497  Q 3034 2003 2786 2293  Q 2538 2584 2113 2584  z M 3366 4563  L 3366 3988  Q 3128 4100 2886 4159  Q 2644 4219 2406 4219  Q 1781 4219 1451 3797  Q 1122 3375 1075 2522  Q 1259 2794 1537 2939  Q 1816 3084 2150 3084  Q 2853 3084 3261 2657  Q 3669 2231 3669 1497  Q 3669 778 3244 343  Q 2819 -91 2113 -91  Q 1303 -91 875 529  Q 447 1150 447 2328  Q 447 3434 972 4092  Q 1497 4750 2381 4750  Q 2619 4750 2861 4703  Q 3103 4656 3366 4563  z "
                   transform="scale(0.015625)" />
              </defs>
              <use
                 xlink:href="#DejaVuSans-36"
                 transform="translate(0 0.765625)"
                 id="use723" />
              <use
                 xlink:href="#DejaVuSans-d7"
                 transform="translate(83.105469 0.765625)"
                 id="use725" />
              <use
                 xlink:href="#DejaVuSans-31"
                 transform="translate(186.376953 0.765625)"
                 id="use727" />
              <use
                 xlink:href="#DejaVuSans-30"
                 transform="translate(250 0.765625)"
                 id="use729" />
              <use
                 xlink:href="#DejaVuSans-2212"
                 transform="translate(314.580078 39.046875) scale(0.7)"
                 id="use731" />
              <use
                 xlink:href="#DejaVuSans-32"
                 transform="translate(373.232422 39.046875) scale(0.7)"
                 id="use733" />
            </g>
          </g>
        </g>
        <g
           id="xtick_5">
          <g
             id="line2d_6">
            <g
               id="g741">
              <use
                 xlink:href="#m3a318a4667"
                 x="240.65665"
                 y="163.307645"
                 style="stroke: #000000; stroke-width: 0.6"
                 id="use739" />
            </g>
          </g>
        </g>
        <g
           id="xtick_6">
          <g
             id="line2d_7">
            <g
               id="g747">
              <use
                 xlink:href="#m3a318a4667"
                 x="280.523248"
                 y="163.307645"
                 style="stroke: #000000; stroke-width: 0.6"
                 id="use745" />
            </g>
          </g>
        </g>
        <g
           id="xtick_7">
          <g
             id="line2d_8">
            <g
               id="g753">
              <use
                 xlink:href="#m3a318a4667"
                 x="315.68808"
                 y="163.307645"
                 style="stroke: #000000; stroke-width: 0.6"
                 id="use751" />
            </g>
          </g>
        </g>
        <g
           id="text_4">
          <!-- time step -->
          <g
             transform="translate(198.518901 193.311864) scale(0.11 -0.11)"
             id="g784">
            <defs
               id="defs764">
              <path
                 id="DejaVuSans-74"
                 d="M 1172 4494  L 1172 3500  L 2356 3500  L 2356 3053  L 1172 3053  L 1172 1153  Q 1172 725 1289 603  Q 1406 481 1766 481  L 2356 481  L 2356 0  L 1766 0  Q 1100 0 847 248  Q 594 497 594 1153  L 594 3053  L 172 3053  L 172 3500  L 594 3500  L 594 4494  L 1172 4494  z "
                 transform="scale(0.015625)" />
              <path
                 id="DejaVuSans-69"
                 d="M 603 3500  L 1178 3500  L 1178 0  L 603 0  L 603 3500  z M 603 4863  L 1178 4863  L 1178 4134  L 603 4134  L 603 4863  z "
                 transform="scale(0.015625)" />
              <path
                 id="DejaVuSans-6d"
                 d="M 3328 2828  Q 3544 3216 3844 3400  Q 4144 3584 4550 3584  Q 5097 3584 5394 3201  Q 5691 2819 5691 2113  L 5691 0  L 5113 0  L 5113 2094  Q 5113 2597 4934 2840  Q 4756 3084 4391 3084  Q 3944 3084 3684 2787  Q 3425 2491 3425 1978  L 3425 0  L 2847 0  L 2847 2094  Q 2847 2600 2669 2842  Q 2491 3084 2119 3084  Q 1678 3084 1418 2786  Q 1159 2488 1159 1978  L 1159 0  L 581 0  L 581 3500  L 1159 3500  L 1159 2956  Q 1356 3278 1631 3431  Q 1906 3584 2284 3584  Q 2666 3584 2933 3390  Q 3200 3197 3328 2828  z "
                 transform="scale(0.015625)" />
              <path
                 id="DejaVuSans-65"
                 d="M 3597 1894  L 3597 1613  L 953 1613  Q 991 1019 1311 708  Q 1631 397 2203 397  Q 2534 397 2845 478  Q 3156 559 3463 722  L 3463 178  Q 3153 47 2828 -22  Q 2503 -91 2169 -91  Q 1331 -91 842 396  Q 353 884 353 1716  Q 353 2575 817 3079  Q 1281 3584 2069 3584  Q 2775 3584 3186 3129  Q 3597 2675 3597 1894  z M 3022 2063  Q 3016 2534 2758 2815  Q 2500 3097 2075 3097  Q 1594 3097 1305 2825  Q 1016 2553 972 2059  L 3022 2063  z "
                 transform="scale(0.015625)" />
              <path
                 id="DejaVuSans-20"
                 transform="scale(0.015625)" />
              <path
                 id="DejaVuSans-73"
                 d="M 2834 3397  L 2834 2853  Q 2591 2978 2328 3040  Q 2066 3103 1784 3103  Q 1356 3103 1142 2972  Q 928 2841 928 2578  Q 928 2378 1081 2264  Q 1234 2150 1697 2047  L 1894 2003  Q 2506 1872 2764 1633  Q 3022 1394 3022 966  Q 3022 478 2636 193  Q 2250 -91 1575 -91  Q 1294 -91 989 -36  Q 684 19 347 128  L 347 722  Q 666 556 975 473  Q 1284 391 1588 391  Q 1994 391 2212 530  Q 2431 669 2431 922  Q 2431 1156 2273 1281  Q 2116 1406 1581 1522  L 1381 1569  Q 847 1681 609 1914  Q 372 2147 372 2553  Q 372 3047 722 3315  Q 1072 3584 1716 3584  Q 2034 3584 2315 3537  Q 2597 3491 2834 3397  z "
                 transform="scale(0.015625)" />
              <path
                 id="DejaVuSans-70"
                 d="M 1159 525  L 1159 -1331  L 581 -1331  L 581 3500  L 1159 3500  L 1159 2969  Q 1341 3281 1617 3432  Q 1894 3584 2278 3584  Q 2916 3584 3314 3078  Q 3713 2572 3713 1747  Q 3713 922 3314 415  Q 2916 -91 2278 -91  Q 1894 -91 1617 61  Q 1341 213 1159 525  z M 3116 1747  Q 3116 2381 2855 2742  Q 2594 3103 2138 3103  Q 1681 3103 1420 2742  Q 1159 2381 1159 1747  Q 1159 1113 1420 752  Q 1681 391 2138 391  Q 2594 391 2855 752  Q 3116 1113 3116 1747  z "
                 transform="scale(0.015625)" />
            </defs>
            <use
               xlink:href="#DejaVuSans-74"
               id="use766" />
            <use
               xlink:href="#DejaVuSans-69"
               x="39.208984"
               id="use768" />
            <use
               xlink:href="#DejaVuSans-6d"
               x="66.992188"
               id="use770" />
            <use
               xlink:href="#DejaVuSans-65"
               x="164.404297"
               id="use772" />
            <use
               xlink:href="#DejaVuSans-20"
               x="225.927734"
               id="use774" />
            <use
               xlink:href="#DejaVuSans-73"
               x="257.714844"
               id="use776" />
            <use
               xlink:href="#DejaVuSans-74"
               x="309.814453"
               id="use778" />
            <use
               xlink:href="#DejaVuSans-65"
               x="349.023438"
               id="use780" />
            <use
               xlink:href="#DejaVuSans-70"
               x="410.546875"
               id="use782" />
          </g>
        </g>
      </g>
      <g
         id="matplotlib.axis_2">
        <g
           id="ytick_1">
          <g
             id="line2d_9">
            <path
               d="M 73.58 101.060627  L 375.59952 101.060627  "
               clip-path="url(#p3eb75c7d0f)"
               style="fill: none; stroke: #b0b0b0; stroke-width: 0.8; stroke-linecap: square"
               id="path788" />
          </g>
          <g
             id="line2d_10">
            <defs
               id="defs792">
              <path
                 id="m89ca758f99"
                 d="M 0 0  L -3.5 0  "
                 style="stroke: #000000; stroke-width: 0.8" />
            </defs>
            <g
               id="g796">
              <use
                 xlink:href="#m89ca758f99"
                 x="73.58"
                 y="101.060627"
                 style="stroke: #000000; stroke-width: 0.8"
                 id="use794" />
            </g>
          </g>
          <g
             id="text_5">
            <!-- $\mathdefault{10^{-1}}$ -->
            <g
               transform="translate(40.73 105.239767) scale(0.11 -0.11)"
               id="g807">
              <use
                 xlink:href="#DejaVuSans-31"
                 transform="translate(0 0.684375)"
                 id="use799" />
              <use
                 xlink:href="#DejaVuSans-30"
                 transform="translate(63.623047 0.684375)"
                 id="use801" />
              <use
                 xlink:href="#DejaVuSans-2212"
                 transform="translate(128.203125 38.965625) scale(0.7)"
                 id="use803" />
              <use
                 xlink:href="#DejaVuSans-31"
                 transform="translate(186.855469 38.965625) scale(0.7)"
                 id="use805" />
            </g>
          </g>
        </g>
        <g
           id="ytick_2">
          <g
             id="line2d_11">
            <defs
               id="defs812">
              <path
                 id="meb9a19ec35"
                 d="M 0 0  L -2 0  "
                 style="stroke: #000000; stroke-width: 0.6" />
            </defs>
            <g
               id="g816">
              <use
                 xlink:href="#meb9a19ec35"
                 x="73.58"
                 y="163.307645"
                 style="stroke: #000000; stroke-width: 0.6"
                 id="use814" />
            </g>
          </g>
          <g
             id="text_6">
            <!-- $\mathdefault{8\times10^{-2}}$ -->
            <g
               transform="translate(21.87 167.486786) scale(0.11 -0.11)"
               id="g834">
              <defs
                 id="defs820">
                <path
                   id="DejaVuSans-38"
                   d="M 2034 2216  Q 1584 2216 1326 1975  Q 1069 1734 1069 1313  Q 1069 891 1326 650  Q 1584 409 2034 409  Q 2484 409 2743 651  Q 3003 894 3003 1313  Q 3003 1734 2745 1975  Q 2488 2216 2034 2216  z M 1403 2484  Q 997 2584 770 2862  Q 544 3141 544 3541  Q 544 4100 942 4425  Q 1341 4750 2034 4750  Q 2731 4750 3128 4425  Q 3525 4100 3525 3541  Q 3525 3141 3298 2862  Q 3072 2584 2669 2484  Q 3125 2378 3379 2068  Q 3634 1759 3634 1313  Q 3634 634 3220 271  Q 2806 -91 2034 -91  Q 1263 -91 848 271  Q 434 634 434 1313  Q 434 1759 690 2068  Q 947 2378 1403 2484  z M 1172 3481  Q 1172 3119 1398 2916  Q 1625 2713 2034 2713  Q 2441 2713 2670 2916  Q 2900 3119 2900 3481  Q 2900 3844 2670 4047  Q 2441 4250 2034 4250  Q 1625 4250 1398 4047  Q 1172 3844 1172 3481  z "
                   transform="scale(0.015625)" />
              </defs>
              <use
                 xlink:href="#DejaVuSans-38"
                 transform="translate(0 0.765625)"
                 id="use822" />
              <use
                 xlink:href="#DejaVuSans-d7"
                 transform="translate(83.105469 0.765625)"
                 id="use824" />
              <use
                 xlink:href="#DejaVuSans-31"
                 transform="translate(186.376953 0.765625)"
                 id="use826" />
              <use
                 xlink:href="#DejaVuSans-30"
                 transform="translate(250 0.765625)"
                 id="use828" />
              <use
                 xlink:href="#DejaVuSans-2212"
                 transform="translate(314.580078 39.046875) scale(0.7)"
                 id="use830" />
              <use
                 xlink:href="#DejaVuSans-32"
                 transform="translate(373.232422 39.046875) scale(0.7)"
                 id="use832" />
            </g>
          </g>
        </g>
        <g
           id="ytick_3">
          <g
             id="line2d_12">
            <g
               id="g840">
              <use
                 xlink:href="#meb9a19ec35"
                 x="73.58"
                 y="130.451473"
                 style="stroke: #000000; stroke-width: 0.6"
                 id="use838" />
            </g>
          </g>
          <g
             id="text_7">
            <!-- $\mathdefault{9\times10^{-2}}$ -->
            <g
               transform="translate(21.87 134.630614) scale(0.11 -0.11)"
               id="g858">
              <defs
                 id="defs844">
                <path
                   id="DejaVuSans-39"
                   d="M 703 97  L 703 672  Q 941 559 1184 500  Q 1428 441 1663 441  Q 2288 441 2617 861  Q 2947 1281 2994 2138  Q 2813 1869 2534 1725  Q 2256 1581 1919 1581  Q 1219 1581 811 2004  Q 403 2428 403 3163  Q 403 3881 828 4315  Q 1253 4750 1959 4750  Q 2769 4750 3195 4129  Q 3622 3509 3622 2328  Q 3622 1225 3098 567  Q 2575 -91 1691 -91  Q 1453 -91 1209 -44  Q 966 3 703 97  z M 1959 2075  Q 2384 2075 2632 2365  Q 2881 2656 2881 3163  Q 2881 3666 2632 3958  Q 2384 4250 1959 4250  Q 1534 4250 1286 3958  Q 1038 3666 1038 3163  Q 1038 2656 1286 2365  Q 1534 2075 1959 2075  z "
                   transform="scale(0.015625)" />
              </defs>
              <use
                 xlink:href="#DejaVuSans-39"
                 transform="translate(0 0.765625)"
                 id="use846" />
              <use
                 xlink:href="#DejaVuSans-d7"
                 transform="translate(83.105469 0.765625)"
                 id="use848" />
              <use
                 xlink:href="#DejaVuSans-31"
                 transform="translate(186.376953 0.765625)"
                 id="use850" />
              <use
                 xlink:href="#DejaVuSans-30"
                 transform="translate(250 0.765625)"
                 id="use852" />
              <use
                 xlink:href="#DejaVuSans-2212"
                 transform="translate(314.580078 39.046875) scale(0.7)"
                 id="use854" />
              <use
                 xlink:href="#DejaVuSans-32"
                 transform="translate(373.232422 39.046875) scale(0.7)"
                 id="use856" />
            </g>
          </g>
        </g>
        <g
           id="text_8">
          <!-- $\xi$ error -->
          <g
             transform="translate(15.56 103.623823) rotate(-90) scale(0.11 -0.11)"
             id="g881">
            <defs
               id="defs865">
              <path
                 id="DejaVuSans-Oblique-3be"
                 d="M 2016 397  Q 2428 394 2628 159  Q 2844 -88 2772 -463  Q 2700 -822 2422 -1072  Q 2119 -1344 1609 -1344  Q 1656 -1109 1700 -872  Q 1913 -888 2072 -750  Q 2194 -641 2216 -525  Q 2247 -359 2175 -222  Q 2100 -91 1922 -91  Q -25 -91 241 1275  Q 422 2213 1516 2488  Q 663 2600 822 3413  Q 941 4028 1678 4284  L 1028 4284  L 1141 4863  L 3606 4863  L 3494 4284  Q 1528 4284 1350 3375  Q 1234 2778 2881 2750  L 2778 2219  Q 1009 2288 819 1275  Q 659 428 2016 397  z "
                 transform="scale(0.015625)" />
              <path
                 id="DejaVuSans-72"
                 d="M 2631 2963  Q 2534 3019 2420 3045  Q 2306 3072 2169 3072  Q 1681 3072 1420 2755  Q 1159 2438 1159 1844  L 1159 0  L 581 0  L 581 3500  L 1159 3500  L 1159 2956  Q 1341 3275 1631 3429  Q 1922 3584 2338 3584  Q 2397 3584 2469 3576  Q 2541 3569 2628 3553  L 2631 2963  z "
                 transform="scale(0.015625)" />
              <path
                 id="DejaVuSans-6f"
                 d="M 1959 3097  Q 1497 3097 1228 2736  Q 959 2375 959 1747  Q 959 1119 1226 758  Q 1494 397 1959 397  Q 2419 397 2687 759  Q 2956 1122 2956 1747  Q 2956 2369 2687 2733  Q 2419 3097 1959 3097  z M 1959 3584  Q 2709 3584 3137 3096  Q 3566 2609 3566 1747  Q 3566 888 3137 398  Q 2709 -91 1959 -91  Q 1206 -91 779 398  Q 353 888 353 1747  Q 353 2609 779 3096  Q 1206 3584 1959 3584  z "
                 transform="scale(0.015625)" />
            </defs>
            <use
               xlink:href="#DejaVuSans-Oblique-3be"
               transform="translate(0 0.015625)"
               id="use867" />
            <use
               xlink:href="#DejaVuSans-20"
               transform="translate(55.761719 0.015625)"
               id="use869" />
            <use
               xlink:href="#DejaVuSans-65"
               transform="translate(87.548828 0.015625)"
               id="use871" />
            <use
               xlink:href="#DejaVuSans-72"
               transform="translate(149.072266 0.015625)"
               id="use873" />
            <use
               xlink:href="#DejaVuSans-72"
               transform="translate(190.185547 0.015625)"
               id="use875" />
            <use
               xlink:href="#DejaVuSans-6f"
               transform="translate(231.298828 0.015625)"
               id="use877" />
            <use
               xlink:href="#DejaVuSans-72"
               transform="translate(292.480469 0.015625)"
               id="use879" />
          </g>
        </g>
      </g>
      <g
         id="patch_3">
        <path
           d="M 73.58 163.307645  L 73.58 7.2  "
           style="fill: none; stroke: #000000; stroke-width: 0.8; stroke-linejoin: miter; stroke-linecap: square"
           id="path885" />
      </g>
      <g
         id="patch_4">
        <path
           d="M 375.59952 163.307645  L 375.59952 7.2  "
           style="fill: none; stroke: #000000; stroke-width: 0.8; stroke-linejoin: miter; stroke-linecap: square"
           id="path888" />
      </g>
      <g
         id="patch_5">
        <path
           d="M 73.58 163.307645  L 375.59952 163.307645  "
           style="fill: none; stroke: #000000; stroke-width: 0.8; stroke-linejoin: miter; stroke-linecap: square"
           id="path891" />
      </g>
      <g
         id="patch_6">
        <path
           d="M 73.58 7.2  L 375.59952 7.2  "
           style="fill: none; stroke: #000000; stroke-width: 0.8; stroke-linejoin: miter; stroke-linecap: square"
           id="path894" />
      </g>
    </g>
  </g>
  <defs
     id="defs902">
    <clipPath
       id="p3eb75c7d0f">
      <rect
         x="73.58"
         y="7.2"
         width="302.01952"
         height="156.107645"
         id="rect899" />
    </clipPath>
  </defs>
  <path
     style="fill:#ffffff;stroke:#000000;stroke-width:1.073;stroke-opacity:1"
     d="M 139.1719,135.48523 346.54725,26.113933"
     id="path1743" />
</svg>
