<?xml version="1.0" encoding="utf-8" standalone="no"?>
<!DOCTYPE svg PUBLIC "-//W3C//DTD SVG 1.1//EN"
  "http://www.w3.org/Graphics/SVG/1.1/DTD/svg11.dtd">
<svg xmlns:xlink="http://www.w3.org/1999/xlink" width="440.60333pt" height="224.39952pt" viewBox="0 0 440.60333 224.39952" xmlns="http://www.w3.org/2000/svg" version="1.1">
 <metadata>
  <rdf:RDF xmlns:dc="http://purl.org/dc/elements/1.1/" xmlns:cc="http://creativecommons.org/ns#" xmlns:rdf="http://www.w3.org/1999/02/22-rdf-syntax-ns#">
   <cc:Work>
    <dc:type rdf:resource="http://purl.org/dc/dcmitype/StillImage"/>
    <dc:date>2023-08-16T12:23:17.888537</dc:date>
    <dc:format>image/svg+xml</dc:format>
    <dc:creator>
     <cc:Agent>
      <dc:title>Matplotlib v3.7.2, https://matplotlib.org/</dc:title>
     </cc:Agent>
    </dc:creator>
   </cc:Work>
  </rdf:RDF>
 </metadata>
 <defs>
  <style type="text/css">*{stroke-linejoin: round; stroke-linecap: butt}</style>
 </defs>
 <g id="figure_1">
  <g id="patch_1">
   <path d="M 0 224.39952 
L 440.60333 224.39952 
L 440.60333 0 
L 0 0 
z
" style="fill: #ffffff"/>
  </g>
  <g id="axes_1">
   <g id="patch_2">
    <path d="M 46.363438 184.907645 
L 303.715716 184.907645 
L 303.715716 11.379141 
L 46.363438 11.379141 
z
" style="fill: #ffffff"/>
   </g>
   <g id="matplotlib.axis_1">
    <g id="xtick_1">
     <g id="line2d_1">
      <path d="M 46.363438 184.907645 
L 46.363438 11.379141 
" clip-path="url(#pfd0c31653c)" style="fill: none; stroke: #b0b0b0; stroke-width: 0.8; stroke-linecap: square"/>
     </g>
     <g id="line2d_2">
      <defs>
       <path id="mcc36df6673" d="M 0 0 
L 0 3.5 
" style="stroke: #000000; stroke-width: 0.8"/>
      </defs>
      <g>
       <use xlink:href="#mcc36df6673" x="46.363438" y="184.907645" style="stroke: #000000; stroke-width: 0.8"/>
      </g>
     </g>
     <g id="text_1">
      <!-- 0.000 -->
      <g transform="translate(30.617969 200.265926) scale(0.11 -0.11)">
       <defs>
        <path id="DejaVuSans-30" d="M 2034 4250 
Q 1547 4250 1301 3770 
Q 1056 3291 1056 2328 
Q 1056 1369 1301 889 
Q 1547 409 2034 409 
Q 2525 409 2770 889 
Q 3016 1369 3016 2328 
Q 3016 3291 2770 3770 
Q 2525 4250 2034 4250 
z
M 2034 4750 
Q 2819 4750 3233 4129 
Q 3647 3509 3647 2328 
Q 3647 1150 3233 529 
Q 2819 -91 2034 -91 
Q 1250 -91 836 529 
Q 422 1150 422 2328 
Q 422 3509 836 4129 
Q 1250 4750 2034 4750 
z
" transform="scale(0.015625)"/>
        <path id="DejaVuSans-2e" d="M 684 794 
L 1344 794 
L 1344 0 
L 684 0 
L 684 794 
z
" transform="scale(0.015625)"/>
       </defs>
       <use xlink:href="#DejaVuSans-30"/>
       <use xlink:href="#DejaVuSans-2e" x="63.623047"/>
       <use xlink:href="#DejaVuSans-30" x="95.410156"/>
       <use xlink:href="#DejaVuSans-30" x="159.033203"/>
       <use xlink:href="#DejaVuSans-30" x="222.65625"/>
      </g>
     </g>
    </g>
    <g id="xtick_2">
     <g id="line2d_3">
      <path d="M 97.833893 184.907645 
L 97.833893 11.379141 
" clip-path="url(#pfd0c31653c)" style="fill: none; stroke: #b0b0b0; stroke-width: 0.8; stroke-linecap: square"/>
     </g>
     <g id="line2d_4">
      <g>
       <use xlink:href="#mcc36df6673" x="97.833893" y="184.907645" style="stroke: #000000; stroke-width: 0.8"/>
      </g>
     </g>
     <g id="text_2">
      <!-- 0.001 -->
      <g transform="translate(82.088424 200.265926) scale(0.11 -0.11)">
       <defs>
        <path id="DejaVuSans-31" d="M 794 531 
L 1825 531 
L 1825 4091 
L 703 3866 
L 703 4441 
L 1819 4666 
L 2450 4666 
L 2450 531 
L 3481 531 
L 3481 0 
L 794 0 
L 794 531 
z
" transform="scale(0.015625)"/>
       </defs>
       <use xlink:href="#DejaVuSans-30"/>
       <use xlink:href="#DejaVuSans-2e" x="63.623047"/>
       <use xlink:href="#DejaVuSans-30" x="95.410156"/>
       <use xlink:href="#DejaVuSans-30" x="159.033203"/>
       <use xlink:href="#DejaVuSans-31" x="222.65625"/>
      </g>
     </g>
    </g>
    <g id="xtick_3">
     <g id="line2d_5">
      <path d="M 149.304349 184.907645 
L 149.304349 11.379141 
" clip-path="url(#pfd0c31653c)" style="fill: none; stroke: #b0b0b0; stroke-width: 0.8; stroke-linecap: square"/>
     </g>
     <g id="line2d_6">
      <g>
       <use xlink:href="#mcc36df6673" x="149.304349" y="184.907645" style="stroke: #000000; stroke-width: 0.8"/>
      </g>
     </g>
     <g id="text_3">
      <!-- 0.002 -->
      <g transform="translate(133.55888 200.265926) scale(0.11 -0.11)">
       <defs>
        <path id="DejaVuSans-32" d="M 1228 531 
L 3431 531 
L 3431 0 
L 469 0 
L 469 531 
Q 828 903 1448 1529 
Q 2069 2156 2228 2338 
Q 2531 2678 2651 2914 
Q 2772 3150 2772 3378 
Q 2772 3750 2511 3984 
Q 2250 4219 1831 4219 
Q 1534 4219 1204 4116 
Q 875 4013 500 3803 
L 500 4441 
Q 881 4594 1212 4672 
Q 1544 4750 1819 4750 
Q 2544 4750 2975 4387 
Q 3406 4025 3406 3419 
Q 3406 3131 3298 2873 
Q 3191 2616 2906 2266 
Q 2828 2175 2409 1742 
Q 1991 1309 1228 531 
z
" transform="scale(0.015625)"/>
       </defs>
       <use xlink:href="#DejaVuSans-30"/>
       <use xlink:href="#DejaVuSans-2e" x="63.623047"/>
       <use xlink:href="#DejaVuSans-30" x="95.410156"/>
       <use xlink:href="#DejaVuSans-30" x="159.033203"/>
       <use xlink:href="#DejaVuSans-32" x="222.65625"/>
      </g>
     </g>
    </g>
    <g id="xtick_4">
     <g id="line2d_7">
      <path d="M 200.774805 184.907645 
L 200.774805 11.379141 
" clip-path="url(#pfd0c31653c)" style="fill: none; stroke: #b0b0b0; stroke-width: 0.8; stroke-linecap: square"/>
     </g>
     <g id="line2d_8">
      <g>
       <use xlink:href="#mcc36df6673" x="200.774805" y="184.907645" style="stroke: #000000; stroke-width: 0.8"/>
      </g>
     </g>
     <g id="text_4">
      <!-- 0.003 -->
      <g transform="translate(185.029336 200.265926) scale(0.11 -0.11)">
       <defs>
        <path id="DejaVuSans-33" d="M 2597 2516 
Q 3050 2419 3304 2112 
Q 3559 1806 3559 1356 
Q 3559 666 3084 287 
Q 2609 -91 1734 -91 
Q 1441 -91 1130 -33 
Q 819 25 488 141 
L 488 750 
Q 750 597 1062 519 
Q 1375 441 1716 441 
Q 2309 441 2620 675 
Q 2931 909 2931 1356 
Q 2931 1769 2642 2001 
Q 2353 2234 1838 2234 
L 1294 2234 
L 1294 2753 
L 1863 2753 
Q 2328 2753 2575 2939 
Q 2822 3125 2822 3475 
Q 2822 3834 2567 4026 
Q 2313 4219 1838 4219 
Q 1578 4219 1281 4162 
Q 984 4106 628 3988 
L 628 4550 
Q 988 4650 1302 4700 
Q 1616 4750 1894 4750 
Q 2613 4750 3031 4423 
Q 3450 4097 3450 3541 
Q 3450 3153 3228 2886 
Q 3006 2619 2597 2516 
z
" transform="scale(0.015625)"/>
       </defs>
       <use xlink:href="#DejaVuSans-30"/>
       <use xlink:href="#DejaVuSans-2e" x="63.623047"/>
       <use xlink:href="#DejaVuSans-30" x="95.410156"/>
       <use xlink:href="#DejaVuSans-30" x="159.033203"/>
       <use xlink:href="#DejaVuSans-33" x="222.65625"/>
      </g>
     </g>
    </g>
    <g id="xtick_5">
     <g id="line2d_9">
      <path d="M 252.24526 184.907645 
L 252.24526 11.379141 
" clip-path="url(#pfd0c31653c)" style="fill: none; stroke: #b0b0b0; stroke-width: 0.8; stroke-linecap: square"/>
     </g>
     <g id="line2d_10">
      <g>
       <use xlink:href="#mcc36df6673" x="252.24526" y="184.907645" style="stroke: #000000; stroke-width: 0.8"/>
      </g>
     </g>
     <g id="text_5">
      <!-- 0.004 -->
      <g transform="translate(236.499791 200.265926) scale(0.11 -0.11)">
       <defs>
        <path id="DejaVuSans-34" d="M 2419 4116 
L 825 1625 
L 2419 1625 
L 2419 4116 
z
M 2253 4666 
L 3047 4666 
L 3047 1625 
L 3713 1625 
L 3713 1100 
L 3047 1100 
L 3047 0 
L 2419 0 
L 2419 1100 
L 313 1100 
L 313 1709 
L 2253 4666 
z
" transform="scale(0.015625)"/>
       </defs>
       <use xlink:href="#DejaVuSans-30"/>
       <use xlink:href="#DejaVuSans-2e" x="63.623047"/>
       <use xlink:href="#DejaVuSans-30" x="95.410156"/>
       <use xlink:href="#DejaVuSans-30" x="159.033203"/>
       <use xlink:href="#DejaVuSans-34" x="222.65625"/>
      </g>
     </g>
    </g>
    <g id="xtick_6">
     <g id="line2d_11">
      <path d="M 303.715716 184.907645 
L 303.715716 11.379141 
" clip-path="url(#pfd0c31653c)" style="fill: none; stroke: #b0b0b0; stroke-width: 0.8; stroke-linecap: square"/>
     </g>
     <g id="line2d_12">
      <g>
       <use xlink:href="#mcc36df6673" x="303.715716" y="184.907645" style="stroke: #000000; stroke-width: 0.8"/>
      </g>
     </g>
     <g id="text_6">
      <!-- 0.005 -->
      <g transform="translate(287.970247 200.265926) scale(0.11 -0.11)">
       <defs>
        <path id="DejaVuSans-35" d="M 691 4666 
L 3169 4666 
L 3169 4134 
L 1269 4134 
L 1269 2991 
Q 1406 3038 1543 3061 
Q 1681 3084 1819 3084 
Q 2600 3084 3056 2656 
Q 3513 2228 3513 1497 
Q 3513 744 3044 326 
Q 2575 -91 1722 -91 
Q 1428 -91 1123 -41 
Q 819 9 494 109 
L 494 744 
Q 775 591 1075 516 
Q 1375 441 1709 441 
Q 2250 441 2565 725 
Q 2881 1009 2881 1497 
Q 2881 1984 2565 2268 
Q 2250 2553 1709 2553 
Q 1456 2553 1204 2497 
Q 953 2441 691 2322 
L 691 4666 
z
" transform="scale(0.015625)"/>
       </defs>
       <use xlink:href="#DejaVuSans-30"/>
       <use xlink:href="#DejaVuSans-2e" x="63.623047"/>
       <use xlink:href="#DejaVuSans-30" x="95.410156"/>
       <use xlink:href="#DejaVuSans-30" x="159.033203"/>
       <use xlink:href="#DejaVuSans-35" x="222.65625"/>
      </g>
     </g>
    </g>
    <g id="text_7">
     <!-- z -->
     <g transform="translate(172.152936 214.911864) scale(0.11 -0.11)">
      <defs>
       <path id="DejaVuSans-7a" d="M 353 3500 
L 3084 3500 
L 3084 2975 
L 922 459 
L 3084 459 
L 3084 0 
L 275 0 
L 275 525 
L 2438 3041 
L 353 3041 
L 353 3500 
z
" transform="scale(0.015625)"/>
      </defs>
      <use xlink:href="#DejaVuSans-7a"/>
     </g>
    </g>
   </g>
   <g id="matplotlib.axis_2">
    <g id="ytick_1">
     <g id="line2d_13">
      <path d="M 46.363438 184.907645 
L 303.715716 184.907645 
" clip-path="url(#pfd0c31653c)" style="fill: none; stroke: #b0b0b0; stroke-width: 0.8; stroke-linecap: square"/>
     </g>
     <g id="line2d_14">
      <defs>
       <path id="m46dc40ecd8" d="M 0 0 
L -3.5 0 
" style="stroke: #000000; stroke-width: 0.8"/>
      </defs>
      <g>
       <use xlink:href="#m46dc40ecd8" x="46.363438" y="184.907645" style="stroke: #000000; stroke-width: 0.8"/>
      </g>
     </g>
     <g id="text_8">
      <!-- 0.0 -->
      <g transform="translate(21.87 189.086786) scale(0.11 -0.11)">
       <use xlink:href="#DejaVuSans-30"/>
       <use xlink:href="#DejaVuSans-2e" x="63.623047"/>
       <use xlink:href="#DejaVuSans-30" x="95.410156"/>
      </g>
     </g>
    </g>
    <g id="ytick_2">
     <g id="line2d_15">
      <path d="M 46.363438 155.986228 
L 303.715716 155.986228 
" clip-path="url(#pfd0c31653c)" style="fill: none; stroke: #b0b0b0; stroke-width: 0.8; stroke-linecap: square"/>
     </g>
     <g id="line2d_16">
      <g>
       <use xlink:href="#m46dc40ecd8" x="46.363438" y="155.986228" style="stroke: #000000; stroke-width: 0.8"/>
      </g>
     </g>
     <g id="text_9">
      <!-- 0.1 -->
      <g transform="translate(21.87 160.165368) scale(0.11 -0.11)">
       <use xlink:href="#DejaVuSans-30"/>
       <use xlink:href="#DejaVuSans-2e" x="63.623047"/>
       <use xlink:href="#DejaVuSans-31" x="95.410156"/>
      </g>
     </g>
    </g>
    <g id="ytick_3">
     <g id="line2d_17">
      <path d="M 46.363438 127.06481 
L 303.715716 127.06481 
" clip-path="url(#pfd0c31653c)" style="fill: none; stroke: #b0b0b0; stroke-width: 0.8; stroke-linecap: square"/>
     </g>
     <g id="line2d_18">
      <g>
       <use xlink:href="#m46dc40ecd8" x="46.363438" y="127.06481" style="stroke: #000000; stroke-width: 0.8"/>
      </g>
     </g>
     <g id="text_10">
      <!-- 0.2 -->
      <g transform="translate(21.87 131.243951) scale(0.11 -0.11)">
       <use xlink:href="#DejaVuSans-30"/>
       <use xlink:href="#DejaVuSans-2e" x="63.623047"/>
       <use xlink:href="#DejaVuSans-32" x="95.410156"/>
      </g>
     </g>
    </g>
    <g id="ytick_4">
     <g id="line2d_19">
      <path d="M 46.363438 98.143393 
L 303.715716 98.143393 
" clip-path="url(#pfd0c31653c)" style="fill: none; stroke: #b0b0b0; stroke-width: 0.8; stroke-linecap: square"/>
     </g>
     <g id="line2d_20">
      <g>
       <use xlink:href="#m46dc40ecd8" x="46.363438" y="98.143393" style="stroke: #000000; stroke-width: 0.8"/>
      </g>
     </g>
     <g id="text_11">
      <!-- 0.3 -->
      <g transform="translate(21.87 102.322533) scale(0.11 -0.11)">
       <use xlink:href="#DejaVuSans-30"/>
       <use xlink:href="#DejaVuSans-2e" x="63.623047"/>
       <use xlink:href="#DejaVuSans-33" x="95.410156"/>
      </g>
     </g>
    </g>
    <g id="ytick_5">
     <g id="line2d_21">
      <path d="M 46.363438 69.221975 
L 303.715716 69.221975 
" clip-path="url(#pfd0c31653c)" style="fill: none; stroke: #b0b0b0; stroke-width: 0.8; stroke-linecap: square"/>
     </g>
     <g id="line2d_22">
      <g>
       <use xlink:href="#m46dc40ecd8" x="46.363438" y="69.221975" style="stroke: #000000; stroke-width: 0.8"/>
      </g>
     </g>
     <g id="text_12">
      <!-- 0.4 -->
      <g transform="translate(21.87 73.401116) scale(0.11 -0.11)">
       <use xlink:href="#DejaVuSans-30"/>
       <use xlink:href="#DejaVuSans-2e" x="63.623047"/>
       <use xlink:href="#DejaVuSans-34" x="95.410156"/>
      </g>
     </g>
    </g>
    <g id="ytick_6">
     <g id="line2d_23">
      <path d="M 46.363438 40.300558 
L 303.715716 40.300558 
" clip-path="url(#pfd0c31653c)" style="fill: none; stroke: #b0b0b0; stroke-width: 0.8; stroke-linecap: square"/>
     </g>
     <g id="line2d_24">
      <g>
       <use xlink:href="#m46dc40ecd8" x="46.363438" y="40.300558" style="stroke: #000000; stroke-width: 0.8"/>
      </g>
     </g>
     <g id="text_13">
      <!-- 0.5 -->
      <g transform="translate(21.87 44.479699) scale(0.11 -0.11)">
       <use xlink:href="#DejaVuSans-30"/>
       <use xlink:href="#DejaVuSans-2e" x="63.623047"/>
       <use xlink:href="#DejaVuSans-35" x="95.410156"/>
      </g>
     </g>
    </g>
    <g id="ytick_7">
     <g id="line2d_25">
      <path d="M 46.363438 11.379141 
L 303.715716 11.379141 
" clip-path="url(#pfd0c31653c)" style="fill: none; stroke: #b0b0b0; stroke-width: 0.8; stroke-linecap: square"/>
     </g>
     <g id="line2d_26">
      <g>
       <use xlink:href="#m46dc40ecd8" x="46.363438" y="11.379141" style="stroke: #000000; stroke-width: 0.8"/>
      </g>
     </g>
     <g id="text_14">
      <!-- 0.6 -->
      <g transform="translate(21.87 15.558281) scale(0.11 -0.11)">
       <defs>
        <path id="DejaVuSans-36" d="M 2113 2584 
Q 1688 2584 1439 2293 
Q 1191 2003 1191 1497 
Q 1191 994 1439 701 
Q 1688 409 2113 409 
Q 2538 409 2786 701 
Q 3034 994 3034 1497 
Q 3034 2003 2786 2293 
Q 2538 2584 2113 2584 
z
M 3366 4563 
L 3366 3988 
Q 3128 4100 2886 4159 
Q 2644 4219 2406 4219 
Q 1781 4219 1451 3797 
Q 1122 3375 1075 2522 
Q 1259 2794 1537 2939 
Q 1816 3084 2150 3084 
Q 2853 3084 3261 2657 
Q 3669 2231 3669 1497 
Q 3669 778 3244 343 
Q 2819 -91 2113 -91 
Q 1303 -91 875 529 
Q 447 1150 447 2328 
Q 447 3434 972 4092 
Q 1497 4750 2381 4750 
Q 2619 4750 2861 4703 
Q 3103 4656 3366 4563 
z
" transform="scale(0.015625)"/>
       </defs>
       <use xlink:href="#DejaVuSans-30"/>
       <use xlink:href="#DejaVuSans-2e" x="63.623047"/>
       <use xlink:href="#DejaVuSans-36" x="95.410156"/>
      </g>
     </g>
    </g>
    <g id="text_15">
     <!-- $\xi$ -->
     <g transform="translate(15.56 101.223393) rotate(-90) scale(0.11 -0.11)">
      <defs>
       <path id="DejaVuSans-Oblique-3be" d="M 2016 397 
Q 2428 394 2628 159 
Q 2844 -88 2772 -463 
Q 2700 -822 2422 -1072 
Q 2119 -1344 1609 -1344 
Q 1656 -1109 1700 -872 
Q 1913 -888 2072 -750 
Q 2194 -641 2216 -525 
Q 2247 -359 2175 -222 
Q 2100 -91 1922 -91 
Q -25 -91 241 1275 
Q 422 2213 1516 2488 
Q 663 2600 822 3413 
Q 941 4028 1678 4284 
L 1028 4284 
L 1141 4863 
L 3606 4863 
L 3494 4284 
Q 1528 4284 1350 3375 
Q 1234 2778 2881 2750 
L 2778 2219 
Q 1009 2288 819 1275 
Q 659 428 2016 397 
z
" transform="scale(0.015625)"/>
      </defs>
      <use xlink:href="#DejaVuSans-Oblique-3be" transform="translate(0 0.015625)"/>
     </g>
    </g>
   </g>
   <g id="line2d_27">
    <path d="M 46.363438 184.907485 
L 55.895003 184.906249 
L 65.426569 184.905198 
L 74.958135 184.904259 
L 84.489701 184.903405 
L 94.021267 184.902623 
L 103.552833 184.901902 
L 113.084399 184.901235 
L 122.615964 184.900617 
L 132.14753 184.900045 
L 141.679096 184.899515 
L 151.210662 184.899025 
L 160.742228 184.898573 
L 170.273794 184.898157 
L 179.80536 184.897776 
L 189.336925 184.897427 
L 198.868491 184.897111 
L 208.400057 184.896826 
L 217.931623 184.896571 
L 227.463189 184.896346 
L 236.994755 184.896149 
L 246.526321 184.895982 
L 256.057887 184.895842 
L 265.589452 184.895731 
L 275.121018 184.895646 
L 284.652584 184.89559 
L 294.18415 184.89556 
L 303.715716 184.89556 
" clip-path="url(#pfd0c31653c)" style="fill: none; stroke: #1f77b4; stroke-width: 1.5; stroke-linecap: square"/>
   </g>
   <g id="line2d_28">
    <path d="M 46.363438 184.907485 
L 55.895003 184.906131 
L 65.426569 184.905006 
L 74.958135 184.904008 
L 84.489701 184.903547 
L 94.021267 184.902685 
L 103.552833 184.901896 
L 113.084399 184.901171 
L 122.615964 184.900503 
L 132.14753 184.899887 
L 141.679096 184.89932 
L 151.210662 184.899053 
L 160.742228 184.898552 
L 170.273794 184.898093 
L 179.80536 184.897674 
L 189.336925 184.897292 
L 198.868491 184.896946 
L 208.400057 184.896636 
L 217.931623 184.896494 
L 227.463189 184.896235 
L 236.994755 184.896009 
L 246.526321 184.895815 
L 256.057887 184.895653 
L 265.589452 184.895523 
L 275.121018 184.895423 
L 284.652584 184.895385 
L 294.18415 184.895331 
L 303.715716 184.895308 
" clip-path="url(#pfd0c31653c)" style="fill: none; stroke: #ff7f0e; stroke-width: 1.5; stroke-linecap: square"/>
   </g>
   <g id="line2d_29">
    <path d="M 46.363438 184.907485 
L 55.895003 184.906079 
L 65.426569 184.905217 
L 74.958135 184.904209 
L 84.489701 184.903531 
L 94.021267 184.902709 
L 103.552833 184.902145 
L 113.084399 184.901453 
L 122.615964 184.900823 
L 132.14753 184.900387 
L 141.679096 184.89985 
L 151.210662 184.899478 
L 160.742228 184.89902 
L 170.273794 184.898704 
L 179.80536 184.898316 
L 189.336925 184.897966 
L 198.868491 184.897726 
L 208.400057 184.897436 
L 217.931623 184.897239 
L 227.463189 184.897005 
L 236.994755 184.89685 
L 246.526321 184.896669 
L 256.057887 184.896516 
L 265.589452 184.896421 
L 275.121018 184.896318 
L 284.652584 184.896259 
L 294.18415 184.896205 
L 303.715716 184.896182 
" clip-path="url(#pfd0c31653c)" style="fill: none; stroke: #2ca02c; stroke-width: 1.5; stroke-linecap: square"/>
   </g>
   <g id="line2d_30">
    <path d="M 46.363438 184.907485 
L 55.895003 184.906287 
L 65.426569 184.905322 
L 74.958135 184.904482 
L 84.489701 184.903632 
L 94.021267 184.902965 
L 103.552833 184.902357 
L 113.084399 184.901801 
L 122.615964 184.90129 
L 132.14753 184.90082 
L 141.679096 184.900387 
L 151.210662 184.899935 
L 160.742228 184.899572 
L 170.273794 184.899239 
L 179.80536 184.898933 
L 189.336925 184.898653 
L 198.868491 184.898398 
L 208.400057 184.898166 
L 217.931623 184.897929 
L 227.463189 184.897745 
L 236.994755 184.897581 
L 246.526321 184.897438 
L 256.057887 184.897314 
L 265.589452 184.897209 
L 275.121018 184.897123 
L 284.652584 184.897048 
L 294.18415 184.897001 
L 303.715716 184.896974 
" clip-path="url(#pfd0c31653c)" style="fill: none; stroke: #d62728; stroke-width: 1.5; stroke-linecap: square"/>
   </g>
   <g id="line2d_31">
    <path d="M 46.363438 184.907485 
L 55.895003 184.906297 
L 65.426569 184.905279 
L 74.958135 184.904455 
L 84.489701 184.903719 
L 94.021267 184.903055 
L 103.552833 184.90241 
L 113.084399 184.901861 
L 122.615964 184.901357 
L 132.14753 184.900862 
L 141.679096 184.900438 
L 151.210662 184.900048 
L 160.742228 184.899689 
L 170.273794 184.899337 
L 179.80536 184.899037 
L 189.336925 184.898762 
L 198.868491 184.898494 
L 208.400057 184.898268 
L 217.931623 184.898064 
L 227.463189 184.897881 
L 236.994755 184.897708 
L 246.526321 184.897566 
L 256.057887 184.897444 
L 265.589452 184.897333 
L 275.121018 184.897248 
L 284.652584 184.897181 
L 294.18415 184.897132 
L 303.715716 184.897099 
" clip-path="url(#pfd0c31653c)" style="fill: none; stroke: #9467bd; stroke-width: 1.5; stroke-linecap: square"/>
   </g>
   <g id="line2d_32">
    <path d="M 46.363438 184.907485 
L 55.895003 184.906257 
L 65.426569 184.905306 
L 74.958135 184.904449 
L 84.489701 184.903713 
L 94.021267 184.903025 
L 103.552833 184.902421 
L 113.084399 184.90185 
L 122.615964 184.901326 
L 132.14753 184.900862 
L 141.679096 184.90042 
L 151.210662 184.900028 
L 160.742228 184.899654 
L 170.273794 184.899322 
L 179.80536 184.899008 
L 189.336925 184.89872 
L 198.868491 184.898467 
L 208.400057 184.89823 
L 217.931623 184.898023 
L 227.463189 184.897831 
L 236.994755 184.897667 
L 246.526321 184.897517 
L 256.057887 184.897388 
L 265.589452 184.897283 
L 275.121018 184.897193 
L 284.652584 184.897125 
L 294.18415 184.897074 
L 303.715716 184.897043 
" clip-path="url(#pfd0c31653c)" style="fill: none; stroke: #8c564b; stroke-width: 1.5; stroke-linecap: square"/>
   </g>
   <g id="line2d_33">
    <path d="M 46.363438 184.907485 
L 55.895003 184.90626 
L 65.426569 184.905303 
L 74.958135 184.904447 
L 84.489701 184.903686 
L 94.021267 184.903001 
L 103.552833 184.902394 
L 113.084399 184.901824 
L 122.615964 184.901303 
L 132.14753 184.900837 
L 141.679096 184.900396 
L 151.210662 184.899991 
L 160.742228 184.899619 
L 170.273794 184.899287 
L 179.80536 184.898975 
L 189.336925 184.898689 
L 198.868491 184.898436 
L 208.400057 184.8982 
L 217.931623 184.897988 
L 227.463189 184.897798 
L 236.994755 184.897634 
L 246.526321 184.897487 
L 256.057887 184.897359 
L 265.589452 184.897254 
L 275.121018 184.897166 
L 284.652584 184.897096 
L 294.18415 184.897046 
L 303.715716 184.897015 
" clip-path="url(#pfd0c31653c)" style="fill: none; stroke: #e377c2; stroke-width: 1.5; stroke-linecap: square"/>
   </g>
   <g id="patch_3">
    <path d="M 46.363438 184.907645 
L 46.363438 11.379141 
" style="fill: none; stroke: #000000; stroke-width: 0.8; stroke-linejoin: miter; stroke-linecap: square"/>
   </g>
   <g id="patch_4">
    <path d="M 303.715716 184.907645 
L 303.715716 11.379141 
" style="fill: none; stroke: #000000; stroke-width: 0.8; stroke-linejoin: miter; stroke-linecap: square"/>
   </g>
   <g id="patch_5">
    <path d="M 46.363438 184.907645 
L 303.715716 184.907645 
" style="fill: none; stroke: #000000; stroke-width: 0.8; stroke-linejoin: miter; stroke-linecap: square"/>
   </g>
   <g id="patch_6">
    <path d="M 46.363438 11.379141 
L 303.715716 11.379141 
" style="fill: none; stroke: #000000; stroke-width: 0.8; stroke-linejoin: miter; stroke-linecap: square"/>
   </g>
   <g id="legend_1">
    <g id="patch_7">
     <path d="M 324.28333 133.200703 
L 431.20333 133.200703 
Q 433.40333 133.200703 433.40333 131.000703 
L 433.40333 19.079141 
Q 433.40333 16.879141 431.20333 16.879141 
L 324.28333 16.879141 
Q 322.08333 16.879141 322.08333 19.079141 
L 322.08333 131.000703 
Q 322.08333 133.200703 324.28333 133.200703 
z
" style="fill: #ffffff; opacity: 0.8; stroke: #cccccc; stroke-linejoin: miter"/>
    </g>
    <g id="line2d_34">
     <path d="M 326.48333 25.787422 
L 337.48333 25.787422 
L 348.48333 25.787422 
" style="fill: none; stroke: #1f77b4; stroke-width: 1.5; stroke-linecap: square"/>
    </g>
    <g id="text_16">
     <!--  $\Delta z$ = 1/28 -->
     <g transform="translate(357.28333 29.637422) scale(0.11 -0.11)">
      <defs>
       <path id="DejaVuSans-20" transform="scale(0.015625)"/>
       <path id="DejaVuSans-394" d="M 2188 4044 
L 906 525 
L 3472 525 
L 2188 4044 
z
M 50 0 
L 1831 4666 
L 2547 4666 
L 4325 0 
L 50 0 
z
" transform="scale(0.015625)"/>
       <path id="DejaVuSans-Oblique-7a" d="M 744 3500 
L 3475 3500 
L 3372 2975 
L 738 459 
L 2913 459 
L 2822 0 
L -19 0 
L 84 525 
L 2719 3041 
L 653 3041 
L 744 3500 
z
" transform="scale(0.015625)"/>
       <path id="DejaVuSans-3d" d="M 678 2906 
L 4684 2906 
L 4684 2381 
L 678 2381 
L 678 2906 
z
M 678 1631 
L 4684 1631 
L 4684 1100 
L 678 1100 
L 678 1631 
z
" transform="scale(0.015625)"/>
       <path id="DejaVuSans-2f" d="M 1625 4666 
L 2156 4666 
L 531 -594 
L 0 -594 
L 1625 4666 
z
" transform="scale(0.015625)"/>
       <path id="DejaVuSans-38" d="M 2034 2216 
Q 1584 2216 1326 1975 
Q 1069 1734 1069 1313 
Q 1069 891 1326 650 
Q 1584 409 2034 409 
Q 2484 409 2743 651 
Q 3003 894 3003 1313 
Q 3003 1734 2745 1975 
Q 2488 2216 2034 2216 
z
M 1403 2484 
Q 997 2584 770 2862 
Q 544 3141 544 3541 
Q 544 4100 942 4425 
Q 1341 4750 2034 4750 
Q 2731 4750 3128 4425 
Q 3525 4100 3525 3541 
Q 3525 3141 3298 2862 
Q 3072 2584 2669 2484 
Q 3125 2378 3379 2068 
Q 3634 1759 3634 1313 
Q 3634 634 3220 271 
Q 2806 -91 2034 -91 
Q 1263 -91 848 271 
Q 434 634 434 1313 
Q 434 1759 690 2068 
Q 947 2378 1403 2484 
z
M 1172 3481 
Q 1172 3119 1398 2916 
Q 1625 2713 2034 2713 
Q 2441 2713 2670 2916 
Q 2900 3119 2900 3481 
Q 2900 3844 2670 4047 
Q 2441 4250 2034 4250 
Q 1625 4250 1398 4047 
Q 1172 3844 1172 3481 
z
" transform="scale(0.015625)"/>
      </defs>
      <use xlink:href="#DejaVuSans-20" transform="translate(0 0.78125)"/>
      <use xlink:href="#DejaVuSans-394" transform="translate(31.787109 0.78125)"/>
      <use xlink:href="#DejaVuSans-Oblique-7a" transform="translate(100.195312 0.78125)"/>
      <use xlink:href="#DejaVuSans-20" transform="translate(152.685547 0.78125)"/>
      <use xlink:href="#DejaVuSans-3d" transform="translate(184.472656 0.78125)"/>
      <use xlink:href="#DejaVuSans-20" transform="translate(268.261719 0.78125)"/>
      <use xlink:href="#DejaVuSans-31" transform="translate(300.048828 0.78125)"/>
      <use xlink:href="#DejaVuSans-2f" transform="translate(363.671875 0.78125)"/>
      <use xlink:href="#DejaVuSans-32" transform="translate(393.738281 0.78125)"/>
      <use xlink:href="#DejaVuSans-38" transform="translate(457.361328 0.78125)"/>
     </g>
    </g>
    <g id="line2d_35">
     <path d="M 326.48333 41.933359 
L 337.48333 41.933359 
L 348.48333 41.933359 
" style="fill: none; stroke: #ff7f0e; stroke-width: 1.5; stroke-linecap: square"/>
    </g>
    <g id="text_17">
     <!--  $\Delta z$ = 1/52 -->
     <g transform="translate(357.28333 45.783359) scale(0.11 -0.11)">
      <use xlink:href="#DejaVuSans-20" transform="translate(0 0.78125)"/>
      <use xlink:href="#DejaVuSans-394" transform="translate(31.787109 0.78125)"/>
      <use xlink:href="#DejaVuSans-Oblique-7a" transform="translate(100.195312 0.78125)"/>
      <use xlink:href="#DejaVuSans-20" transform="translate(152.685547 0.78125)"/>
      <use xlink:href="#DejaVuSans-3d" transform="translate(184.472656 0.78125)"/>
      <use xlink:href="#DejaVuSans-20" transform="translate(268.261719 0.78125)"/>
      <use xlink:href="#DejaVuSans-31" transform="translate(300.048828 0.78125)"/>
      <use xlink:href="#DejaVuSans-2f" transform="translate(363.671875 0.78125)"/>
      <use xlink:href="#DejaVuSans-35" transform="translate(397.363281 0.78125)"/>
      <use xlink:href="#DejaVuSans-32" transform="translate(460.986328 0.78125)"/>
     </g>
    </g>
    <g id="line2d_36">
     <path d="M 326.48333 58.079297 
L 337.48333 58.079297 
L 348.48333 58.079297 
" style="fill: none; stroke: #2ca02c; stroke-width: 1.5; stroke-linecap: square"/>
    </g>
    <g id="text_18">
     <!--  $\Delta z$ = 1/100 -->
     <g transform="translate(357.28333 61.929297) scale(0.11 -0.11)">
      <use xlink:href="#DejaVuSans-20" transform="translate(0 0.78125)"/>
      <use xlink:href="#DejaVuSans-394" transform="translate(31.787109 0.78125)"/>
      <use xlink:href="#DejaVuSans-Oblique-7a" transform="translate(100.195312 0.78125)"/>
      <use xlink:href="#DejaVuSans-20" transform="translate(152.685547 0.78125)"/>
      <use xlink:href="#DejaVuSans-3d" transform="translate(184.472656 0.78125)"/>
      <use xlink:href="#DejaVuSans-20" transform="translate(268.261719 0.78125)"/>
      <use xlink:href="#DejaVuSans-31" transform="translate(300.048828 0.78125)"/>
      <use xlink:href="#DejaVuSans-2f" transform="translate(363.671875 0.78125)"/>
      <use xlink:href="#DejaVuSans-31" transform="translate(397.363281 0.78125)"/>
      <use xlink:href="#DejaVuSans-30" transform="translate(460.986328 0.78125)"/>
      <use xlink:href="#DejaVuSans-30" transform="translate(524.609375 0.78125)"/>
     </g>
    </g>
    <g id="line2d_37">
     <path d="M 326.48333 74.225234 
L 337.48333 74.225234 
L 348.48333 74.225234 
" style="fill: none; stroke: #d62728; stroke-width: 1.5; stroke-linecap: square"/>
    </g>
    <g id="text_19">
     <!--  $\Delta z$ = 1/200 -->
     <g transform="translate(357.28333 78.075234) scale(0.11 -0.11)">
      <use xlink:href="#DejaVuSans-20" transform="translate(0 0.78125)"/>
      <use xlink:href="#DejaVuSans-394" transform="translate(31.787109 0.78125)"/>
      <use xlink:href="#DejaVuSans-Oblique-7a" transform="translate(100.195312 0.78125)"/>
      <use xlink:href="#DejaVuSans-20" transform="translate(152.685547 0.78125)"/>
      <use xlink:href="#DejaVuSans-3d" transform="translate(184.472656 0.78125)"/>
      <use xlink:href="#DejaVuSans-20" transform="translate(268.261719 0.78125)"/>
      <use xlink:href="#DejaVuSans-31" transform="translate(300.048828 0.78125)"/>
      <use xlink:href="#DejaVuSans-2f" transform="translate(363.671875 0.78125)"/>
      <use xlink:href="#DejaVuSans-32" transform="translate(393.738281 0.78125)"/>
      <use xlink:href="#DejaVuSans-30" transform="translate(457.361328 0.78125)"/>
      <use xlink:href="#DejaVuSans-30" transform="translate(520.984375 0.78125)"/>
     </g>
    </g>
    <g id="line2d_38">
     <path d="M 326.48333 90.371172 
L 337.48333 90.371172 
L 348.48333 90.371172 
" style="fill: none; stroke: #9467bd; stroke-width: 1.5; stroke-linecap: square"/>
    </g>
    <g id="text_20">
     <!--  $\Delta z$ = 1/400 -->
     <g transform="translate(357.28333 94.221172) scale(0.11 -0.11)">
      <use xlink:href="#DejaVuSans-20" transform="translate(0 0.78125)"/>
      <use xlink:href="#DejaVuSans-394" transform="translate(31.787109 0.78125)"/>
      <use xlink:href="#DejaVuSans-Oblique-7a" transform="translate(100.195312 0.78125)"/>
      <use xlink:href="#DejaVuSans-20" transform="translate(152.685547 0.78125)"/>
      <use xlink:href="#DejaVuSans-3d" transform="translate(184.472656 0.78125)"/>
      <use xlink:href="#DejaVuSans-20" transform="translate(268.261719 0.78125)"/>
      <use xlink:href="#DejaVuSans-31" transform="translate(300.048828 0.78125)"/>
      <use xlink:href="#DejaVuSans-2f" transform="translate(363.671875 0.78125)"/>
      <use xlink:href="#DejaVuSans-34" transform="translate(397.363281 0.78125)"/>
      <use xlink:href="#DejaVuSans-30" transform="translate(460.986328 0.78125)"/>
      <use xlink:href="#DejaVuSans-30" transform="translate(524.609375 0.78125)"/>
     </g>
    </g>
    <g id="line2d_39">
     <path d="M 326.48333 106.517109 
L 337.48333 106.517109 
L 348.48333 106.517109 
" style="fill: none; stroke: #8c564b; stroke-width: 1.5; stroke-linecap: square"/>
    </g>
    <g id="text_21">
     <!--  $\Delta z$ = 1/800 -->
     <g transform="translate(357.28333 110.367109) scale(0.11 -0.11)">
      <use xlink:href="#DejaVuSans-20" transform="translate(0 0.78125)"/>
      <use xlink:href="#DejaVuSans-394" transform="translate(31.787109 0.78125)"/>
      <use xlink:href="#DejaVuSans-Oblique-7a" transform="translate(100.195312 0.78125)"/>
      <use xlink:href="#DejaVuSans-20" transform="translate(152.685547 0.78125)"/>
      <use xlink:href="#DejaVuSans-3d" transform="translate(184.472656 0.78125)"/>
      <use xlink:href="#DejaVuSans-20" transform="translate(268.261719 0.78125)"/>
      <use xlink:href="#DejaVuSans-31" transform="translate(300.048828 0.78125)"/>
      <use xlink:href="#DejaVuSans-2f" transform="translate(363.671875 0.78125)"/>
      <use xlink:href="#DejaVuSans-38" transform="translate(392.363281 0.78125)"/>
      <use xlink:href="#DejaVuSans-30" transform="translate(455.986328 0.78125)"/>
      <use xlink:href="#DejaVuSans-30" transform="translate(519.609375 0.78125)"/>
     </g>
    </g>
    <g id="line2d_40">
     <path d="M 326.48333 122.663047 
L 337.48333 122.663047 
L 348.48333 122.663047 
" style="fill: none; stroke: #e377c2; stroke-width: 1.5; stroke-linecap: square"/>
    </g>
    <g id="text_22">
     <!--  $\Delta z$ = 1/1000 -->
     <g transform="translate(357.28333 126.513047) scale(0.11 -0.11)">
      <use xlink:href="#DejaVuSans-20" transform="translate(0 0.78125)"/>
      <use xlink:href="#DejaVuSans-394" transform="translate(31.787109 0.78125)"/>
      <use xlink:href="#DejaVuSans-Oblique-7a" transform="translate(100.195312 0.78125)"/>
      <use xlink:href="#DejaVuSans-20" transform="translate(152.685547 0.78125)"/>
      <use xlink:href="#DejaVuSans-3d" transform="translate(184.472656 0.78125)"/>
      <use xlink:href="#DejaVuSans-20" transform="translate(268.261719 0.78125)"/>
      <use xlink:href="#DejaVuSans-31" transform="translate(300.048828 0.78125)"/>
      <use xlink:href="#DejaVuSans-2f" transform="translate(363.671875 0.78125)"/>
      <use xlink:href="#DejaVuSans-31" transform="translate(397.363281 0.78125)"/>
      <use xlink:href="#DejaVuSans-30" transform="translate(460.986328 0.78125)"/>
      <use xlink:href="#DejaVuSans-30" transform="translate(524.609375 0.78125)"/>
      <use xlink:href="#DejaVuSans-30" transform="translate(588.232422 0.78125)"/>
     </g>
    </g>
   </g>
  </g>
 </g>
 <defs>
  <clipPath id="pfd0c31653c">
   <rect x="46.363438" y="11.379141" width="257.352278" height="173.528504"/>
  </clipPath>
 </defs>
</svg>
