<?xml version="1.0" encoding="utf-8" standalone="no"?>
<!DOCTYPE svg PUBLIC "-//W3C//DTD SVG 1.1//EN"
  "http://www.w3.org/Graphics/SVG/1.1/DTD/svg11.dtd">
<svg xmlns:xlink="http://www.w3.org/1999/xlink" width="440.60333pt" height="224.39952pt" viewBox="0 0 440.60333 224.39952" xmlns="http://www.w3.org/2000/svg" version="1.1">
 <metadata>
  <rdf:RDF xmlns:dc="http://purl.org/dc/elements/1.1/" xmlns:cc="http://creativecommons.org/ns#" xmlns:rdf="http://www.w3.org/1999/02/22-rdf-syntax-ns#">
   <cc:Work>
    <dc:type rdf:resource="http://purl.org/dc/dcmitype/StillImage"/>
    <dc:date>2023-07-17T13:55:02.437995</dc:date>
    <dc:format>image/svg+xml</dc:format>
    <dc:creator>
     <cc:Agent>
      <dc:title>Matplotlib v3.7.1, https://matplotlib.org/</dc:title>
     </cc:Agent>
    </dc:creator>
   </cc:Work>
  </rdf:RDF>
 </metadata>
 <defs>
  <style type="text/css">*{stroke-linejoin: round; stroke-linecap: butt}</style>
 </defs>
 <g id="figure_1">
  <g id="patch_1">
   <path d="M 0 224.39952 
L 440.60333 224.39952 
L 440.60333 0 
L 0 0 
z
" style="fill: #ffffff"/>
  </g>
  <g id="axes_1">
   <g id="patch_2">
    <path d="M 46.363438 184.907645 
L 303.715716 184.907645 
L 303.715716 11.379141 
L 46.363438 11.379141 
z
" style="fill: #ffffff"/>
   </g>
   <g id="matplotlib.axis_1">
    <g id="xtick_1">
     <g id="line2d_1">
      <path d="M 46.363438 184.907645 
L 46.363438 11.379141 
" clip-path="url(#p208ce7b409)" style="fill: none; stroke: #b0b0b0; stroke-width: 0.8; stroke-linecap: square"/>
     </g>
     <g id="line2d_2">
      <defs>
       <path id="m1514f0d9ac" d="M 0 0 
L 0 3.5 
" style="stroke: #000000; stroke-width: 0.8"/>
      </defs>
      <g>
       <use xlink:href="#m1514f0d9ac" x="46.363438" y="184.907645" style="stroke: #000000; stroke-width: 0.8"/>
      </g>
     </g>
     <g id="text_1">
      <!-- 0.000 -->
      <g transform="translate(30.617969 200.265926) scale(0.11 -0.11)">
       <defs>
        <path id="DejaVuSans-30" d="M 2034 4250 
Q 1547 4250 1301 3770 
Q 1056 3291 1056 2328 
Q 1056 1369 1301 889 
Q 1547 409 2034 409 
Q 2525 409 2770 889 
Q 3016 1369 3016 2328 
Q 3016 3291 2770 3770 
Q 2525 4250 2034 4250 
z
M 2034 4750 
Q 2819 4750 3233 4129 
Q 3647 3509 3647 2328 
Q 3647 1150 3233 529 
Q 2819 -91 2034 -91 
Q 1250 -91 836 529 
Q 422 1150 422 2328 
Q 422 3509 836 4129 
Q 1250 4750 2034 4750 
z
" transform="scale(0.015625)"/>
        <path id="DejaVuSans-2e" d="M 684 794 
L 1344 794 
L 1344 0 
L 684 0 
L 684 794 
z
" transform="scale(0.015625)"/>
       </defs>
       <use xlink:href="#DejaVuSans-30"/>
       <use xlink:href="#DejaVuSans-2e" x="63.623047"/>
       <use xlink:href="#DejaVuSans-30" x="95.410156"/>
       <use xlink:href="#DejaVuSans-30" x="159.033203"/>
       <use xlink:href="#DejaVuSans-30" x="222.65625"/>
      </g>
     </g>
    </g>
    <g id="xtick_2">
     <g id="line2d_3">
      <path d="M 97.833893 184.907645 
L 97.833893 11.379141 
" clip-path="url(#p208ce7b409)" style="fill: none; stroke: #b0b0b0; stroke-width: 0.8; stroke-linecap: square"/>
     </g>
     <g id="line2d_4">
      <g>
       <use xlink:href="#m1514f0d9ac" x="97.833893" y="184.907645" style="stroke: #000000; stroke-width: 0.8"/>
      </g>
     </g>
     <g id="text_2">
      <!-- 0.001 -->
      <g transform="translate(82.088424 200.265926) scale(0.11 -0.11)">
       <defs>
        <path id="DejaVuSans-31" d="M 794 531 
L 1825 531 
L 1825 4091 
L 703 3866 
L 703 4441 
L 1819 4666 
L 2450 4666 
L 2450 531 
L 3481 531 
L 3481 0 
L 794 0 
L 794 531 
z
" transform="scale(0.015625)"/>
       </defs>
       <use xlink:href="#DejaVuSans-30"/>
       <use xlink:href="#DejaVuSans-2e" x="63.623047"/>
       <use xlink:href="#DejaVuSans-30" x="95.410156"/>
       <use xlink:href="#DejaVuSans-30" x="159.033203"/>
       <use xlink:href="#DejaVuSans-31" x="222.65625"/>
      </g>
     </g>
    </g>
    <g id="xtick_3">
     <g id="line2d_5">
      <path d="M 149.304349 184.907645 
L 149.304349 11.379141 
" clip-path="url(#p208ce7b409)" style="fill: none; stroke: #b0b0b0; stroke-width: 0.8; stroke-linecap: square"/>
     </g>
     <g id="line2d_6">
      <g>
       <use xlink:href="#m1514f0d9ac" x="149.304349" y="184.907645" style="stroke: #000000; stroke-width: 0.8"/>
      </g>
     </g>
     <g id="text_3">
      <!-- 0.002 -->
      <g transform="translate(133.55888 200.265926) scale(0.11 -0.11)">
       <defs>
        <path id="DejaVuSans-32" d="M 1228 531 
L 3431 531 
L 3431 0 
L 469 0 
L 469 531 
Q 828 903 1448 1529 
Q 2069 2156 2228 2338 
Q 2531 2678 2651 2914 
Q 2772 3150 2772 3378 
Q 2772 3750 2511 3984 
Q 2250 4219 1831 4219 
Q 1534 4219 1204 4116 
Q 875 4013 500 3803 
L 500 4441 
Q 881 4594 1212 4672 
Q 1544 4750 1819 4750 
Q 2544 4750 2975 4387 
Q 3406 4025 3406 3419 
Q 3406 3131 3298 2873 
Q 3191 2616 2906 2266 
Q 2828 2175 2409 1742 
Q 1991 1309 1228 531 
z
" transform="scale(0.015625)"/>
       </defs>
       <use xlink:href="#DejaVuSans-30"/>
       <use xlink:href="#DejaVuSans-2e" x="63.623047"/>
       <use xlink:href="#DejaVuSans-30" x="95.410156"/>
       <use xlink:href="#DejaVuSans-30" x="159.033203"/>
       <use xlink:href="#DejaVuSans-32" x="222.65625"/>
      </g>
     </g>
    </g>
    <g id="xtick_4">
     <g id="line2d_7">
      <path d="M 200.774805 184.907645 
L 200.774805 11.379141 
" clip-path="url(#p208ce7b409)" style="fill: none; stroke: #b0b0b0; stroke-width: 0.8; stroke-linecap: square"/>
     </g>
     <g id="line2d_8">
      <g>
       <use xlink:href="#m1514f0d9ac" x="200.774805" y="184.907645" style="stroke: #000000; stroke-width: 0.8"/>
      </g>
     </g>
     <g id="text_4">
      <!-- 0.003 -->
      <g transform="translate(185.029336 200.265926) scale(0.11 -0.11)">
       <defs>
        <path id="DejaVuSans-33" d="M 2597 2516 
Q 3050 2419 3304 2112 
Q 3559 1806 3559 1356 
Q 3559 666 3084 287 
Q 2609 -91 1734 -91 
Q 1441 -91 1130 -33 
Q 819 25 488 141 
L 488 750 
Q 750 597 1062 519 
Q 1375 441 1716 441 
Q 2309 441 2620 675 
Q 2931 909 2931 1356 
Q 2931 1769 2642 2001 
Q 2353 2234 1838 2234 
L 1294 2234 
L 1294 2753 
L 1863 2753 
Q 2328 2753 2575 2939 
Q 2822 3125 2822 3475 
Q 2822 3834 2567 4026 
Q 2313 4219 1838 4219 
Q 1578 4219 1281 4162 
Q 984 4106 628 3988 
L 628 4550 
Q 988 4650 1302 4700 
Q 1616 4750 1894 4750 
Q 2613 4750 3031 4423 
Q 3450 4097 3450 3541 
Q 3450 3153 3228 2886 
Q 3006 2619 2597 2516 
z
" transform="scale(0.015625)"/>
       </defs>
       <use xlink:href="#DejaVuSans-30"/>
       <use xlink:href="#DejaVuSans-2e" x="63.623047"/>
       <use xlink:href="#DejaVuSans-30" x="95.410156"/>
       <use xlink:href="#DejaVuSans-30" x="159.033203"/>
       <use xlink:href="#DejaVuSans-33" x="222.65625"/>
      </g>
     </g>
    </g>
    <g id="xtick_5">
     <g id="line2d_9">
      <path d="M 252.24526 184.907645 
L 252.24526 11.379141 
" clip-path="url(#p208ce7b409)" style="fill: none; stroke: #b0b0b0; stroke-width: 0.8; stroke-linecap: square"/>
     </g>
     <g id="line2d_10">
      <g>
       <use xlink:href="#m1514f0d9ac" x="252.24526" y="184.907645" style="stroke: #000000; stroke-width: 0.8"/>
      </g>
     </g>
     <g id="text_5">
      <!-- 0.004 -->
      <g transform="translate(236.499791 200.265926) scale(0.11 -0.11)">
       <defs>
        <path id="DejaVuSans-34" d="M 2419 4116 
L 825 1625 
L 2419 1625 
L 2419 4116 
z
M 2253 4666 
L 3047 4666 
L 3047 1625 
L 3713 1625 
L 3713 1100 
L 3047 1100 
L 3047 0 
L 2419 0 
L 2419 1100 
L 313 1100 
L 313 1709 
L 2253 4666 
z
" transform="scale(0.015625)"/>
       </defs>
       <use xlink:href="#DejaVuSans-30"/>
       <use xlink:href="#DejaVuSans-2e" x="63.623047"/>
       <use xlink:href="#DejaVuSans-30" x="95.410156"/>
       <use xlink:href="#DejaVuSans-30" x="159.033203"/>
       <use xlink:href="#DejaVuSans-34" x="222.65625"/>
      </g>
     </g>
    </g>
    <g id="xtick_6">
     <g id="line2d_11">
      <path d="M 303.715716 184.907645 
L 303.715716 11.379141 
" clip-path="url(#p208ce7b409)" style="fill: none; stroke: #b0b0b0; stroke-width: 0.8; stroke-linecap: square"/>
     </g>
     <g id="line2d_12">
      <g>
       <use xlink:href="#m1514f0d9ac" x="303.715716" y="184.907645" style="stroke: #000000; stroke-width: 0.8"/>
      </g>
     </g>
     <g id="text_6">
      <!-- 0.005 -->
      <g transform="translate(287.970247 200.265926) scale(0.11 -0.11)">
       <defs>
        <path id="DejaVuSans-35" d="M 691 4666 
L 3169 4666 
L 3169 4134 
L 1269 4134 
L 1269 2991 
Q 1406 3038 1543 3061 
Q 1681 3084 1819 3084 
Q 2600 3084 3056 2656 
Q 3513 2228 3513 1497 
Q 3513 744 3044 326 
Q 2575 -91 1722 -91 
Q 1428 -91 1123 -41 
Q 819 9 494 109 
L 494 744 
Q 775 591 1075 516 
Q 1375 441 1709 441 
Q 2250 441 2565 725 
Q 2881 1009 2881 1497 
Q 2881 1984 2565 2268 
Q 2250 2553 1709 2553 
Q 1456 2553 1204 2497 
Q 953 2441 691 2322 
L 691 4666 
z
" transform="scale(0.015625)"/>
       </defs>
       <use xlink:href="#DejaVuSans-30"/>
       <use xlink:href="#DejaVuSans-2e" x="63.623047"/>
       <use xlink:href="#DejaVuSans-30" x="95.410156"/>
       <use xlink:href="#DejaVuSans-30" x="159.033203"/>
       <use xlink:href="#DejaVuSans-35" x="222.65625"/>
      </g>
     </g>
    </g>
    <g id="text_7">
     <!-- z -->
     <g transform="translate(172.152936 214.911864) scale(0.11 -0.11)">
      <defs>
       <path id="DejaVuSans-7a" d="M 353 3500 
L 3084 3500 
L 3084 2975 
L 922 459 
L 3084 459 
L 3084 0 
L 275 0 
L 275 525 
L 2438 3041 
L 353 3041 
L 353 3500 
z
" transform="scale(0.015625)"/>
      </defs>
      <use xlink:href="#DejaVuSans-7a"/>
     </g>
    </g>
   </g>
   <g id="matplotlib.axis_2">
    <g id="ytick_1">
     <g id="line2d_13">
      <path d="M 46.363438 184.907645 
L 303.715716 184.907645 
" clip-path="url(#p208ce7b409)" style="fill: none; stroke: #b0b0b0; stroke-width: 0.8; stroke-linecap: square"/>
     </g>
     <g id="line2d_14">
      <defs>
       <path id="mc06499dbcc" d="M 0 0 
L -3.5 0 
" style="stroke: #000000; stroke-width: 0.8"/>
      </defs>
      <g>
       <use xlink:href="#mc06499dbcc" x="46.363438" y="184.907645" style="stroke: #000000; stroke-width: 0.8"/>
      </g>
     </g>
     <g id="text_8">
      <!-- 0.0 -->
      <g transform="translate(21.87 189.086786) scale(0.11 -0.11)">
       <use xlink:href="#DejaVuSans-30"/>
       <use xlink:href="#DejaVuSans-2e" x="63.623047"/>
       <use xlink:href="#DejaVuSans-30" x="95.410156"/>
      </g>
     </g>
    </g>
    <g id="ytick_2">
     <g id="line2d_15">
      <path d="M 46.363438 155.986228 
L 303.715716 155.986228 
" clip-path="url(#p208ce7b409)" style="fill: none; stroke: #b0b0b0; stroke-width: 0.8; stroke-linecap: square"/>
     </g>
     <g id="line2d_16">
      <g>
       <use xlink:href="#mc06499dbcc" x="46.363438" y="155.986228" style="stroke: #000000; stroke-width: 0.8"/>
      </g>
     </g>
     <g id="text_9">
      <!-- 0.1 -->
      <g transform="translate(21.87 160.165368) scale(0.11 -0.11)">
       <use xlink:href="#DejaVuSans-30"/>
       <use xlink:href="#DejaVuSans-2e" x="63.623047"/>
       <use xlink:href="#DejaVuSans-31" x="95.410156"/>
      </g>
     </g>
    </g>
    <g id="ytick_3">
     <g id="line2d_17">
      <path d="M 46.363438 127.06481 
L 303.715716 127.06481 
" clip-path="url(#p208ce7b409)" style="fill: none; stroke: #b0b0b0; stroke-width: 0.8; stroke-linecap: square"/>
     </g>
     <g id="line2d_18">
      <g>
       <use xlink:href="#mc06499dbcc" x="46.363438" y="127.06481" style="stroke: #000000; stroke-width: 0.8"/>
      </g>
     </g>
     <g id="text_10">
      <!-- 0.2 -->
      <g transform="translate(21.87 131.243951) scale(0.11 -0.11)">
       <use xlink:href="#DejaVuSans-30"/>
       <use xlink:href="#DejaVuSans-2e" x="63.623047"/>
       <use xlink:href="#DejaVuSans-32" x="95.410156"/>
      </g>
     </g>
    </g>
    <g id="ytick_4">
     <g id="line2d_19">
      <path d="M 46.363438 98.143393 
L 303.715716 98.143393 
" clip-path="url(#p208ce7b409)" style="fill: none; stroke: #b0b0b0; stroke-width: 0.8; stroke-linecap: square"/>
     </g>
     <g id="line2d_20">
      <g>
       <use xlink:href="#mc06499dbcc" x="46.363438" y="98.143393" style="stroke: #000000; stroke-width: 0.8"/>
      </g>
     </g>
     <g id="text_11">
      <!-- 0.3 -->
      <g transform="translate(21.87 102.322533) scale(0.11 -0.11)">
       <use xlink:href="#DejaVuSans-30"/>
       <use xlink:href="#DejaVuSans-2e" x="63.623047"/>
       <use xlink:href="#DejaVuSans-33" x="95.410156"/>
      </g>
     </g>
    </g>
    <g id="ytick_5">
     <g id="line2d_21">
      <path d="M 46.363438 69.221975 
L 303.715716 69.221975 
" clip-path="url(#p208ce7b409)" style="fill: none; stroke: #b0b0b0; stroke-width: 0.8; stroke-linecap: square"/>
     </g>
     <g id="line2d_22">
      <g>
       <use xlink:href="#mc06499dbcc" x="46.363438" y="69.221975" style="stroke: #000000; stroke-width: 0.8"/>
      </g>
     </g>
     <g id="text_12">
      <!-- 0.4 -->
      <g transform="translate(21.87 73.401116) scale(0.11 -0.11)">
       <use xlink:href="#DejaVuSans-30"/>
       <use xlink:href="#DejaVuSans-2e" x="63.623047"/>
       <use xlink:href="#DejaVuSans-34" x="95.410156"/>
      </g>
     </g>
    </g>
    <g id="ytick_6">
     <g id="line2d_23">
      <path d="M 46.363438 40.300558 
L 303.715716 40.300558 
" clip-path="url(#p208ce7b409)" style="fill: none; stroke: #b0b0b0; stroke-width: 0.8; stroke-linecap: square"/>
     </g>
     <g id="line2d_24">
      <g>
       <use xlink:href="#mc06499dbcc" x="46.363438" y="40.300558" style="stroke: #000000; stroke-width: 0.8"/>
      </g>
     </g>
     <g id="text_13">
      <!-- 0.5 -->
      <g transform="translate(21.87 44.479699) scale(0.11 -0.11)">
       <use xlink:href="#DejaVuSans-30"/>
       <use xlink:href="#DejaVuSans-2e" x="63.623047"/>
       <use xlink:href="#DejaVuSans-35" x="95.410156"/>
      </g>
     </g>
    </g>
    <g id="ytick_7">
     <g id="line2d_25">
      <path d="M 46.363438 11.379141 
L 303.715716 11.379141 
" clip-path="url(#p208ce7b409)" style="fill: none; stroke: #b0b0b0; stroke-width: 0.8; stroke-linecap: square"/>
     </g>
     <g id="line2d_26">
      <g>
       <use xlink:href="#mc06499dbcc" x="46.363438" y="11.379141" style="stroke: #000000; stroke-width: 0.8"/>
      </g>
     </g>
     <g id="text_14">
      <!-- 0.6 -->
      <g transform="translate(21.87 15.558281) scale(0.11 -0.11)">
       <defs>
        <path id="DejaVuSans-36" d="M 2113 2584 
Q 1688 2584 1439 2293 
Q 1191 2003 1191 1497 
Q 1191 994 1439 701 
Q 1688 409 2113 409 
Q 2538 409 2786 701 
Q 3034 994 3034 1497 
Q 3034 2003 2786 2293 
Q 2538 2584 2113 2584 
z
M 3366 4563 
L 3366 3988 
Q 3128 4100 2886 4159 
Q 2644 4219 2406 4219 
Q 1781 4219 1451 3797 
Q 1122 3375 1075 2522 
Q 1259 2794 1537 2939 
Q 1816 3084 2150 3084 
Q 2853 3084 3261 2657 
Q 3669 2231 3669 1497 
Q 3669 778 3244 343 
Q 2819 -91 2113 -91 
Q 1303 -91 875 529 
Q 447 1150 447 2328 
Q 447 3434 972 4092 
Q 1497 4750 2381 4750 
Q 2619 4750 2861 4703 
Q 3103 4656 3366 4563 
z
" transform="scale(0.015625)"/>
       </defs>
       <use xlink:href="#DejaVuSans-30"/>
       <use xlink:href="#DejaVuSans-2e" x="63.623047"/>
       <use xlink:href="#DejaVuSans-36" x="95.410156"/>
      </g>
     </g>
    </g>
    <g id="text_15">
     <!-- $\xi$ -->
     <g transform="translate(15.56 101.223393) rotate(-90) scale(0.11 -0.11)">
      <defs>
       <path id="DejaVuSans-Oblique-3be" d="M 2016 397 
Q 2428 394 2628 159 
Q 2844 -88 2772 -463 
Q 2700 -822 2422 -1072 
Q 2119 -1344 1609 -1344 
Q 1656 -1109 1700 -872 
Q 1913 -888 2072 -750 
Q 2194 -641 2216 -525 
Q 2247 -359 2175 -222 
Q 2100 -91 1922 -91 
Q -25 -91 241 1275 
Q 422 2213 1516 2488 
Q 663 2600 822 3413 
Q 941 4028 1678 4284 
L 1028 4284 
L 1141 4863 
L 3606 4863 
L 3494 4284 
Q 1528 4284 1350 3375 
Q 1234 2778 2881 2750 
L 2778 2219 
Q 1009 2288 819 1275 
Q 659 428 2016 397 
z
" transform="scale(0.015625)"/>
      </defs>
      <use xlink:href="#DejaVuSans-Oblique-3be" transform="translate(0 0.015625)"/>
     </g>
    </g>
   </g>
   <g id="line2d_27">
    <path d="M 46.363438 184.882431 
L 55.895003 182.986311 
L 65.426569 179.006886 
L 74.958135 173.608583 
L 84.489701 167.192513 
L 94.021267 160.052323 
L 103.552833 152.402519 
L 113.084399 144.414794 
L 122.615964 136.236069 
L 132.14753 127.98903 
L 141.679096 119.778078 
L 151.210662 111.693003 
L 160.742228 103.81161 
L 170.273794 96.201678 
L 179.80536 88.922458 
L 189.336925 82.025842 
L 198.868491 75.557293 
L 208.400057 69.556593 
L 217.931623 64.058455 
L 227.463189 59.093021 
L 236.994755 54.686282 
L 246.526321 50.860433 
L 256.057887 47.634185 
L 265.589452 45.023042 
L 275.121018 43.039583 
L 284.652584 41.693772 
L 294.18415 40.992031 
L 303.715716 40.992031 
" clip-path="url(#p208ce7b409)" style="fill: none; stroke: #1f77b4; stroke-width: 1.5; stroke-linecap: square"/>
   </g>
   <g id="line2d_28">
    <path d="M 46.363438 184.882431 
L 55.895003 182.650113 
L 65.426569 178.045997 
L 74.958135 171.875269 
L 84.489701 168.354761 
L 94.021267 160.664966 
L 103.552833 152.340554 
L 113.084399 143.605975 
L 122.615964 134.642777 
L 132.14753 125.601164 
L 141.679096 116.607419 
L 151.210662 112.162694 
L 160.742228 103.437262 
L 170.273794 95.000455 
L 179.80536 86.926278 
L 189.336925 79.278957 
L 198.868491 72.114302 
L 208.400057 65.480788 
L 217.931623 62.376568 
L 227.463189 56.616689 
L 236.994755 51.482286 
L 246.526321 47.001905 
L 256.057887 43.199514 
L 265.589452 40.094847 
L 275.121018 37.703719 
L 284.652584 36.779683 
L 294.18415 35.480836 
L 303.715716 34.921053 
" clip-path="url(#p208ce7b409)" style="fill: none; stroke: #ff7f0e; stroke-width: 1.5; stroke-linecap: square"/>
   </g>
   <g id="line2d_29">
    <path d="M 46.363438 184.882431 
L 55.895003 182.489781 
L 65.426569 179.100097 
L 74.958135 173.276485 
L 84.489701 168.229059 
L 94.021267 160.896244 
L 103.552833 155.095244 
L 113.084399 147.129113 
L 122.615964 139.050744 
L 132.14753 132.999582 
L 141.679096 125.02987 
L 151.210662 119.176868 
L 160.742228 111.600969 
L 170.273794 106.12621 
L 179.80536 99.147914 
L 189.336925 92.580679 
L 198.868491 87.94942 
L 208.400057 82.194111 
L 217.931623 78.208364 
L 227.463189 73.354699 
L 236.994755 70.071291 
L 246.526321 66.183093 
L 256.057887 62.867581 
L 265.589452 60.763921 
L 275.121018 58.477797 
L 284.652584 57.157569 
L 294.18415 55.932575 
L 303.715716 55.426186 
" clip-path="url(#p208ce7b409)" style="fill: none; stroke: #2ca02c; stroke-width: 1.5; stroke-linecap: square"/>
   </g>
   <g id="line2d_30">
    <path d="M 46.363438 184.882431 
L 55.895003 183.091545 
L 65.426569 179.590435 
L 74.958135 175.048585 
L 84.489701 169.038344 
L 94.021267 163.322195 
L 103.552833 157.351611 
L 113.084399 151.24881 
L 122.615964 145.10868 
L 132.14753 139.006352 
L 141.679096 133.002288 
L 151.210662 126.323626 
L 160.742228 120.68479 
L 170.273794 115.272836 
L 179.80536 110.114121 
L 189.336925 105.231875 
L 198.868491 100.645036 
L 208.400057 96.369981 
L 217.931623 91.88291 
L 227.463189 88.317884 
L 236.994755 85.09922 
L 246.526321 82.234015 
L 256.057887 79.727916 
L 265.589452 77.585438 
L 275.121018 75.810449 
L 284.652584 74.237242 
L 294.18415 73.266617 
L 303.715716 72.690616 
" clip-path="url(#p208ce7b409)" style="fill: none; stroke: #d62728; stroke-width: 1.5; stroke-linecap: square"/>
   </g>
   <g id="line2d_31">
    <path d="M 46.363438 184.882431 
L 55.895003 183.11755 
L 65.426569 179.389975 
L 74.958135 174.878283 
L 84.489701 169.722542 
L 94.021267 164.149745 
L 103.552833 157.900623 
L 113.084399 151.937054 
L 122.615964 145.942569 
L 132.14753 139.568656 
L 141.679096 133.727073 
L 151.210662 128.037473 
L 160.742228 122.538276 
L 170.273794 116.893358 
L 179.80536 111.882852 
L 189.336925 107.143374 
L 198.868491 102.385971 
L 208.400057 98.260075 
L 217.931623 94.449566 
L 227.463189 90.963657 
L 236.994755 87.597369 
L 246.526321 84.805339 
L 256.057887 82.355432 
L 265.589452 80.113977 
L 275.121018 78.383225 
L 284.652584 77.005721 
L 294.18415 75.989317 
L 303.715716 75.320158 
" clip-path="url(#p208ce7b409)" style="fill: none; stroke: #9467bd; stroke-width: 1.5; stroke-linecap: square"/>
   </g>
   <g id="line2d_32">
    <path d="M 46.363438 184.882431 
L 55.895003 183.009677 
L 65.426569 179.515137 
L 74.958135 174.844159 
L 84.489701 169.672569 
L 94.021267 163.874901 
L 103.552833 158.017145 
L 113.084399 151.811161 
L 122.615964 145.56575 
L 132.14753 139.574638 
L 141.679096 133.473099 
L 151.210662 127.730961 
L 160.742228 121.980057 
L 170.273794 116.650104 
L 179.80536 111.38905 
L 189.336925 106.415937 
L 198.868491 101.906649 
L 208.400057 97.555486 
L 217.931623 93.675481 
L 227.463189 90.00067 
L 236.994755 86.793215 
L 246.526321 83.831448 
L 256.057887 81.242403 
L 265.589452 79.101229 
L 275.121018 77.259771 
L 284.652584 75.850309 
L 294.18415 74.780428 
L 303.715716 74.138537 
" clip-path="url(#p208ce7b409)" style="fill: none; stroke: #8c564b; stroke-width: 1.5; stroke-linecap: square"/>
   </g>
   <g id="line2d_33">
    <path d="M 46.363438 184.882431 
L 55.895003 183.018159 
L 65.426569 179.503941 
L 74.958135 174.832512 
L 84.489701 169.465137 
L 94.021267 163.651212 
L 103.552833 157.739655 
L 113.084399 151.522619 
L 122.615964 145.268684 
L 132.14753 139.22993 
L 141.679096 133.124498 
L 151.210662 127.178285 
L 160.742228 121.434067 
L 170.273794 116.076378 
L 179.80536 110.827335 
L 189.336925 105.867382 
L 198.868491 101.341139 
L 208.400057 97.005879 
L 217.931623 93.00867 
L 227.463189 89.360384 
L 236.994755 86.156276 
L 246.526321 83.220063 
L 256.057887 80.653817 
L 265.589452 78.517757 
L 275.121018 76.693566 
L 284.652584 75.251636 
L 294.18415 74.198233 
L 303.715716 73.559004 
" clip-path="url(#p208ce7b409)" style="fill: none; stroke: #e377c2; stroke-width: 1.5; stroke-linecap: square"/>
   </g>
   <g id="patch_3">
    <path d="M 46.363438 184.907645 
L 46.363438 11.379141 
" style="fill: none; stroke: #000000; stroke-width: 0.8; stroke-linejoin: miter; stroke-linecap: square"/>
   </g>
   <g id="patch_4">
    <path d="M 303.715716 184.907645 
L 303.715716 11.379141 
" style="fill: none; stroke: #000000; stroke-width: 0.8; stroke-linejoin: miter; stroke-linecap: square"/>
   </g>
   <g id="patch_5">
    <path d="M 46.363438 184.907645 
L 303.715716 184.907645 
" style="fill: none; stroke: #000000; stroke-width: 0.8; stroke-linejoin: miter; stroke-linecap: square"/>
   </g>
   <g id="patch_6">
    <path d="M 46.363438 11.379141 
L 303.715716 11.379141 
" style="fill: none; stroke: #000000; stroke-width: 0.8; stroke-linejoin: miter; stroke-linecap: square"/>
   </g>
   <g id="legend_1">
    <g id="patch_7">
     <path d="M 324.28333 133.200703 
L 431.20333 133.200703 
Q 433.40333 133.200703 433.40333 131.000703 
L 433.40333 19.079141 
Q 433.40333 16.879141 431.20333 16.879141 
L 324.28333 16.879141 
Q 322.08333 16.879141 322.08333 19.079141 
L 322.08333 131.000703 
Q 322.08333 133.200703 324.28333 133.200703 
z
" style="fill: #ffffff; opacity: 0.8; stroke: #cccccc; stroke-linejoin: miter"/>
    </g>
    <g id="line2d_34">
     <path d="M 326.48333 25.787422 
L 337.48333 25.787422 
L 348.48333 25.787422 
" style="fill: none; stroke: #1f77b4; stroke-width: 1.5; stroke-linecap: square"/>
    </g>
    <g id="text_16">
     <!--  $\Delta z$ = 1/28 -->
     <g transform="translate(357.28333 29.637422) scale(0.11 -0.11)">
      <defs>
       <path id="DejaVuSans-20" transform="scale(0.015625)"/>
       <path id="DejaVuSans-394" d="M 2188 4044 
L 906 525 
L 3472 525 
L 2188 4044 
z
M 50 0 
L 1831 4666 
L 2547 4666 
L 4325 0 
L 50 0 
z
" transform="scale(0.015625)"/>
       <path id="DejaVuSans-Oblique-7a" d="M 744 3500 
L 3475 3500 
L 3372 2975 
L 738 459 
L 2913 459 
L 2822 0 
L -19 0 
L 84 525 
L 2719 3041 
L 653 3041 
L 744 3500 
z
" transform="scale(0.015625)"/>
       <path id="DejaVuSans-3d" d="M 678 2906 
L 4684 2906 
L 4684 2381 
L 678 2381 
L 678 2906 
z
M 678 1631 
L 4684 1631 
L 4684 1100 
L 678 1100 
L 678 1631 
z
" transform="scale(0.015625)"/>
       <path id="DejaVuSans-2f" d="M 1625 4666 
L 2156 4666 
L 531 -594 
L 0 -594 
L 1625 4666 
z
" transform="scale(0.015625)"/>
       <path id="DejaVuSans-38" d="M 2034 2216 
Q 1584 2216 1326 1975 
Q 1069 1734 1069 1313 
Q 1069 891 1326 650 
Q 1584 409 2034 409 
Q 2484 409 2743 651 
Q 3003 894 3003 1313 
Q 3003 1734 2745 1975 
Q 2488 2216 2034 2216 
z
M 1403 2484 
Q 997 2584 770 2862 
Q 544 3141 544 3541 
Q 544 4100 942 4425 
Q 1341 4750 2034 4750 
Q 2731 4750 3128 4425 
Q 3525 4100 3525 3541 
Q 3525 3141 3298 2862 
Q 3072 2584 2669 2484 
Q 3125 2378 3379 2068 
Q 3634 1759 3634 1313 
Q 3634 634 3220 271 
Q 2806 -91 2034 -91 
Q 1263 -91 848 271 
Q 434 634 434 1313 
Q 434 1759 690 2068 
Q 947 2378 1403 2484 
z
M 1172 3481 
Q 1172 3119 1398 2916 
Q 1625 2713 2034 2713 
Q 2441 2713 2670 2916 
Q 2900 3119 2900 3481 
Q 2900 3844 2670 4047 
Q 2441 4250 2034 4250 
Q 1625 4250 1398 4047 
Q 1172 3844 1172 3481 
z
" transform="scale(0.015625)"/>
      </defs>
      <use xlink:href="#DejaVuSans-20" transform="translate(0 0.78125)"/>
      <use xlink:href="#DejaVuSans-394" transform="translate(31.787109 0.78125)"/>
      <use xlink:href="#DejaVuSans-Oblique-7a" transform="translate(100.195312 0.78125)"/>
      <use xlink:href="#DejaVuSans-20" transform="translate(152.685547 0.78125)"/>
      <use xlink:href="#DejaVuSans-3d" transform="translate(184.472656 0.78125)"/>
      <use xlink:href="#DejaVuSans-20" transform="translate(268.261719 0.78125)"/>
      <use xlink:href="#DejaVuSans-31" transform="translate(300.048828 0.78125)"/>
      <use xlink:href="#DejaVuSans-2f" transform="translate(363.671875 0.78125)"/>
      <use xlink:href="#DejaVuSans-32" transform="translate(393.738281 0.78125)"/>
      <use xlink:href="#DejaVuSans-38" transform="translate(457.361328 0.78125)"/>
     </g>
    </g>
    <g id="line2d_35">
     <path d="M 326.48333 41.933359 
L 337.48333 41.933359 
L 348.48333 41.933359 
" style="fill: none; stroke: #ff7f0e; stroke-width: 1.5; stroke-linecap: square"/>
    </g>
    <g id="text_17">
     <!--  $\Delta z$ = 1/52 -->
     <g transform="translate(357.28333 45.783359) scale(0.11 -0.11)">
      <use xlink:href="#DejaVuSans-20" transform="translate(0 0.78125)"/>
      <use xlink:href="#DejaVuSans-394" transform="translate(31.787109 0.78125)"/>
      <use xlink:href="#DejaVuSans-Oblique-7a" transform="translate(100.195312 0.78125)"/>
      <use xlink:href="#DejaVuSans-20" transform="translate(152.685547 0.78125)"/>
      <use xlink:href="#DejaVuSans-3d" transform="translate(184.472656 0.78125)"/>
      <use xlink:href="#DejaVuSans-20" transform="translate(268.261719 0.78125)"/>
      <use xlink:href="#DejaVuSans-31" transform="translate(300.048828 0.78125)"/>
      <use xlink:href="#DejaVuSans-2f" transform="translate(363.671875 0.78125)"/>
      <use xlink:href="#DejaVuSans-35" transform="translate(397.363281 0.78125)"/>
      <use xlink:href="#DejaVuSans-32" transform="translate(460.986328 0.78125)"/>
     </g>
    </g>
    <g id="line2d_36">
     <path d="M 326.48333 58.079297 
L 337.48333 58.079297 
L 348.48333 58.079297 
" style="fill: none; stroke: #2ca02c; stroke-width: 1.5; stroke-linecap: square"/>
    </g>
    <g id="text_18">
     <!--  $\Delta z$ = 1/100 -->
     <g transform="translate(357.28333 61.929297) scale(0.11 -0.11)">
      <use xlink:href="#DejaVuSans-20" transform="translate(0 0.78125)"/>
      <use xlink:href="#DejaVuSans-394" transform="translate(31.787109 0.78125)"/>
      <use xlink:href="#DejaVuSans-Oblique-7a" transform="translate(100.195312 0.78125)"/>
      <use xlink:href="#DejaVuSans-20" transform="translate(152.685547 0.78125)"/>
      <use xlink:href="#DejaVuSans-3d" transform="translate(184.472656 0.78125)"/>
      <use xlink:href="#DejaVuSans-20" transform="translate(268.261719 0.78125)"/>
      <use xlink:href="#DejaVuSans-31" transform="translate(300.048828 0.78125)"/>
      <use xlink:href="#DejaVuSans-2f" transform="translate(363.671875 0.78125)"/>
      <use xlink:href="#DejaVuSans-31" transform="translate(397.363281 0.78125)"/>
      <use xlink:href="#DejaVuSans-30" transform="translate(460.986328 0.78125)"/>
      <use xlink:href="#DejaVuSans-30" transform="translate(524.609375 0.78125)"/>
     </g>
    </g>
    <g id="line2d_37">
     <path d="M 326.48333 74.225234 
L 337.48333 74.225234 
L 348.48333 74.225234 
" style="fill: none; stroke: #d62728; stroke-width: 1.5; stroke-linecap: square"/>
    </g>
    <g id="text_19">
     <!--  $\Delta z$ = 1/200 -->
     <g transform="translate(357.28333 78.075234) scale(0.11 -0.11)">
      <use xlink:href="#DejaVuSans-20" transform="translate(0 0.78125)"/>
      <use xlink:href="#DejaVuSans-394" transform="translate(31.787109 0.78125)"/>
      <use xlink:href="#DejaVuSans-Oblique-7a" transform="translate(100.195312 0.78125)"/>
      <use xlink:href="#DejaVuSans-20" transform="translate(152.685547 0.78125)"/>
      <use xlink:href="#DejaVuSans-3d" transform="translate(184.472656 0.78125)"/>
      <use xlink:href="#DejaVuSans-20" transform="translate(268.261719 0.78125)"/>
      <use xlink:href="#DejaVuSans-31" transform="translate(300.048828 0.78125)"/>
      <use xlink:href="#DejaVuSans-2f" transform="translate(363.671875 0.78125)"/>
      <use xlink:href="#DejaVuSans-32" transform="translate(393.738281 0.78125)"/>
      <use xlink:href="#DejaVuSans-30" transform="translate(457.361328 0.78125)"/>
      <use xlink:href="#DejaVuSans-30" transform="translate(520.984375 0.78125)"/>
     </g>
    </g>
    <g id="line2d_38">
     <path d="M 326.48333 90.371172 
L 337.48333 90.371172 
L 348.48333 90.371172 
" style="fill: none; stroke: #9467bd; stroke-width: 1.5; stroke-linecap: square"/>
    </g>
    <g id="text_20">
     <!--  $\Delta z$ = 1/400 -->
     <g transform="translate(357.28333 94.221172) scale(0.11 -0.11)">
      <use xlink:href="#DejaVuSans-20" transform="translate(0 0.78125)"/>
      <use xlink:href="#DejaVuSans-394" transform="translate(31.787109 0.78125)"/>
      <use xlink:href="#DejaVuSans-Oblique-7a" transform="translate(100.195312 0.78125)"/>
      <use xlink:href="#DejaVuSans-20" transform="translate(152.685547 0.78125)"/>
      <use xlink:href="#DejaVuSans-3d" transform="translate(184.472656 0.78125)"/>
      <use xlink:href="#DejaVuSans-20" transform="translate(268.261719 0.78125)"/>
      <use xlink:href="#DejaVuSans-31" transform="translate(300.048828 0.78125)"/>
      <use xlink:href="#DejaVuSans-2f" transform="translate(363.671875 0.78125)"/>
      <use xlink:href="#DejaVuSans-34" transform="translate(397.363281 0.78125)"/>
      <use xlink:href="#DejaVuSans-30" transform="translate(460.986328 0.78125)"/>
      <use xlink:href="#DejaVuSans-30" transform="translate(524.609375 0.78125)"/>
     </g>
    </g>
    <g id="line2d_39">
     <path d="M 326.48333 106.517109 
L 337.48333 106.517109 
L 348.48333 106.517109 
" style="fill: none; stroke: #8c564b; stroke-width: 1.5; stroke-linecap: square"/>
    </g>
    <g id="text_21">
     <!--  $\Delta z$ = 1/800 -->
     <g transform="translate(357.28333 110.367109) scale(0.11 -0.11)">
      <use xlink:href="#DejaVuSans-20" transform="translate(0 0.78125)"/>
      <use xlink:href="#DejaVuSans-394" transform="translate(31.787109 0.78125)"/>
      <use xlink:href="#DejaVuSans-Oblique-7a" transform="translate(100.195312 0.78125)"/>
      <use xlink:href="#DejaVuSans-20" transform="translate(152.685547 0.78125)"/>
      <use xlink:href="#DejaVuSans-3d" transform="translate(184.472656 0.78125)"/>
      <use xlink:href="#DejaVuSans-20" transform="translate(268.261719 0.78125)"/>
      <use xlink:href="#DejaVuSans-31" transform="translate(300.048828 0.78125)"/>
      <use xlink:href="#DejaVuSans-2f" transform="translate(363.671875 0.78125)"/>
      <use xlink:href="#DejaVuSans-38" transform="translate(392.363281 0.78125)"/>
      <use xlink:href="#DejaVuSans-30" transform="translate(455.986328 0.78125)"/>
      <use xlink:href="#DejaVuSans-30" transform="translate(519.609375 0.78125)"/>
     </g>
    </g>
    <g id="line2d_40">
     <path d="M 326.48333 122.663047 
L 337.48333 122.663047 
L 348.48333 122.663047 
" style="fill: none; stroke: #e377c2; stroke-width: 1.5; stroke-linecap: square"/>
    </g>
    <g id="text_22">
     <!--  $\Delta z$ = 1/1000 -->
     <g transform="translate(357.28333 126.513047) scale(0.11 -0.11)">
      <use xlink:href="#DejaVuSans-20" transform="translate(0 0.78125)"/>
      <use xlink:href="#DejaVuSans-394" transform="translate(31.787109 0.78125)"/>
      <use xlink:href="#DejaVuSans-Oblique-7a" transform="translate(100.195312 0.78125)"/>
      <use xlink:href="#DejaVuSans-20" transform="translate(152.685547 0.78125)"/>
      <use xlink:href="#DejaVuSans-3d" transform="translate(184.472656 0.78125)"/>
      <use xlink:href="#DejaVuSans-20" transform="translate(268.261719 0.78125)"/>
      <use xlink:href="#DejaVuSans-31" transform="translate(300.048828 0.78125)"/>
      <use xlink:href="#DejaVuSans-2f" transform="translate(363.671875 0.78125)"/>
      <use xlink:href="#DejaVuSans-31" transform="translate(397.363281 0.78125)"/>
      <use xlink:href="#DejaVuSans-30" transform="translate(460.986328 0.78125)"/>
      <use xlink:href="#DejaVuSans-30" transform="translate(524.609375 0.78125)"/>
      <use xlink:href="#DejaVuSans-30" transform="translate(588.232422 0.78125)"/>
     </g>
    </g>
   </g>
  </g>
 </g>
 <defs>
  <clipPath id="p208ce7b409">
   <rect x="46.363438" y="11.379141" width="257.352278" height="173.528504"/>
  </clipPath>
 </defs>
</svg>
