<?xml version="1.0" encoding="utf-8" standalone="no"?>
<!DOCTYPE svg PUBLIC "-//W3C//DTD SVG 1.1//EN"
  "http://www.w3.org/Graphics/SVG/1.1/DTD/svg11.dtd">
<svg xmlns:xlink="http://www.w3.org/1999/xlink" width="440.234834pt" height="224.39952pt" viewBox="0 0 440.234834 224.39952" xmlns="http://www.w3.org/2000/svg" version="1.1">
 <metadata>
  <rdf:RDF xmlns:dc="http://purl.org/dc/elements/1.1/" xmlns:cc="http://creativecommons.org/ns#" xmlns:rdf="http://www.w3.org/1999/02/22-rdf-syntax-ns#">
   <cc:Work>
    <dc:type rdf:resource="http://purl.org/dc/dcmitype/StillImage"/>
    <dc:date>2023-07-10T13:39:59.884413</dc:date>
    <dc:format>image/svg+xml</dc:format>
    <dc:creator>
     <cc:Agent>
      <dc:title>Matplotlib v3.7.1, https://matplotlib.org/</dc:title>
     </cc:Agent>
    </dc:creator>
   </cc:Work>
  </rdf:RDF>
 </metadata>
 <defs>
  <style type="text/css">*{stroke-linejoin: round; stroke-linecap: butt}</style>
 </defs>
 <g id="figure_1">
  <g id="patch_1">
   <path d="M 0 224.39952 
L 440.234834 224.39952 
L 440.234834 0 
L 0 0 
z
" style="fill: #ffffff"/>
  </g>
  <g id="axes_1">
   <g id="patch_2">
    <path d="M 60.360937 184.907645 
L 317.766583 184.907645 
L 317.766583 7.2 
L 60.360937 7.2 
z
" style="fill: #ffffff"/>
   </g>
   <g id="matplotlib.axis_1">
    <g id="xtick_1">
     <g id="line2d_1">
      <path d="M 60.360937 184.907645 
L 60.360937 7.2 
" clip-path="url(#p157766cb94)" style="fill: none; stroke: #b0b0b0; stroke-width: 0.8; stroke-linecap: square"/>
     </g>
     <g id="line2d_2">
      <defs>
       <path id="m02bebccdf5" d="M 0 0 
L 0 3.5 
" style="stroke: #000000; stroke-width: 0.8"/>
      </defs>
      <g>
       <use xlink:href="#m02bebccdf5" x="60.360937" y="184.907645" style="stroke: #000000; stroke-width: 0.8"/>
      </g>
     </g>
     <g id="text_1">
      <!-- 0.000 -->
      <g transform="translate(44.615469 200.265926) scale(0.11 -0.11)">
       <defs>
        <path id="DejaVuSans-30" d="M 2034 4250 
Q 1547 4250 1301 3770 
Q 1056 3291 1056 2328 
Q 1056 1369 1301 889 
Q 1547 409 2034 409 
Q 2525 409 2770 889 
Q 3016 1369 3016 2328 
Q 3016 3291 2770 3770 
Q 2525 4250 2034 4250 
z
M 2034 4750 
Q 2819 4750 3233 4129 
Q 3647 3509 3647 2328 
Q 3647 1150 3233 529 
Q 2819 -91 2034 -91 
Q 1250 -91 836 529 
Q 422 1150 422 2328 
Q 422 3509 836 4129 
Q 1250 4750 2034 4750 
z
" transform="scale(0.015625)"/>
        <path id="DejaVuSans-2e" d="M 684 794 
L 1344 794 
L 1344 0 
L 684 0 
L 684 794 
z
" transform="scale(0.015625)"/>
       </defs>
       <use xlink:href="#DejaVuSans-30"/>
       <use xlink:href="#DejaVuSans-2e" x="63.623047"/>
       <use xlink:href="#DejaVuSans-30" x="95.410156"/>
       <use xlink:href="#DejaVuSans-30" x="159.033203"/>
       <use xlink:href="#DejaVuSans-30" x="222.65625"/>
      </g>
     </g>
    </g>
    <g id="xtick_2">
     <g id="line2d_3">
      <path d="M 111.842067 184.907645 
L 111.842067 7.2 
" clip-path="url(#p157766cb94)" style="fill: none; stroke: #b0b0b0; stroke-width: 0.8; stroke-linecap: square"/>
     </g>
     <g id="line2d_4">
      <g>
       <use xlink:href="#m02bebccdf5" x="111.842067" y="184.907645" style="stroke: #000000; stroke-width: 0.8"/>
      </g>
     </g>
     <g id="text_2">
      <!-- 0.001 -->
      <g transform="translate(96.096598 200.265926) scale(0.11 -0.11)">
       <defs>
        <path id="DejaVuSans-31" d="M 794 531 
L 1825 531 
L 1825 4091 
L 703 3866 
L 703 4441 
L 1819 4666 
L 2450 4666 
L 2450 531 
L 3481 531 
L 3481 0 
L 794 0 
L 794 531 
z
" transform="scale(0.015625)"/>
       </defs>
       <use xlink:href="#DejaVuSans-30"/>
       <use xlink:href="#DejaVuSans-2e" x="63.623047"/>
       <use xlink:href="#DejaVuSans-30" x="95.410156"/>
       <use xlink:href="#DejaVuSans-30" x="159.033203"/>
       <use xlink:href="#DejaVuSans-31" x="222.65625"/>
      </g>
     </g>
    </g>
    <g id="xtick_3">
     <g id="line2d_5">
      <path d="M 163.323196 184.907645 
L 163.323196 7.2 
" clip-path="url(#p157766cb94)" style="fill: none; stroke: #b0b0b0; stroke-width: 0.8; stroke-linecap: square"/>
     </g>
     <g id="line2d_6">
      <g>
       <use xlink:href="#m02bebccdf5" x="163.323196" y="184.907645" style="stroke: #000000; stroke-width: 0.8"/>
      </g>
     </g>
     <g id="text_3">
      <!-- 0.002 -->
      <g transform="translate(147.577727 200.265926) scale(0.11 -0.11)">
       <defs>
        <path id="DejaVuSans-32" d="M 1228 531 
L 3431 531 
L 3431 0 
L 469 0 
L 469 531 
Q 828 903 1448 1529 
Q 2069 2156 2228 2338 
Q 2531 2678 2651 2914 
Q 2772 3150 2772 3378 
Q 2772 3750 2511 3984 
Q 2250 4219 1831 4219 
Q 1534 4219 1204 4116 
Q 875 4013 500 3803 
L 500 4441 
Q 881 4594 1212 4672 
Q 1544 4750 1819 4750 
Q 2544 4750 2975 4387 
Q 3406 4025 3406 3419 
Q 3406 3131 3298 2873 
Q 3191 2616 2906 2266 
Q 2828 2175 2409 1742 
Q 1991 1309 1228 531 
z
" transform="scale(0.015625)"/>
       </defs>
       <use xlink:href="#DejaVuSans-30"/>
       <use xlink:href="#DejaVuSans-2e" x="63.623047"/>
       <use xlink:href="#DejaVuSans-30" x="95.410156"/>
       <use xlink:href="#DejaVuSans-30" x="159.033203"/>
       <use xlink:href="#DejaVuSans-32" x="222.65625"/>
      </g>
     </g>
    </g>
    <g id="xtick_4">
     <g id="line2d_7">
      <path d="M 214.804325 184.907645 
L 214.804325 7.2 
" clip-path="url(#p157766cb94)" style="fill: none; stroke: #b0b0b0; stroke-width: 0.8; stroke-linecap: square"/>
     </g>
     <g id="line2d_8">
      <g>
       <use xlink:href="#m02bebccdf5" x="214.804325" y="184.907645" style="stroke: #000000; stroke-width: 0.8"/>
      </g>
     </g>
     <g id="text_4">
      <!-- 0.003 -->
      <g transform="translate(199.058856 200.265926) scale(0.11 -0.11)">
       <defs>
        <path id="DejaVuSans-33" d="M 2597 2516 
Q 3050 2419 3304 2112 
Q 3559 1806 3559 1356 
Q 3559 666 3084 287 
Q 2609 -91 1734 -91 
Q 1441 -91 1130 -33 
Q 819 25 488 141 
L 488 750 
Q 750 597 1062 519 
Q 1375 441 1716 441 
Q 2309 441 2620 675 
Q 2931 909 2931 1356 
Q 2931 1769 2642 2001 
Q 2353 2234 1838 2234 
L 1294 2234 
L 1294 2753 
L 1863 2753 
Q 2328 2753 2575 2939 
Q 2822 3125 2822 3475 
Q 2822 3834 2567 4026 
Q 2313 4219 1838 4219 
Q 1578 4219 1281 4162 
Q 984 4106 628 3988 
L 628 4550 
Q 988 4650 1302 4700 
Q 1616 4750 1894 4750 
Q 2613 4750 3031 4423 
Q 3450 4097 3450 3541 
Q 3450 3153 3228 2886 
Q 3006 2619 2597 2516 
z
" transform="scale(0.015625)"/>
       </defs>
       <use xlink:href="#DejaVuSans-30"/>
       <use xlink:href="#DejaVuSans-2e" x="63.623047"/>
       <use xlink:href="#DejaVuSans-30" x="95.410156"/>
       <use xlink:href="#DejaVuSans-30" x="159.033203"/>
       <use xlink:href="#DejaVuSans-33" x="222.65625"/>
      </g>
     </g>
    </g>
    <g id="xtick_5">
     <g id="line2d_9">
      <path d="M 266.285454 184.907645 
L 266.285454 7.2 
" clip-path="url(#p157766cb94)" style="fill: none; stroke: #b0b0b0; stroke-width: 0.8; stroke-linecap: square"/>
     </g>
     <g id="line2d_10">
      <g>
       <use xlink:href="#m02bebccdf5" x="266.285454" y="184.907645" style="stroke: #000000; stroke-width: 0.8"/>
      </g>
     </g>
     <g id="text_5">
      <!-- 0.004 -->
      <g transform="translate(250.539985 200.265926) scale(0.11 -0.11)">
       <defs>
        <path id="DejaVuSans-34" d="M 2419 4116 
L 825 1625 
L 2419 1625 
L 2419 4116 
z
M 2253 4666 
L 3047 4666 
L 3047 1625 
L 3713 1625 
L 3713 1100 
L 3047 1100 
L 3047 0 
L 2419 0 
L 2419 1100 
L 313 1100 
L 313 1709 
L 2253 4666 
z
" transform="scale(0.015625)"/>
       </defs>
       <use xlink:href="#DejaVuSans-30"/>
       <use xlink:href="#DejaVuSans-2e" x="63.623047"/>
       <use xlink:href="#DejaVuSans-30" x="95.410156"/>
       <use xlink:href="#DejaVuSans-30" x="159.033203"/>
       <use xlink:href="#DejaVuSans-34" x="222.65625"/>
      </g>
     </g>
    </g>
    <g id="xtick_6">
     <g id="line2d_11">
      <path d="M 317.766583 184.907645 
L 317.766583 7.2 
" clip-path="url(#p157766cb94)" style="fill: none; stroke: #b0b0b0; stroke-width: 0.8; stroke-linecap: square"/>
     </g>
     <g id="line2d_12">
      <g>
       <use xlink:href="#m02bebccdf5" x="317.766583" y="184.907645" style="stroke: #000000; stroke-width: 0.8"/>
      </g>
     </g>
     <g id="text_6">
      <!-- 0.005 -->
      <g transform="translate(302.021114 200.265926) scale(0.11 -0.11)">
       <defs>
        <path id="DejaVuSans-35" d="M 691 4666 
L 3169 4666 
L 3169 4134 
L 1269 4134 
L 1269 2991 
Q 1406 3038 1543 3061 
Q 1681 3084 1819 3084 
Q 2600 3084 3056 2656 
Q 3513 2228 3513 1497 
Q 3513 744 3044 326 
Q 2575 -91 1722 -91 
Q 1428 -91 1123 -41 
Q 819 9 494 109 
L 494 744 
Q 775 591 1075 516 
Q 1375 441 1709 441 
Q 2250 441 2565 725 
Q 2881 1009 2881 1497 
Q 2881 1984 2565 2268 
Q 2250 2553 1709 2553 
Q 1456 2553 1204 2497 
Q 953 2441 691 2322 
L 691 4666 
z
" transform="scale(0.015625)"/>
       </defs>
       <use xlink:href="#DejaVuSans-30"/>
       <use xlink:href="#DejaVuSans-2e" x="63.623047"/>
       <use xlink:href="#DejaVuSans-30" x="95.410156"/>
       <use xlink:href="#DejaVuSans-30" x="159.033203"/>
       <use xlink:href="#DejaVuSans-35" x="222.65625"/>
      </g>
     </g>
    </g>
    <g id="text_7">
     <!-- z m -->
     <g transform="translate(179.071807 214.911864) scale(0.11 -0.11)">
      <defs>
       <path id="DejaVuSans-7a" d="M 353 3500 
L 3084 3500 
L 3084 2975 
L 922 459 
L 3084 459 
L 3084 0 
L 275 0 
L 275 525 
L 2438 3041 
L 353 3041 
L 353 3500 
z
" transform="scale(0.015625)"/>
       <path id="DejaVuSans-20" transform="scale(0.015625)"/>
       <path id="DejaVuSans-6d" d="M 3328 2828 
Q 3544 3216 3844 3400 
Q 4144 3584 4550 3584 
Q 5097 3584 5394 3201 
Q 5691 2819 5691 2113 
L 5691 0 
L 5113 0 
L 5113 2094 
Q 5113 2597 4934 2840 
Q 4756 3084 4391 3084 
Q 3944 3084 3684 2787 
Q 3425 2491 3425 1978 
L 3425 0 
L 2847 0 
L 2847 2094 
Q 2847 2600 2669 2842 
Q 2491 3084 2119 3084 
Q 1678 3084 1418 2786 
Q 1159 2488 1159 1978 
L 1159 0 
L 581 0 
L 581 3500 
L 1159 3500 
L 1159 2956 
Q 1356 3278 1631 3431 
Q 1906 3584 2284 3584 
Q 2666 3584 2933 3390 
Q 3200 3197 3328 2828 
z
" transform="scale(0.015625)"/>
      </defs>
      <use xlink:href="#DejaVuSans-7a"/>
      <use xlink:href="#DejaVuSans-20" x="52.490234"/>
      <use xlink:href="#DejaVuSans-6d" x="84.277344"/>
     </g>
    </g>
   </g>
   <g id="matplotlib.axis_2">
    <g id="ytick_1">
     <g id="line2d_13">
      <path d="M 60.360937 176.857188 
L 317.766583 176.857188 
" clip-path="url(#p157766cb94)" style="fill: none; stroke: #b0b0b0; stroke-width: 0.8; stroke-linecap: square"/>
     </g>
     <g id="line2d_14">
      <defs>
       <path id="mea703f2987" d="M 0 0 
L -3.5 0 
" style="stroke: #000000; stroke-width: 0.8"/>
      </defs>
      <g>
       <use xlink:href="#mea703f2987" x="60.360937" y="176.857188" style="stroke: #000000; stroke-width: 0.8"/>
      </g>
     </g>
     <g id="text_8">
      <!-- 0.000 -->
      <g transform="translate(21.87 181.036328) scale(0.11 -0.11)">
       <use xlink:href="#DejaVuSans-30"/>
       <use xlink:href="#DejaVuSans-2e" x="63.623047"/>
       <use xlink:href="#DejaVuSans-30" x="95.410156"/>
       <use xlink:href="#DejaVuSans-30" x="159.033203"/>
       <use xlink:href="#DejaVuSans-30" x="222.65625"/>
      </g>
     </g>
    </g>
    <g id="ytick_2">
     <g id="line2d_15">
      <path d="M 60.360937 152.191346 
L 317.766583 152.191346 
" clip-path="url(#p157766cb94)" style="fill: none; stroke: #b0b0b0; stroke-width: 0.8; stroke-linecap: square"/>
     </g>
     <g id="line2d_16">
      <g>
       <use xlink:href="#mea703f2987" x="60.360937" y="152.191346" style="stroke: #000000; stroke-width: 0.8"/>
      </g>
     </g>
     <g id="text_9">
      <!-- 0.025 -->
      <g transform="translate(21.87 156.370487) scale(0.11 -0.11)">
       <use xlink:href="#DejaVuSans-30"/>
       <use xlink:href="#DejaVuSans-2e" x="63.623047"/>
       <use xlink:href="#DejaVuSans-30" x="95.410156"/>
       <use xlink:href="#DejaVuSans-32" x="159.033203"/>
       <use xlink:href="#DejaVuSans-35" x="222.65625"/>
      </g>
     </g>
    </g>
    <g id="ytick_3">
     <g id="line2d_17">
      <path d="M 60.360937 127.525505 
L 317.766583 127.525505 
" clip-path="url(#p157766cb94)" style="fill: none; stroke: #b0b0b0; stroke-width: 0.8; stroke-linecap: square"/>
     </g>
     <g id="line2d_18">
      <g>
       <use xlink:href="#mea703f2987" x="60.360937" y="127.525505" style="stroke: #000000; stroke-width: 0.8"/>
      </g>
     </g>
     <g id="text_10">
      <!-- 0.050 -->
      <g transform="translate(21.87 131.704645) scale(0.11 -0.11)">
       <use xlink:href="#DejaVuSans-30"/>
       <use xlink:href="#DejaVuSans-2e" x="63.623047"/>
       <use xlink:href="#DejaVuSans-30" x="95.410156"/>
       <use xlink:href="#DejaVuSans-35" x="159.033203"/>
       <use xlink:href="#DejaVuSans-30" x="222.65625"/>
      </g>
     </g>
    </g>
    <g id="ytick_4">
     <g id="line2d_19">
      <path d="M 60.360937 102.859663 
L 317.766583 102.859663 
" clip-path="url(#p157766cb94)" style="fill: none; stroke: #b0b0b0; stroke-width: 0.8; stroke-linecap: square"/>
     </g>
     <g id="line2d_20">
      <g>
       <use xlink:href="#mea703f2987" x="60.360937" y="102.859663" style="stroke: #000000; stroke-width: 0.8"/>
      </g>
     </g>
     <g id="text_11">
      <!-- 0.075 -->
      <g transform="translate(21.87 107.038804) scale(0.11 -0.11)">
       <defs>
        <path id="DejaVuSans-37" d="M 525 4666 
L 3525 4666 
L 3525 4397 
L 1831 0 
L 1172 0 
L 2766 4134 
L 525 4134 
L 525 4666 
z
" transform="scale(0.015625)"/>
       </defs>
       <use xlink:href="#DejaVuSans-30"/>
       <use xlink:href="#DejaVuSans-2e" x="63.623047"/>
       <use xlink:href="#DejaVuSans-30" x="95.410156"/>
       <use xlink:href="#DejaVuSans-37" x="159.033203"/>
       <use xlink:href="#DejaVuSans-35" x="222.65625"/>
      </g>
     </g>
    </g>
    <g id="ytick_5">
     <g id="line2d_21">
      <path d="M 60.360937 78.193821 
L 317.766583 78.193821 
" clip-path="url(#p157766cb94)" style="fill: none; stroke: #b0b0b0; stroke-width: 0.8; stroke-linecap: square"/>
     </g>
     <g id="line2d_22">
      <g>
       <use xlink:href="#mea703f2987" x="60.360937" y="78.193821" style="stroke: #000000; stroke-width: 0.8"/>
      </g>
     </g>
     <g id="text_12">
      <!-- 0.100 -->
      <g transform="translate(21.87 82.372962) scale(0.11 -0.11)">
       <use xlink:href="#DejaVuSans-30"/>
       <use xlink:href="#DejaVuSans-2e" x="63.623047"/>
       <use xlink:href="#DejaVuSans-31" x="95.410156"/>
       <use xlink:href="#DejaVuSans-30" x="159.033203"/>
       <use xlink:href="#DejaVuSans-30" x="222.65625"/>
      </g>
     </g>
    </g>
    <g id="ytick_6">
     <g id="line2d_23">
      <path d="M 60.360937 53.52798 
L 317.766583 53.52798 
" clip-path="url(#p157766cb94)" style="fill: none; stroke: #b0b0b0; stroke-width: 0.8; stroke-linecap: square"/>
     </g>
     <g id="line2d_24">
      <g>
       <use xlink:href="#mea703f2987" x="60.360937" y="53.52798" style="stroke: #000000; stroke-width: 0.8"/>
      </g>
     </g>
     <g id="text_13">
      <!-- 0.125 -->
      <g transform="translate(21.87 57.70712) scale(0.11 -0.11)">
       <use xlink:href="#DejaVuSans-30"/>
       <use xlink:href="#DejaVuSans-2e" x="63.623047"/>
       <use xlink:href="#DejaVuSans-31" x="95.410156"/>
       <use xlink:href="#DejaVuSans-32" x="159.033203"/>
       <use xlink:href="#DejaVuSans-35" x="222.65625"/>
      </g>
     </g>
    </g>
    <g id="ytick_7">
     <g id="line2d_25">
      <path d="M 60.360937 28.862138 
L 317.766583 28.862138 
" clip-path="url(#p157766cb94)" style="fill: none; stroke: #b0b0b0; stroke-width: 0.8; stroke-linecap: square"/>
     </g>
     <g id="line2d_26">
      <g>
       <use xlink:href="#mea703f2987" x="60.360937" y="28.862138" style="stroke: #000000; stroke-width: 0.8"/>
      </g>
     </g>
     <g id="text_14">
      <!-- 0.150 -->
      <g transform="translate(21.87 33.041279) scale(0.11 -0.11)">
       <use xlink:href="#DejaVuSans-30"/>
       <use xlink:href="#DejaVuSans-2e" x="63.623047"/>
       <use xlink:href="#DejaVuSans-31" x="95.410156"/>
       <use xlink:href="#DejaVuSans-35" x="159.033203"/>
       <use xlink:href="#DejaVuSans-30" x="222.65625"/>
      </g>
     </g>
    </g>
    <g id="text_15">
     <!-- $\xi$ -->
     <g transform="translate(15.56 99.133823) rotate(-90) scale(0.11 -0.11)">
      <defs>
       <path id="DejaVuSans-Oblique-3be" d="M 2016 397 
Q 2428 394 2628 159 
Q 2844 -88 2772 -463 
Q 2700 -822 2422 -1072 
Q 2119 -1344 1609 -1344 
Q 1656 -1109 1700 -872 
Q 1913 -888 2072 -750 
Q 2194 -641 2216 -525 
Q 2247 -359 2175 -222 
Q 2100 -91 1922 -91 
Q -25 -91 241 1275 
Q 422 2213 1516 2488 
Q 663 2600 822 3413 
Q 941 4028 1678 4284 
L 1028 4284 
L 1141 4863 
L 3606 4863 
L 3494 4284 
Q 1528 4284 1350 3375 
Q 1234 2778 2881 2750 
L 2778 2219 
Q 1009 2288 819 1275 
Q 659 428 2016 397 
z
" transform="scale(0.015625)"/>
      </defs>
      <use xlink:href="#DejaVuSans-Oblique-3be" transform="translate(0 0.015625)"/>
     </g>
    </g>
   </g>
   <g id="line2d_27">
    <path d="M 60.360937 176.830025 
L 69.89448 174.787347 
L 79.428022 170.500339 
L 88.961565 164.684782 
L 98.495107 157.772792 
L 108.02865 150.080713 
L 117.562192 141.839629 
L 127.095734 133.234506 
L 136.629277 124.42362 
L 146.162819 115.539139 
L 155.696362 106.693534 
L 165.229904 97.983536 
L 174.763447 89.492963 
L 184.296989 81.294834 
L 193.830531 73.452978 
L 203.364074 66.023299 
L 212.897616 59.054773 
L 222.431159 52.590259 
L 231.964701 46.667152 
L 241.498244 41.317922 
L 251.031786 36.570571 
L 260.565328 32.449009 
L 270.098871 28.973393 
L 279.632413 26.160426 
L 289.165956 24.023659 
L 298.699498 22.573825 
L 308.233041 21.817845 
L 317.766583 21.817845 
" clip-path="url(#p157766cb94)" style="fill: none; stroke: #1f77b4; stroke-width: 1.5; stroke-linecap: square"/>
   </g>
   <g id="line2d_28">
    <path d="M 60.360937 176.830025 
L 69.89448 174.425164 
L 79.428022 169.46518 
L 88.961565 162.817495 
L 98.495107 159.024875 
L 108.02865 150.740709 
L 117.562192 141.772875 
L 127.095734 132.363171 
L 136.629277 122.707176 
L 146.162819 112.966706 
L 155.696362 103.277804 
L 165.229904 98.489531 
L 174.763447 89.089681 
L 184.296989 80.000763 
L 193.830531 71.302507 
L 203.364074 63.064098 
L 212.897616 55.345662 
L 222.431159 48.199421 
L 231.964701 44.855265 
L 241.498244 38.650186 
L 251.031786 33.118927 
L 260.565328 28.292242 
L 270.098871 24.195951 
L 279.632413 20.851314 
L 289.165956 18.275368 
L 298.699498 17.27991 
L 308.233041 15.880671 
L 317.766583 15.27762 
" clip-path="url(#p157766cb94)" style="fill: none; stroke: #ff7f0e; stroke-width: 1.5; stroke-linecap: square"/>
   </g>
   <g id="line2d_29">
    <path d="M 60.360937 176.830025 
L 69.89448 174.252439 
L 79.428022 170.600755 
L 88.961565 164.327015 
L 98.495107 158.889456 
L 108.02865 150.989863 
L 117.562192 144.740484 
L 127.095734 136.158623 
L 136.629277 127.455851 
L 146.162819 120.936974 
L 155.696362 112.351255 
L 165.229904 106.045854 
L 174.763447 97.884389 
L 184.296989 91.986467 
L 193.830531 84.468794 
L 203.364074 77.393955 
L 212.897616 72.40473 
L 222.431159 66.204573 
L 231.964701 61.910755 
L 241.498244 56.681934 
L 251.031786 53.144739 
L 260.565328 48.95601 
L 270.098871 45.38423 
L 279.632413 43.117972 
L 289.165956 40.655145 
L 298.699498 39.232872 
L 308.233041 37.913194 
L 317.766583 37.367665 
" clip-path="url(#p157766cb94)" style="fill: none; stroke: #2ca02c; stroke-width: 1.5; stroke-linecap: square"/>
   </g>
   <g id="line2d_30">
    <path d="M 60.360937 176.830025 
L 69.89448 174.900715 
L 79.428022 171.128992 
L 88.961565 166.236087 
L 98.495107 159.761294 
L 108.02865 153.603324 
L 117.562192 147.171254 
L 127.095734 140.596747 
L 136.629277 133.982025 
L 146.162819 127.408027 
L 155.696362 120.939888 
L 165.229904 113.74501 
L 174.763447 107.670329 
L 184.296989 101.840067 
L 193.830531 96.282617 
L 203.364074 91.023006 
L 212.897616 86.081634 
L 222.431159 81.476145 
L 231.964701 76.642253 
L 241.498244 72.801675 
L 251.031786 69.334229 
L 260.565328 66.247562 
L 270.098871 63.547758 
L 279.632413 61.23968 
L 289.165956 59.327497 
L 298.699498 57.632692 
L 308.233041 56.587043 
L 317.766583 55.966521 
" clip-path="url(#p157766cb94)" style="fill: none; stroke: #d62728; stroke-width: 1.5; stroke-linecap: square"/>
   </g>
   <g id="line2d_31">
    <path d="M 60.360937 176.830025 
L 69.89448 174.928731 
L 79.428022 170.913039 
L 88.961565 166.052623 
L 98.495107 160.498376 
L 108.02865 154.494838 
L 117.562192 147.762701 
L 127.095734 141.338188 
L 136.629277 134.880368 
L 146.162819 128.013793 
L 155.696362 121.720695 
L 165.229904 115.591326 
L 174.763447 109.667077 
L 184.296989 103.585844 
L 193.830531 98.18806 
L 203.364074 93.08225 
L 212.897616 87.957131 
L 222.431159 83.512331 
L 231.964701 79.407295 
L 241.498244 75.651948 
L 251.031786 72.025468 
L 260.565328 69.017632 
L 270.098871 66.378364 
L 279.632413 63.963659 
L 289.165956 62.099132 
L 298.699498 60.615155 
L 308.233041 59.52019 
L 317.766583 58.799309 
" clip-path="url(#p157766cb94)" style="fill: none; stroke: #9467bd; stroke-width: 1.5; stroke-linecap: square"/>
   </g>
   <g id="line2d_32">
    <path d="M 60.360937 176.830025 
L 69.89448 174.812519 
L 79.428022 171.047874 
L 88.961565 166.01586 
L 98.495107 160.444541 
L 108.02865 154.198751 
L 117.562192 147.888229 
L 127.095734 141.202563 
L 136.629277 134.474423 
L 146.162819 128.020237 
L 155.696362 121.44709 
L 165.229904 115.261123 
L 174.763447 109.065711 
L 184.296989 103.323788 
L 193.830531 97.656089 
L 203.364074 92.298587 
L 212.897616 87.440761 
L 222.431159 82.753282 
L 231.964701 78.573378 
L 241.498244 74.614529 
L 251.031786 71.159158 
L 260.565328 67.968466 
L 270.098871 65.179305 
L 279.632413 62.872632 
L 289.165956 60.888841 
L 298.699498 59.370437 
L 308.233041 58.217862 
L 317.766583 57.526357 
" clip-path="url(#p157766cb94)" style="fill: none; stroke: #8c564b; stroke-width: 1.5; stroke-linecap: square"/>
   </g>
   <g id="line2d_33">
    <path d="M 60.360937 176.830025 
L 69.89448 174.821657 
L 79.428022 171.035812 
L 88.961565 166.003314 
L 98.495107 160.221075 
L 108.02865 153.957772 
L 117.562192 147.589291 
L 127.095734 140.891719 
L 136.629277 134.154396 
L 146.162819 127.648886 
L 155.696362 121.071544 
L 165.229904 114.665728 
L 174.763447 108.47752 
L 184.296989 102.705716 
L 193.830531 97.050957 
L 203.364074 91.707633 
L 212.897616 86.831541 
L 222.431159 82.161194 
L 231.964701 77.855027 
L 241.498244 73.924753 
L 251.031786 70.472988 
L 260.565328 67.309826 
L 270.098871 64.545225 
L 279.632413 62.244062 
L 289.165956 60.278873 
L 298.699498 58.725492 
L 308.233041 57.590667 
L 317.766583 56.90203 
" clip-path="url(#p157766cb94)" style="fill: none; stroke: #e377c2; stroke-width: 1.5; stroke-linecap: square"/>
   </g>
   <g id="patch_3">
    <path d="M 60.360937 184.907645 
L 60.360937 7.2 
" style="fill: none; stroke: #000000; stroke-width: 0.8; stroke-linejoin: miter; stroke-linecap: square"/>
   </g>
   <g id="patch_4">
    <path d="M 317.766583 184.907645 
L 317.766583 7.2 
" style="fill: none; stroke: #000000; stroke-width: 0.8; stroke-linejoin: miter; stroke-linecap: square"/>
   </g>
   <g id="patch_5">
    <path d="M 60.360937 184.907645 
L 317.766583 184.907645 
" style="fill: none; stroke: #000000; stroke-width: 0.8; stroke-linejoin: miter; stroke-linecap: square"/>
   </g>
   <g id="patch_6">
    <path d="M 60.360937 7.2 
L 317.766583 7.2 
" style="fill: none; stroke: #000000; stroke-width: 0.8; stroke-linejoin: miter; stroke-linecap: square"/>
   </g>
   <g id="legend_1">
    <g id="patch_7">
     <path d="M 338.336865 129.021563 
L 430.834834 129.021563 
Q 433.034834 129.021563 433.034834 126.821563 
L 433.034834 14.9 
Q 433.034834 12.7 430.834834 12.7 
L 338.336865 12.7 
Q 336.136865 12.7 336.136865 14.9 
L 336.136865 126.821563 
Q 336.136865 129.021563 338.336865 129.021563 
z
" style="fill: #ffffff; opacity: 0.8; stroke: #cccccc; stroke-linejoin: miter"/>
    </g>
    <g id="line2d_34">
     <path d="M 340.536865 21.608281 
L 351.536865 21.608281 
L 362.536865 21.608281 
" style="fill: none; stroke: #1f77b4; stroke-width: 1.5; stroke-linecap: square"/>
    </g>
    <g id="text_16">
     <!-- xi nz 28 -->
     <g transform="translate(371.336865 25.458281) scale(0.11 -0.11)">
      <defs>
       <path id="DejaVuSans-78" d="M 3513 3500 
L 2247 1797 
L 3578 0 
L 2900 0 
L 1881 1375 
L 863 0 
L 184 0 
L 1544 1831 
L 300 3500 
L 978 3500 
L 1906 2253 
L 2834 3500 
L 3513 3500 
z
" transform="scale(0.015625)"/>
       <path id="DejaVuSans-69" d="M 603 3500 
L 1178 3500 
L 1178 0 
L 603 0 
L 603 3500 
z
M 603 4863 
L 1178 4863 
L 1178 4134 
L 603 4134 
L 603 4863 
z
" transform="scale(0.015625)"/>
       <path id="DejaVuSans-6e" d="M 3513 2113 
L 3513 0 
L 2938 0 
L 2938 2094 
Q 2938 2591 2744 2837 
Q 2550 3084 2163 3084 
Q 1697 3084 1428 2787 
Q 1159 2491 1159 1978 
L 1159 0 
L 581 0 
L 581 3500 
L 1159 3500 
L 1159 2956 
Q 1366 3272 1645 3428 
Q 1925 3584 2291 3584 
Q 2894 3584 3203 3211 
Q 3513 2838 3513 2113 
z
" transform="scale(0.015625)"/>
       <path id="DejaVuSans-38" d="M 2034 2216 
Q 1584 2216 1326 1975 
Q 1069 1734 1069 1313 
Q 1069 891 1326 650 
Q 1584 409 2034 409 
Q 2484 409 2743 651 
Q 3003 894 3003 1313 
Q 3003 1734 2745 1975 
Q 2488 2216 2034 2216 
z
M 1403 2484 
Q 997 2584 770 2862 
Q 544 3141 544 3541 
Q 544 4100 942 4425 
Q 1341 4750 2034 4750 
Q 2731 4750 3128 4425 
Q 3525 4100 3525 3541 
Q 3525 3141 3298 2862 
Q 3072 2584 2669 2484 
Q 3125 2378 3379 2068 
Q 3634 1759 3634 1313 
Q 3634 634 3220 271 
Q 2806 -91 2034 -91 
Q 1263 -91 848 271 
Q 434 634 434 1313 
Q 434 1759 690 2068 
Q 947 2378 1403 2484 
z
M 1172 3481 
Q 1172 3119 1398 2916 
Q 1625 2713 2034 2713 
Q 2441 2713 2670 2916 
Q 2900 3119 2900 3481 
Q 2900 3844 2670 4047 
Q 2441 4250 2034 4250 
Q 1625 4250 1398 4047 
Q 1172 3844 1172 3481 
z
" transform="scale(0.015625)"/>
      </defs>
      <use xlink:href="#DejaVuSans-78"/>
      <use xlink:href="#DejaVuSans-69" x="59.179688"/>
      <use xlink:href="#DejaVuSans-20" x="86.962891"/>
      <use xlink:href="#DejaVuSans-6e" x="118.75"/>
      <use xlink:href="#DejaVuSans-7a" x="182.128906"/>
      <use xlink:href="#DejaVuSans-20" x="234.619141"/>
      <use xlink:href="#DejaVuSans-32" x="266.40625"/>
      <use xlink:href="#DejaVuSans-38" x="330.029297"/>
     </g>
    </g>
    <g id="line2d_35">
     <path d="M 340.536865 37.754219 
L 351.536865 37.754219 
L 362.536865 37.754219 
" style="fill: none; stroke: #ff7f0e; stroke-width: 1.5; stroke-linecap: square"/>
    </g>
    <g id="text_17">
     <!-- xi nz 52 -->
     <g transform="translate(371.336865 41.604219) scale(0.11 -0.11)">
      <use xlink:href="#DejaVuSans-78"/>
      <use xlink:href="#DejaVuSans-69" x="59.179688"/>
      <use xlink:href="#DejaVuSans-20" x="86.962891"/>
      <use xlink:href="#DejaVuSans-6e" x="118.75"/>
      <use xlink:href="#DejaVuSans-7a" x="182.128906"/>
      <use xlink:href="#DejaVuSans-20" x="234.619141"/>
      <use xlink:href="#DejaVuSans-35" x="266.40625"/>
      <use xlink:href="#DejaVuSans-32" x="330.029297"/>
     </g>
    </g>
    <g id="line2d_36">
     <path d="M 340.536865 53.900156 
L 351.536865 53.900156 
L 362.536865 53.900156 
" style="fill: none; stroke: #2ca02c; stroke-width: 1.5; stroke-linecap: square"/>
    </g>
    <g id="text_18">
     <!-- xi nz 100 -->
     <g transform="translate(371.336865 57.750156) scale(0.11 -0.11)">
      <use xlink:href="#DejaVuSans-78"/>
      <use xlink:href="#DejaVuSans-69" x="59.179688"/>
      <use xlink:href="#DejaVuSans-20" x="86.962891"/>
      <use xlink:href="#DejaVuSans-6e" x="118.75"/>
      <use xlink:href="#DejaVuSans-7a" x="182.128906"/>
      <use xlink:href="#DejaVuSans-20" x="234.619141"/>
      <use xlink:href="#DejaVuSans-31" x="266.40625"/>
      <use xlink:href="#DejaVuSans-30" x="330.029297"/>
      <use xlink:href="#DejaVuSans-30" x="393.652344"/>
     </g>
    </g>
    <g id="line2d_37">
     <path d="M 340.536865 70.046094 
L 351.536865 70.046094 
L 362.536865 70.046094 
" style="fill: none; stroke: #d62728; stroke-width: 1.5; stroke-linecap: square"/>
    </g>
    <g id="text_19">
     <!-- xi nz 200 -->
     <g transform="translate(371.336865 73.896094) scale(0.11 -0.11)">
      <use xlink:href="#DejaVuSans-78"/>
      <use xlink:href="#DejaVuSans-69" x="59.179688"/>
      <use xlink:href="#DejaVuSans-20" x="86.962891"/>
      <use xlink:href="#DejaVuSans-6e" x="118.75"/>
      <use xlink:href="#DejaVuSans-7a" x="182.128906"/>
      <use xlink:href="#DejaVuSans-20" x="234.619141"/>
      <use xlink:href="#DejaVuSans-32" x="266.40625"/>
      <use xlink:href="#DejaVuSans-30" x="330.029297"/>
      <use xlink:href="#DejaVuSans-30" x="393.652344"/>
     </g>
    </g>
    <g id="line2d_38">
     <path d="M 340.536865 86.192031 
L 351.536865 86.192031 
L 362.536865 86.192031 
" style="fill: none; stroke: #9467bd; stroke-width: 1.5; stroke-linecap: square"/>
    </g>
    <g id="text_20">
     <!-- xi nz 400 -->
     <g transform="translate(371.336865 90.042031) scale(0.11 -0.11)">
      <use xlink:href="#DejaVuSans-78"/>
      <use xlink:href="#DejaVuSans-69" x="59.179688"/>
      <use xlink:href="#DejaVuSans-20" x="86.962891"/>
      <use xlink:href="#DejaVuSans-6e" x="118.75"/>
      <use xlink:href="#DejaVuSans-7a" x="182.128906"/>
      <use xlink:href="#DejaVuSans-20" x="234.619141"/>
      <use xlink:href="#DejaVuSans-34" x="266.40625"/>
      <use xlink:href="#DejaVuSans-30" x="330.029297"/>
      <use xlink:href="#DejaVuSans-30" x="393.652344"/>
     </g>
    </g>
    <g id="line2d_39">
     <path d="M 340.536865 102.337969 
L 351.536865 102.337969 
L 362.536865 102.337969 
" style="fill: none; stroke: #8c564b; stroke-width: 1.5; stroke-linecap: square"/>
    </g>
    <g id="text_21">
     <!-- xi nz 800 -->
     <g transform="translate(371.336865 106.187969) scale(0.11 -0.11)">
      <use xlink:href="#DejaVuSans-78"/>
      <use xlink:href="#DejaVuSans-69" x="59.179688"/>
      <use xlink:href="#DejaVuSans-20" x="86.962891"/>
      <use xlink:href="#DejaVuSans-6e" x="118.75"/>
      <use xlink:href="#DejaVuSans-7a" x="182.128906"/>
      <use xlink:href="#DejaVuSans-20" x="234.619141"/>
      <use xlink:href="#DejaVuSans-38" x="266.40625"/>
      <use xlink:href="#DejaVuSans-30" x="330.029297"/>
      <use xlink:href="#DejaVuSans-30" x="393.652344"/>
     </g>
    </g>
    <g id="line2d_40">
     <path d="M 340.536865 118.483906 
L 351.536865 118.483906 
L 362.536865 118.483906 
" style="fill: none; stroke: #e377c2; stroke-width: 1.5; stroke-linecap: square"/>
    </g>
    <g id="text_22">
     <!-- xi nz 1000 -->
     <g transform="translate(371.336865 122.333906) scale(0.11 -0.11)">
      <use xlink:href="#DejaVuSans-78"/>
      <use xlink:href="#DejaVuSans-69" x="59.179688"/>
      <use xlink:href="#DejaVuSans-20" x="86.962891"/>
      <use xlink:href="#DejaVuSans-6e" x="118.75"/>
      <use xlink:href="#DejaVuSans-7a" x="182.128906"/>
      <use xlink:href="#DejaVuSans-20" x="234.619141"/>
      <use xlink:href="#DejaVuSans-31" x="266.40625"/>
      <use xlink:href="#DejaVuSans-30" x="330.029297"/>
      <use xlink:href="#DejaVuSans-30" x="393.652344"/>
      <use xlink:href="#DejaVuSans-30" x="457.275391"/>
     </g>
    </g>
   </g>
  </g>
 </g>
 <defs>
  <clipPath id="p157766cb94">
   <rect x="60.360937" y="7.2" width="257.405646" height="177.707645"/>
  </clipPath>
 </defs>
</svg>
